{
.appVersion = "936";
DisplayStrings = (
I,
IJK,
IKLX,
pqnrt,
abcdeignehirs,
"/circumflexcomb.case C/Ccircumflex",
/Ccircumflex,
/st_con.comp/st_con.comp/s_t.dlig,
/s_p.dlig,
/acutecomb/zacute,
"/dieresiscomb/dotaccentcomb/gravecomb/acutecomb/hungarumlautcomb/circumflexcomb/caroncomb/brevecomb/ringcomb/tildecomb/macroncomb ,,/commaturnedabovecomb/commaaccentcomb/cedillacomb/ogonekcomb/strokeshortcomb/slashshortcomb/slashlongcomb/dieresiscomb.case/dotaccentcomb.case/gravecomb.case/acutecomb.case/hungarumlautcomb.case/circumflexcomb.case/caroncomb.case/brevecomb.case/ringcomb.case/tildecomb.case/macroncomb.case/slashlongcomb.case \U00B4/breve/caron \U00B8/circumflex/dieresiscomb \U00A8/dotaccentcomb/dotaccent `/hungarumlaut \U00AF/ogonek/ring/tilde",
"\U00DFab",
"/Germandbls IJK/germandbls.calt"
);
classes = (
{
automatic = 1;
code = "A Aacute Abreve Acircumflex Adieresis Agrave Amacron Aogonek Aring Atilde AE B C Cacute Ccaron Ccedilla Ccircumflex D Eth Dcaron Dcroat E Eacute Ecaron Ecircumflex Edieresis Edotaccent Egrave Emacron Eogonek F G Gcircumflex Gcommaaccent H Hcircumflex I Iacute Icircumflex Idieresis Igrave Imacron Iogonek J Jcircumflex K Kcommaaccent L Lacute Lcaron Lcommaaccent Lslash M N Nacute Ncaron Ncommaaccent Eng Ntilde O Oacute Ocircumflex Odieresis Ograve Ohungarumlaut Omacron Oslash Otilde OE P Thorn Q Q.alt R Racute Rcaron Rcommaaccent S Sacute Scaron Scedilla Scircumflex Germandbls T Tbar Tcaron Tcedilla U Uacute Ubreve Ucircumflex Udieresis Ugrave Uhungarumlaut Umacron Uogonek Uring V W Wacute Wcircumflex Wdieresis Wgrave X Y Yacute Ycircumflex Ydieresis Ygrave Z Z.ss01 Zacute Zcaron Zdotaccent";
name = Uppercase;
}
);
customParameters = (
{
name = note;
value = "Making the regular: move right 10 in and left 10 in, reduce connections by 10 if necessary, might need more adjustment for caps\012";
}
);
date = "2016-03-03 10:15:36 +0000";
designer = "Mirco Monsees";
designerURL = mircomonsees.com;
familyName = "Alenta Serif";
featurePrefixes = (

glyphs = (
{
color = 5;
glyphname = A;
lastChange = "2016-11-22 13:36:40 +0000";
layers = (
{
anchors = (
{
name = bottom;
position = "{353, 0}";
},
{
name = ogonek;
position = "{634, 10}";
},
{
name = top;
position = "{353, 700}";
}
);
background = {
components = (
{
name = V;
transform = "{-1, 0, 0, -1, 725, 700}";
}
);
};
layerId = "11343128-4963-4E5D-BE9C-B74F53B36FA5";
paths = (
{
closed = 1;
nodes = (
"295 681 LINE",
"299 669 OFFCURVE",
"302 630 OFFCURVE",
"310 601 CURVE",
"354 439 OFFCURVE",
"468 104 OFFCURVE",
"473 95 CURVE SMOOTH",
"481 80 OFFCURVE",
"502 66 OFFCURVE",
"521 65 CURVE",
"425 55 LINE",
"422 0 LINE",
"685 0 LINE",
"690 54 LINE",
"636 66 LINE",
"601 128 OFFCURVE",
"441 595 OFFCURVE",
"416 681 CURVE"
);
},
{
closed = 1;
nodes = (
"166 206 LINE",
"481 205 LINE",
"477 278 LINE",
"172 280 LINE"
);
},
{
closed = 1;
nodes = (
"230 228 OFFCURVE",
"289 390 OFFCURVE",
"341 539 CURVE SMOOTH",
"374 632 OFFCURVE",
"374 613 OFFCURVE",
"411 681 CURVE",
"295 681 LINE",
"239 511 OFFCURVE",
"125 206 OFFCURVE",
"92 126 CURVE SMOOTH",
"66 63 OFFCURVE",
"39 55 OFFCURVE",
"4 55 CURVE",
"0 0 LINE",
"242 1 LINE",
"250 54 LINE",
"192 66 LINE"
);
}
);
width = 705;
},
{
anchors = (
{
name = bottom;
position = "{339, 0}";
},
{
name = ogonek;
position = "{620, 10}";
},
{
name = top;
position = "{339, 700}";
}
);
background = {
components = (
{
name = V;
transform = "{-1, 0, 0, -1, 711, 700}";
}
);
};
layerId = "0B1F8F77-7348-4C28-A663-EA76351238C4";
paths = (
{
closed = 1;
nodes = (
"295 681 LINE",
"299 669 OFFCURVE",
"298 630 OFFCURVE",
"306 601 CURVE",
"350 439 OFFCURVE",
"464 104 OFFCURVE",
"469 95 CURVE SMOOTH",
"477 80 OFFCURVE",
"498 66 OFFCURVE",
"517 65 CURVE",
"421 55 LINE",
"418 0 LINE",
"661 0 LINE",
"666 54 LINE",
"612 66 LINE",
"577 128 OFFCURVE",
"417 595 OFFCURVE",
"392 681 CURVE"
);
},
{
closed = 1;
nodes = (
"152 206 LINE",
"467 205 LINE",
"463 278 LINE",
"158 280 LINE"
);
},
{
closed = 1;
nodes = (
"215 228 OFFCURVE",
"274 390 OFFCURVE",
"326 539 CURVE SMOOTH",
"359 632 OFFCURVE",
"350 613 OFFCURVE",
"387 681 CURVE",
"295 681 LINE",
"239 511 OFFCURVE",
"125 206 OFFCURVE",
"92 126 CURVE SMOOTH",
"66 63 OFFCURVE",
"39 55 OFFCURVE",
"4 55 CURVE",
"0 0 LINE",
"227 1 LINE",
"235 54 LINE",
"177 66 LINE"
);
}
);
width = 681;
}
);
leftKerningGroup = A;
rightKerningGroup = A;
unicode = 0041;
},
{
glyphname = AE;
lastChange = "2016-11-22 13:36:40 +0000";
layers = (
{
background = {
components = (
{
name = E;
transform = "{1, 0, 0, 1, 295, 0}";
}
);
};
layerId = "11343128-4963-4E5D-BE9C-B74F53B36FA5";
paths = (
{
closed = 1;
nodes = (
"150 216 LINE",
"446 256 LINE",
"461 345 LINE",
"184 294 LINE"
);
},
{
closed = 1;
nodes = (
"495 280 LINE",
"637 297 LINE",
"645 249 LINE",
"703 252 LINE",
"710 295 OFFCURVE",
"721 392 OFFCURVE",
"706 392 CURVE SMOOTH",
"653 392 OFFCURVE",
"465 349 OFFCURVE",
"502 350 CURVE"
);
},
{
closed = 1;
nodes = (
"474 60 LINE",
"466 0 LINE",
"588 0 OFFCURVE",
"685 -1 OFFCURVE",
"807 -5 CURVE",
"840 162 LINE",
"781 170 LINE SMOOTH",
"751 101 LINE SMOOTH",
"707 87 OFFCURVE",
"623 83 OFFCURVE",
"547 85 CURVE"
);
},
{
closed = 1;
nodes = (
"299 614 LINE",
"222 438 OFFCURVE",
"105 178 OFFCURVE",
"67 106 CURVE SMOOTH",
"49 69 OFFCURVE",
"18 55 OFFCURVE",
"0 55 CURVE",
"5 0 LINE",
"200 1 LINE",
"213 55 LINE",
"156 67 LINE",
"201 194 OFFCURVE",
"387 578 OFFCURVE",
"415 618 CURVE"
);
},
{
closed = 1;
nodes = (
"383 418 OFFCURVE",
"407 105 OFFCURVE",
"410 97 CURVE",
"415 82 OFFCURVE",
"432 68 OFFCURVE",
"451 67 CURVE",
"352 55 LINE",
"345 0 LINE",
"599 0 LINE",
"616 49 LINE",
"561 61 LINE",
"545 110 OFFCURVE",
"515 411 OFFCURVE",
"501 582 CURVE",
"590 581 OFFCURVE",
"647 579 OFFCURVE",
"694 569 CURVE",
"722 507 LINE",
"779 517 LINE",
"766 682 LINE",
"736 681 OFFCURVE",
"579 676 OFFCURVE",
"469 676 CURVE SMOOTH",
"394 676 OFFCURVE",
"335 677 OFFCURVE",
"257 680 CURVE",
"245 616 LINE",
"374 581 LINE"
);
}
);
width = 860;
},
{
background = {
components = (
{
name = E;
transform = "{1, 0, 0, 1, 295, 0}";
}
);
};
layerId = "0B1F8F77-7348-4C28-A663-EA76351238C4";
paths = (
{
closed = 1;
nodes = (
"150 216 LINE",
"446 256 LINE",
"461 345 LINE",
"184 294 LINE"
);
},
{
closed = 1;
nodes = (
"495 280 LINE",
"637 297 LINE",
"645 249 LINE",
"703 252 LINE",
"710 295 OFFCURVE",
"721 392 OFFCURVE",
"706 392 CURVE SMOOTH",
"653 392 OFFCURVE",
"465 349 OFFCURVE",
"502 350 CURVE"
);
},
{
closed = 1;
nodes = (
"474 60 LINE",
"466 0 LINE",
"588 0 OFFCURVE",
"685 -1 OFFCURVE",
"807 -5 CURVE",
"840 162 LINE",
"781 170 LINE SMOOTH",
"751 101 LINE SMOOTH",
"707 87 OFFCURVE",
"623 83 OFFCURVE",
"547 85 CURVE"
);
},
{
closed = 1;
nodes = (
"299 614 LINE",
"222 438 OFFCURVE",
"105 178 OFFCURVE",
"67 106 CURVE SMOOTH",
"49 69 OFFCURVE",
"18 55 OFFCURVE",
"0 55 CURVE",
"5 0 LINE",
"200 1 LINE",
"213 55 LINE",
"156 67 LINE",
"201 194 OFFCURVE",
"387 578 OFFCURVE",
"415 618 CURVE"
);
},
{
closed = 1;
nodes = (
"383 418 OFFCURVE",
"407 105 OFFCURVE",
"410 97 CURVE",
"415 82 OFFCURVE",
"432 68 OFFCURVE",
"451 67 CURVE",
"352 55 LINE",
"345 0 LINE",
"599 0 LINE",
"616 49 LINE",
"561 61 LINE",
"545 110 OFFCURVE",
"515 411 OFFCURVE",
"501 582 CURVE",
"590 581 OFFCURVE",
"647 579 OFFCURVE",
"694 569 CURVE",
"722 507 LINE",
"779 517 LINE",
"766 682 LINE",
"736 681 OFFCURVE",
"579 676 OFFCURVE",
"469 676 CURVE SMOOTH",
"394 676 OFFCURVE",
"335 677 OFFCURVE",
"257 680 CURVE",
"245 616 LINE",
"374 581 LINE"
);
}
);
width = 860;
}
);
leftKerningGroup = A;
leftMetricsKey = A;
rightKerningGroup = E;
rightMetricsKey = "=E-10";
unicode = 00C6;
},
{
color = 5;
glyphname = B;
lastChange = "2016-11-22 13:36:40 +0000";
layers = (
{
anchors = (
{
name = bottom;
position = "{307, 0}";
},
{
name = top;
position = "{307, 700}";
}
);
background = {
components = (
{
name = R;
}
);
};
layerId = "11343128-4963-4E5D-BE9C-B74F53B36FA5";
paths = (
{
closed = 1;
nodes = (
"223 299 LINE",
"369 355 LINE",
"473 346 OFFCURVE",
"561 451 OFFCURVE",
"530 555 CURVE SMOOTH",
"494 676 OFFCURVE",
"356 688 OFFCURVE",
"192 685 CURVE SMOOTH",
"140 684 OFFCURVE",
"51 680 OFFCURVE",
"43 677 CURVE",
"224 598 LINE",
"393 634 OFFCURVE",
"451 441 OFFCURVE",
"360 385 CURVE",
"321 381 OFFCURVE",
"264 375 OFFCURVE",
"222 390 CURVE"
);
},
{
closed = 1;
nodes = (
"160 -1 LINE",
"340 -3 LINE SMOOTH",
"467 -4 OFFCURVE",
"620 70 OFFCURVE",
"568 254 CURVE SMOOTH",
"524 411 OFFCURVE",
"300 384 OFFCURVE",
"238 346 CURVE",
"226 300 LINE",
"452 358 OFFCURVE",
"517 122 OFFCURVE",
"352 77 CURVE",
"243 89 LINE"
);
},
{
closed = 1;
nodes = (
"43 677 LINE",
"38 622 LINE",
"93 611 LINE",
"105 586 OFFCURVE",
"105 511 OFFCURVE",
"105 395 CURVE SMOOTH",
"105 185 OFFCURVE",
"90 112 OFFCURVE",
"95 96 CURVE SMOOTH",
"99 84 OFFCURVE",
"115 69 OFFCURVE",
"144 63 CURVE",
"37 55 LINE",
"35 0 LINE",
"324 -3 LINE",
"321 52 LINE",
"263 62 LINE",
"225 121 OFFCURVE",
"233 306 OFFCURVE",
"233 352 CURVE SMOOTH",
"233 509 OFFCURVE",
"236 566 OFFCURVE",
"249 587 CURVE SMOOTH",
"259 607 OFFCURVE",
"286 620 OFFCURVE",
"309 622 CURVE",
"310 677 LINE"
);
}
);
width = 614;
},
{
anchors = (
{
name = bottom;
position = "{297, 0}";
},
{
name = top;
position = "{297, 700}";
}
);
background = {
components = (
{
name = R;
transform = "{1, 0, 0, 1, -10, 0}";
}
);
};
layerId = "0B1F8F77-7348-4C28-A663-EA76351238C4";
paths = (
{
closed = 1;
nodes = (
"213 309 LINE",
"359 355 LINE",
"463 346 OFFCURVE",
"541 451 OFFCURVE",
"510 555 CURVE SMOOTH",
"474 676 OFFCURVE",
"346 689 OFFCURVE",
"182 685 CURVE SMOOTH",
"140 684 OFFCURVE",
"51 680 OFFCURVE",
"43 677 CURVE",
"214 608 LINE",
"393 645 OFFCURVE",
"451 436 OFFCURVE",
"350 379 CURVE",
"311 375 OFFCURVE",
"254 369 OFFCURVE",
"212 384 CURVE"
);
},
{
closed = 1;
nodes = (
"160 -1 LINE",
"330 -3 LINE SMOOTH",
"457 -4 OFFCURVE",
"600 70 OFFCURVE",
"548 254 CURVE SMOOTH",
"504 411 OFFCURVE",
"290 378 OFFCURVE",
"228 346 CURVE",
"216 310 LINE",
"452 368 OFFCURVE",
"517 112 OFFCURVE",
"342 67 CURVE",
"233 79 LINE"
);
},
{
closed = 1;
nodes = (
"43 677 LINE",
"38 622 LINE",
"93 611 LINE",
"105 586 OFFCURVE",
"105 511 OFFCURVE",
"105 395 CURVE SMOOTH",
"105 185 OFFCURVE",
"90 112 OFFCURVE",
"95 96 CURVE SMOOTH",
"99 84 OFFCURVE",
"115 69 OFFCURVE",
"144 63 CURVE",
"37 55 LINE",
"35 0 LINE",
"314 -3 LINE",
"301 52 LINE",
"243 62 LINE",
"205 121 OFFCURVE",
"213 316 OFFCURVE",
"213 352 CURVE SMOOTH",
"213 509 OFFCURVE",
"216 566 OFFCURVE",
"229 587 CURVE SMOOTH",
"239 607 OFFCURVE",
"266 620 OFFCURVE",
"289 622 CURVE",
"300 677 LINE"
);
}
);
width = 594;
}
);
leftKerningGroup = I;
leftMetricsKey = I;
rightKerningGroup = B;
unicode = 0042;
},
{
color = 5;
glyphname = C;
lastChange = "2016-11-22 13:54:15 +0000";
layers = (
{
anchors = (
{
name = bottom;
position = "{309, 0}";
},
{
name = top;
position = "{333, 700}";
}
);
background = {
components = (
{
name = O;
transform = "{1, 0, 0, 1, 1, 0}";
}
);
};
layerId = "11343128-4963-4E5D-BE9C-B74F53B36FA5";
paths = (
{
closed = 1;
nodes = (
"530 102 OFFCURVE",
"474 86 OFFCURVE",
"411 93 CURVE SMOOTH",
"300 105 OFFCURVE",
"243 160 OFFCURVE",
"214 265 CURVE SMOOTH",
"164 447 OFFCURVE",
"266 572 OFFCURVE",
"339 598 CURVE",
"432 598 OFFCURVE",
"468 540 OFFCURVE",
"491 509 CURVE",
"498 468 LINE",
"570 478 LINE",
"584 616 LINE",
"549 651 OFFCURVE",
"467 693 OFFCURVE",
"368 694 CURVE SMOOTH",
"102 698 OFFCURVE",
"-20 439 OFFCURVE",
"51 202 CURVE SMOOTH",
"99 42 OFFCURVE",
"229 -15 OFFCURVE",
"371 -9 CURVE SMOOTH",
"484 -4 OFFCURVE",
"564 40 OFFCURVE",
"585 58 CURVE",
"565 131 LINE"
);
}
);
width = 618;
},
{
anchors = (
{
name = bottom;
position = "{309, 0}";
},
{
name = top;
position = "{333, 700}";
}
);
background = {
components = (
{
name = O;
transform = "{1, 0, 0, 1, 1, 0}";
}
);
};
layerId = "0B1F8F77-7348-4C28-A663-EA76351238C4";
paths = (
{
closed = 1;
nodes = (
"530 86 OFFCURVE",
"466 70 OFFCURVE",
"402 75 CURVE SMOOTH",
"291 84 OFFCURVE",
"213 160 OFFCURVE",
"184 265 CURVE SMOOTH",
"134 447 OFFCURVE",
"246 596 OFFCURVE",
"319 622 CURVE",
"412 622 OFFCURVE",
"478 569 OFFCURVE",
"501 538 CURVE",
"508 487 LINE",
"570 497 LINE",
"584 616 LINE",
"549 651 OFFCURVE",
"467 693 OFFCURVE",
"368 694 CURVE SMOOTH",
"102 698 OFFCURVE",
"-10 439 OFFCURVE",
"61 202 CURVE SMOOTH",
"109 42 OFFCURVE",
"229 -15 OFFCURVE",
"371 -9 CURVE SMOOTH",
"484 -4 OFFCURVE",
"564 40 OFFCURVE",
"585 58 CURVE",
"565 115 LINE"
);
}
);
width = 618;
}
);
leftKerningGroup = O;
leftMetricsKey = O;
rightKerningGroup = C;
unicode = 0043;
},
{
color = 5;
glyphname = D;
lastChange = "2016-11-22 13:36:40 +0000";
layers = (
{
anchors = (
{
name = bottom;
position = "{321, 0}";
},
{
name = center;
position = "{161, 350}";
},
{
name = top;
position = "{321, 700}";
}
);
background = {
paths = (
{
closed = 1;
nodes = (
"23 0 LINE",
"301 -3 LINE SMOOTH",
"514 -5 OFFCURVE",
"680 198 OFFCURVE",
"612 482 CURVE SMOOTH",
"568 666 OFFCURVE",
"414 703 OFFCURVE",
"233 705 CURVE SMOOTH",
"159 706 OFFCURVE",
"66 701 OFFCURVE",
"33 700 CURVE",
"226 622 LINE",
"295 632 OFFCURVE",
"429 582 OFFCURVE",
"462 441 CURVE SMOOTH",
"510 234 OFFCURVE",
"415 107 OFFCURVE",
"342 71 CURVE",
"226 85 LINE"
);
}
);
};
layerId = "11343128-4963-4E5D-BE9C-B74F53B36FA5";
paths = (
{
closed = 1;
nodes = (
"35 0 LINE",
"313 -3 LINE SMOOTH",
"526 -5 OFFCURVE",
"687 206 OFFCURVE",
"603 478 CURVE SMOOTH",
"550 648 OFFCURVE",
"426 685 OFFCURVE",
"245 687 CURVE SMOOTH",
"171 688 OFFCURVE",
"78 683 OFFCURVE",
"45 682 CURVE",
"238 604 LINE",
"307 614 OFFCURVE",
"430 560 OFFCURVE",
"462 419 CURVE SMOOTH",
"508 215 OFFCURVE",
"415 107 OFFCURVE",
"342 71 CURVE",
"238 85 LINE"
);
},
{
closed = 1;
nodes = (
"43 682 LINE",
"38 627 LINE",
"93 616 LINE",
"105 591 OFFCURVE",
"105 516 OFFCURVE",
"105 389 CURVE SMOOTH",
"105 179 OFFCURVE",
"90 114 OFFCURVE",
"95 98 CURVE SMOOTH",
"99 86 OFFCURVE",
"115 71 OFFCURVE",
"144 65 CURVE",
"37 55 LINE",
"35 0 LINE",
"316 1 LINE",
"321 54 LINE",
"263 64 LINE",
"225 123 OFFCURVE",
"233 289 OFFCURVE",
"233 335 CURVE SMOOTH",
"233 492 OFFCURVE",
"240 571 OFFCURVE",
"253 592 CURVE SMOOTH",
"263 612 OFFCURVE",
"286 625 OFFCURVE",
"309 627 CURVE",
"310 682 LINE"
);
}
);
width = 654;
},
{
anchors = (
{
name = bottom;
position = "{311, 0}";
},
{
name = center;
position = "{151, 350}";
},
{
name = top;
position = "{311, 700}";
}
);
background = {
components = (
{
name = O;
transform = "{1, 0, 0, 1, -63, 0}";
}
);
};
layerId = "0B1F8F77-7348-4C28-A663-EA76351238C4";
paths = (
{
closed = 1;
nodes = (
"35 0 LINE",
"303 -3 LINE SMOOTH",
"516 -5 OFFCURVE",
"652 234 OFFCURVE",
"575 480 CURVE SMOOTH",
"522 650 OFFCURVE",
"404 684 OFFCURVE",
"233 686 CURVE SMOOTH",
"169 687 OFFCURVE",
"78 683 OFFCURVE",
"45 682 CURVE",
"228 620 LINE",
"297 630 OFFCURVE",
"424 594 OFFCURVE",
"468 431 CURVE SMOOTH",
"526 215 OFFCURVE",
"405 93 OFFCURVE",
"332 57 CURVE",
"228 73 LINE"
);
},
{
closed = 1;
nodes = (
"43 682 LINE",
"38 627 LINE",
"93 616 LINE",
"105 591 OFFCURVE",
"105 516 OFFCURVE",
"105 389 CURVE SMOOTH",
"105 179 OFFCURVE",
"90 114 OFFCURVE",
"95 98 CURVE SMOOTH",
"99 86 OFFCURVE",
"115 71 OFFCURVE",
"144 65 CURVE",
"37 55 LINE",
"35 0 LINE",
"306 1 LINE",
"301 54 LINE",
"243 64 LINE",
"205 123 OFFCURVE",
"213 289 OFFCURVE",
"213 335 CURVE SMOOTH",
"213 492 OFFCURVE",
"220 571 OFFCURVE",
"233 592 CURVE SMOOTH",
"243 612 OFFCURVE",
"266 625 OFFCURVE",
"289 627 CURVE",
"300 679 LINE"
);
}
);
width = 625;
}
);
leftKerningGroup = I;
leftMetricsKey = I;
rightKerningGroup = O;
unicode = 0044;
},
{
color = 5;
glyphname = E;
lastChange = "2016-11-22 13:36:40 +0000";
layers = (
{
anchors = (
{
name = bottom;
position = "{290, 0}";
},
{
name = ogonek;
position = "{522, 10}";
},
{
name = top;
position = "{290, 703}";
},
{
name = topleft;
position = "{20, 700}";
}
);
background = {
components = (
{
name = P;
}
);
};
layerId = "11343128-4963-4E5D-BE9C-B74F53B36FA5";
paths = (
{
closed = 1;
nodes = (
"217 332 LINE",
"338 325 LINE",
"351 279 LINE",
"409 282 LINE",
"412 325 OFFCURVE",
"414 410 OFFCURVE",
"399 410 CURVE SMOOTH",
"390 410 OFFCURVE",
"175 403 OFFCURVE",
"221 404 CURVE"
);
},
{
closed = 1;
nodes = (
"307 590 OFFCURVE",
"397 589 OFFCURVE",
"447 579 CURVE",
"472 517 LINE",
"537 527 LINE",
"519 683 LINE",
"403 676 OFFCURVE",
"288 677 OFFCURVE",
"172 677 CURVE",
"187 591 LINE"
);
},
{
closed = 1;
nodes = (
"460 100 LINE",
"420 87 OFFCURVE",
"329 82 OFFCURVE",
"253 84 CURVE",
"226 156 OFFCURVE",
"233 311 OFFCURVE",
"233 353 CURVE SMOOTH",
"233 506 OFFCURVE",
"240 566 OFFCURVE",
"253 587 CURVE",
"263 607 OFFCURVE",
"286 620 OFFCURVE",
"309 622 CURVE",
"310 677 LINE",
"221 677 OFFCURVE",
"132 675 OFFCURVE",
"43 679 CURVE",
"38 619 LINE",
"93 609 LINE",
"105 584 OFFCURVE",
"105 511 OFFCURVE",
"105 407 CURVE SMOOTH",
"105 197 OFFCURVE",
"90 114 OFFCURVE",
"95 98 CURVE SMOOTH",
"99 86 OFFCURVE",
"115 71 OFFCURVE",
"144 65 CURVE",
"37 55 LINE",
"35 -2 LINE",
"201 2 OFFCURVE",
"367 1 OFFCURVE",
"533 -3 CURVE",
"550 162 LINE",
"491 170 LINE"
);
}
);
width = 580;
},
{
anchors = (
{
name = bottom;
position = "{278, 0}";
},
{
name = ogonek;
position = "{510, 10}";
},
{
name = top;
position = "{278, 703}";
},
{
name = topleft;
position = "{8, 700}";
}
);
background = {
components = (
{
name = P;
transform = "{1, 0, 0, 1, -12, 0}";
}
);
};
layerId = "0B1F8F77-7348-4C28-A663-EA76351238C4";
paths = (
{
closed = 1;
nodes = (
"198 342 LINE",
"326 335 LINE",
"339 289 LINE",
"397 292 LINE",
"400 335 OFFCURVE",
"402 410 OFFCURVE",
"387 410 CURVE SMOOTH",
"378 410 OFFCURVE",
"156 403 OFFCURVE",
"202 404 CURVE"
);
},
{
closed = 1;
nodes = (
"297 600 OFFCURVE",
"385 599 OFFCURVE",
"435 589 CURVE",
"460 527 LINE",
"525 537 LINE",
"507 683 LINE",
"391 676 OFFCURVE",
"278 677 OFFCURVE",
"162 677 CURVE",
"177 601 LINE"
);
},
{
closed = 1;
nodes = (
"448 90 LINE",
"408 77 OFFCURVE",
"309 72 OFFCURVE",
"233 74 CURVE",
"206 146 OFFCURVE",
"213 321 OFFCURVE",
"213 353 CURVE SMOOTH",
"213 506 OFFCURVE",
"220 566 OFFCURVE",
"233 587 CURVE",
"243 607 OFFCURVE",
"264 620 OFFCURVE",
"287 622 CURVE",
"298 677 LINE",
"211 677 OFFCURVE",
"132 675 OFFCURVE",
"43 679 CURVE",
"38 619 LINE",
"93 609 LINE",
"105 584 OFFCURVE",
"105 511 OFFCURVE",
"105 407 CURVE SMOOTH",
"105 197 OFFCURVE",
"90 114 OFFCURVE",
"95 98 CURVE SMOOTH",
"99 86 OFFCURVE",
"115 71 OFFCURVE",
"144 65 CURVE",
"37 55 LINE",
"35 -2 LINE",
"201 2 OFFCURVE",
"355 1 OFFCURVE",
"521 -3 CURVE",
"538 152 LINE",
"479 160 LINE"
);
}
);
width = 568;
}
);
leftKerningGroup = I;
leftMetricsKey = I;
rightKerningGroup = E;
unicode = 0045;
},
{
color = 5;
glyphname = F;
lastChange = "2016-11-22 13:36:40 +0000";
layers = (
{
anchors = (
{
name = bottom;
position = "{280, 0}";
},
{
name = top;
position = "{280, 700}";
}
);
background = {
components = (
{
name = I;
transform = "{1, 0, 0, 1, -8, 0}";
}
);
paths = (
{
closed = 1;
nodes = (
"209 327 LINE",
"330 320 LINE",
"343 274 LINE",
"401 277 LINE",
"404 320 OFFCURVE",
"406 405 OFFCURVE",
"391 405 CURVE SMOOTH",
"382 405 OFFCURVE",
"167 398 OFFCURVE",
"213 399 CURVE"
);
},
{
closed = 1;
nodes = (
"292 613 OFFCURVE",
"392 612 OFFCURVE",
"442 602 CURVE",
"476 540 LINE",
"531 550 LINE",
"504 700 LINE",
"157 700 LINE",
"172 614 LINE"
);
},
{
closed = 1;
nodes = (
"139 0 LINE",
"331 0 LINE",
"336 53 LINE",
"203 75 LINE"
);
}
);
};
layerId = "11343128-4963-4E5D-BE9C-B74F53B36FA5";
paths = (
{
closed = 1;
nodes = (
"209 327 LINE",
"330 320 LINE",
"343 274 LINE",
"401 277 LINE",
"404 320 OFFCURVE",
"406 405 OFFCURVE",
"391 405 CURVE SMOOTH",
"382 405 OFFCURVE",
"167 398 OFFCURVE",
"213 399 CURVE"
);
},
{
closed = 1;
nodes = (
"292 595 OFFCURVE",
"379 592 OFFCURVE",
"429 584 CURVE",
"452 522 LINE",
"521 532 LINE",
"505 688 LINE",
"389 681 OFFCURVE",
"273 682 OFFCURVE",
"157 680 CURVE",
"172 596 LINE"
);
},
{
closed = 1;
nodes = (
"139 0 LINE",
"331 0 LINE",
"336 53 LINE",
"203 75 LINE"
);
},
{
closed = 1;
nodes = (
"43 682 LINE",
"38 619 LINE",
"93 608 LINE",
"105 583 OFFCURVE",
"105 516 OFFCURVE",
"105 407 CURVE SMOOTH",
"105 197 OFFCURVE",
"90 114 OFFCURVE",
"95 98 CURVE SMOOTH",
"99 86 OFFCURVE",
"115 71 OFFCURVE",
"144 65 CURVE",
"37 55 LINE",
"35 0 LINE",
"316 1 LINE",
"321 54 LINE",
"263 64 LINE",
"225 123 OFFCURVE",
"233 307 OFFCURVE",
"233 353 CURVE SMOOTH",
"233 522 OFFCURVE",
"240 571 OFFCURVE",
"253 592 CURVE SMOOTH",
"263 612 OFFCURVE",
"286 625 OFFCURVE",
"309 627 CURVE",
"310 680 LINE"
);
}
);
width = 560;
},
{
anchors = (
{
name = bottom;
position = "{270, 0}";
},
{
name = top;
position = "{270, 700}";
}
);
background = {
components = (
{
name = I;
transform = "{1, 0, 0, 1, -18, 0}";
}
);
paths = (
{
closed = 1;
nodes = (
"199 327 LINE",
"320 320 LINE",
"333 274 LINE",
"391 277 LINE",
"394 320 OFFCURVE",
"396 405 OFFCURVE",
"381 405 CURVE SMOOTH",
"372 405 OFFCURVE",
"157 398 OFFCURVE",
"203 399 CURVE"
);
},
{
closed = 1;
nodes = (
"282 613 OFFCURVE",
"382 612 OFFCURVE",
"432 602 CURVE",
"466 540 LINE",
"521 550 LINE",
"494 700 LINE",
"147 700 LINE",
"162 614 LINE"
);
},
{
closed = 1;
nodes = (
"129 0 LINE",
"321 0 LINE",
"326 53 LINE",
"193 75 LINE"
);
}
);
};
layerId = "0B1F8F77-7348-4C28-A663-EA76351238C4";
paths = (
{
closed = 1;
nodes = (
"199 334 LINE",
"320 327 LINE",
"333 281 LINE",
"391 284 LINE",
"394 327 OFFCURVE",
"396 405 OFFCURVE",
"381 405 CURVE SMOOTH",
"372 405 OFFCURVE",
"167 398 OFFCURVE",
"203 399 CURVE"
);
},
{
closed = 1;
nodes = (
"292 605 OFFCURVE",
"369 602 OFFCURVE",
"419 594 CURVE",
"442 532 LINE",
"511 542 LINE",
"495 688 LINE",
"379 681 OFFCURVE",
"273 682 OFFCURVE",
"157 680 CURVE",
"172 606 LINE"
);
},
{
closed = 1;
nodes = (
"139 0 LINE",
"311 0 LINE",
"316 53 LINE",
"193 75 LINE"
);
},
{
closed = 1;
nodes = (
"43 682 LINE",
"38 619 LINE",
"93 608 LINE",
"105 583 OFFCURVE",
"105 516 OFFCURVE",
"105 407 CURVE SMOOTH",
"105 197 OFFCURVE",
"90 114 OFFCURVE",
"95 98 CURVE SMOOTH",
"99 86 OFFCURVE",
"115 71 OFFCURVE",
"144 65 CURVE",
"37 55 LINE",
"35 0 LINE",
"296 1 LINE",
"301 54 LINE",
"243 64 LINE",
"205 123 OFFCURVE",
"213 307 OFFCURVE",
"213 353 CURVE SMOOTH",
"213 522 OFFCURVE",
"220 571 OFFCURVE",
"233 592 CURVE SMOOTH",
"243 612 OFFCURVE",
"276 625 OFFCURVE",
"299 627 CURVE",
"300 680 LINE"
);
}
);
width = 550;
}
);
leftKerningGroup = I;
leftMetricsKey = I;
rightKerningGroup = F;
unicode = 0046;
},
{
color = 5;
glyphname = G;
lastChange = "2016-11-22 13:36:40 +0000";
layers = (
{
anchors = (
{
name = bottom;
position = "{338, 0}";
},
{
name = top;
position = "{352, 708}";
}
);
background = {
components = (
{
name = C;
transform = "{1, 0, 0, 1, -1, 0}";
}
);
};
layerId = "11343128-4963-4E5D-BE9C-B74F53B36FA5";
paths = (
{
closed = 1;
nodes = (
"128 698 OFFCURVE",
"-13 489 OFFCURVE",
"43 235 CURVE SMOOTH",
"79 71 OFFCURVE",
"204 -5 OFFCURVE",
"322 -14 CURVE SMOOTH",
"456 -24 OFFCURVE",
"555 12 OFFCURVE",
"609 51 CURVE",
"603 129 OFFCURVE",
"603 227 OFFCURVE",
"608 249 CURVE SMOOTH",
"615 276 OFFCURVE",
"638 282 OFFCURVE",
"646 282 CURVE",
"645 343 LINE",
"558 340 OFFCURVE",
"513 341 OFFCURVE",
"430 344 CURVE",
"427 285 LINE",
"482 269 LINE",
"485 213 OFFCURVE",
"491 117 OFFCURVE",
"456 76 CURVE",
"338 57 OFFCURVE",
"227 115 OFFCURVE",
"192 272 CURVE SMOOTH",
"148 470 OFFCURVE",
"253 586 OFFCURVE",
"316 613 CURVE",
"397 607 OFFCURVE",
"485 555 OFFCURVE",
"515 518 CURVE",
"524 463 LINE",
"586 474 LINE",
"604 633 LINE",
"568 666 OFFCURVE",
"497 698 OFFCURVE",
"371 698 CURVE SMOOTH"
);
}
);
width = 675;
},
{
anchors = (
{
name = bottom;
position = "{337, 0}";
},
{
name = top;
position = "{351, 708}";
}
);
background = {
components = (
{
name = C;
transform = "{1, 0, 0, 1, -2, 0}";
}
);
};
layerId = "0B1F8F77-7348-4C28-A663-EA76351238C4";
paths = (
{
closed = 1;
nodes = (
"142 698 OFFCURVE",
"-4 489 OFFCURVE",
"52 235 CURVE SMOOTH",
"88 71 OFFCURVE",
"203 -5 OFFCURVE",
"321 -14 CURVE SMOOTH",
"455 -24 OFFCURVE",
"548 12 OFFCURVE",
"602 51 CURVE",
"596 129 OFFCURVE",
"597 227 OFFCURVE",
"601 249 CURVE SMOOTH",
"608 276 OFFCURVE",
"631 282 OFFCURVE",
"639 282 CURVE",
"638 343 LINE",
"551 340 OFFCURVE",
"526 341 OFFCURVE",
"443 344 CURVE",
"440 285 LINE",
"495 269 LINE",
"498 213 OFFCURVE",
"504 117 OFFCURVE",
"469 76 CURVE",
"351 57 OFFCURVE",
"216 115 OFFCURVE",
"181 272 CURVE SMOOTH",
"137 470 OFFCURVE",
"253 597 OFFCURVE",
"316 624 CURVE",
"395 624 OFFCURVE",
"484 581 OFFCURVE",
"514 544 CURVE",
"523 489 LINE",
"583 500 LINE",
"601 633 LINE",
"565 666 OFFCURVE",
"496 698 OFFCURVE",
"370 698 CURVE SMOOTH"
);
}
);
width = 668;
}
);
leftKerningGroup = O;
leftMetricsKey = O;
rightKerningGroup = I;
unicode = 0047;
},
{
color = 5;
glyphname = H;
lastChange = "2016-11-22 13:36:40 +0000";
layers = (
{
anchors = (
{
name = bottom;
position = "{361, 0}";
},
{
name = center;
position = "{361, 350}";
},
{
name = top;
position = "{361, 700}";
},
{
name = topleft;
position = "{20, 700}";
}
);
layerId = "11343128-4963-4E5D-BE9C-B74F53B36FA5";
paths = (
{
closed = 1;
nodes = (
"212 304 LINE",
"518 307 LINE",
"509 390 LINE",
"216 390 LINE"
);
},
{
closed = 1;
nodes = (
"43 680 LINE",
"38 625 LINE",
"93 614 LINE",
"105 589 OFFCURVE",
"105 514 OFFCURVE",
"105 407 CURVE SMOOTH",
"105 197 OFFCURVE",
"90 114 OFFCURVE",
"95 98 CURVE SMOOTH",
"99 86 OFFCURVE",
"115 71 OFFCURVE",
"144 65 CURVE",
"37 55 LINE",
"35 0 LINE",
"315 1 LINE",
"320 54 LINE",
"262 64 LINE",
"224 123 OFFCURVE",
"232 307 OFFCURVE",
"232 353 CURVE SMOOTH",
"232 490 OFFCURVE",
"239 569 OFFCURVE",
"252 590 CURVE SMOOTH",
"262 610 OFFCURVE",
"285 623 OFFCURVE",
"308 625 CURVE",
"309 680 LINE"
);
},
{
closed = 1;
nodes = (
"415 680 LINE",
"410 625 LINE",
"465 614 LINE",
"477 589 OFFCURVE",
"477 514 OFFCURVE",
"477 407 CURVE SMOOTH",
"477 197 OFFCURVE",
"462 114 OFFCURVE",
"467 98 CURVE SMOOTH",
"471 86 OFFCURVE",
"487 71 OFFCURVE",
"516 65 CURVE",
"409 55 LINE",
"407 0 LINE",
"687 1 LINE",
"692 54 LINE",
"634 64 LINE",
"596 123 OFFCURVE",
"604 307 OFFCURVE",
"604 353 CURVE SMOOTH",
"604 490 OFFCURVE",
"611 569 OFFCURVE",
"624 590 CURVE SMOOTH",
"634 610 OFFCURVE",
"657 623 OFFCURVE",
"680 625 CURVE",
"681 680 LINE"
);
}
);
width = 722;
},
{
anchors = (
{
name = bottom;
position = "{351, 0}";
},
{
name = center;
position = "{351, 350}";
},
{
name = top;
position = "{351, 700}";
},
{
name = topleft;
position = "{10, 700}";
}
);
layerId = "0B1F8F77-7348-4C28-A663-EA76351238C4";
paths = (
{
closed = 1;
nodes = (
"192 304 LINE",
"518 307 LINE",
"509 390 LINE",
"196 390 LINE"
);
},
{
closed = 1;
nodes = (
"43 680 LINE",
"38 625 LINE",
"93 614 LINE",
"105 589 OFFCURVE",
"105 514 OFFCURVE",
"105 407 CURVE SMOOTH",
"105 197 OFFCURVE",
"90 114 OFFCURVE",
"95 98 CURVE SMOOTH",
"99 86 OFFCURVE",
"115 71 OFFCURVE",
"144 65 CURVE",
"37 55 LINE",
"35 0 LINE",
"295 1 LINE",
"300 54 LINE",
"242 64 LINE",
"204 123 OFFCURVE",
"212 307 OFFCURVE",
"212 353 CURVE SMOOTH",
"212 490 OFFCURVE",
"219 569 OFFCURVE",
"232 590 CURVE SMOOTH",
"244 609 OFFCURVE",
"265 623 OFFCURVE",
"288 625 CURVE",
"289 680 LINE"
);
},
{
closed = 1;
nodes = (
"415 680 LINE",
"410 625 LINE",
"465 614 LINE",
"477 589 OFFCURVE",
"477 514 OFFCURVE",
"477 407 CURVE SMOOTH",
"477 197 OFFCURVE",
"462 114 OFFCURVE",
"467 98 CURVE SMOOTH",
"471 86 OFFCURVE",
"487 71 OFFCURVE",
"516 65 CURVE",
"409 55 LINE",
"407 0 LINE",
"667 1 LINE",
"672 54 LINE",
"614 64 LINE",
"576 123 OFFCURVE",
"584 307 OFFCURVE",
"584 353 CURVE SMOOTH",
"584 490 OFFCURVE",
"591 569 OFFCURVE",
"604 590 CURVE SMOOTH",
"616 609 OFFCURVE",
"637 623 OFFCURVE",
"660 625 CURVE",
"661 680 LINE"
);
}
);
width = 702;
}
);
leftKerningGroup = I;
leftMetricsKey = I;
rightKerningGroup = I;
rightMetricsKey = I;
unicode = 0048;
},
{
color = 5;
glyphname = I;
lastChange = "2016-11-22 13:55:09 +0000";
layers = (
{
anchors = (
{
name = bottom;
position = "{176, 0}";
},
{
name = ogonek;
position = "{316, 10}";
},
{
name = top;
position = "{176, 702}";
},
{
name = topleft;
position = "{20, 700}";
}
);
guideLines = (
{
angle = 90;
position = "{-6, 101}";
}
);
layerId = "11343128-4963-4E5D-BE9C-B74F53B36FA5";
paths = (
{
closed = 1;
nodes = (
"26 680 LINE",
"21 613 LINE",
"76 602 LINE",
"88 577 OFFCURVE",
"88 524 OFFCURVE",
"88 407 CURVE SMOOTH",
"88 197 OFFCURVE",
"73 124 OFFCURVE",
"78 108 CURVE SMOOTH",
"82 96 OFFCURVE",
"98 81 OFFCURVE",
"127 75 CURVE",
"20 65 LINE",
"18 0 LINE",
"311 1 LINE",
"316 64 LINE",
"258 74 LINE",
"220 133 OFFCURVE",
"228 307 OFFCURVE",
"228 353 CURVE SMOOTH",
"228 500 OFFCURVE",
"231 559 OFFCURVE",
"244 580 CURVE SMOOTH",
"256 599 OFFCURVE",
"278 613 OFFCURVE",
"301 615 CURVE",
"302 680 LINE"
);
}
);
width = 351;
},
{
anchors = (
{
name = bottom;
position = "{166, 0}";
},
{
name = ogonek;
position = "{306, 10}";
},
{
name = top;
position = "{166, 702}";
},
{
name = topleft;
position = "{10, 700}";
}
);
guideLines = (
{
angle = 90;
position = "{-16, 101}";
}
);
layerId = "0B1F8F77-7348-4C28-A663-EA76351238C4";
paths = (
{
closed = 1;
nodes = (
"43 680 LINE",
"38 623 LINE",
"93 612 LINE",
"105 587 OFFCURVE",
"105 534 OFFCURVE",
"105 407 CURVE SMOOTH",
"105 197 OFFCURVE",
"90 114 OFFCURVE",
"95 98 CURVE SMOOTH",
"99 86 OFFCURVE",
"115 71 OFFCURVE",
"144 65 CURVE",
"37 55 LINE",
"35 0 LINE",
"296 1 LINE",
"301 54 LINE",
"243 64 LINE",
"205 123 OFFCURVE",
"213 307 OFFCURVE",
"213 353 CURVE SMOOTH",
"213 510 OFFCURVE",
"216 569 OFFCURVE",
"229 590 CURVE SMOOTH",
"241 609 OFFCURVE",
"263 623 OFFCURVE",
"286 625 CURVE",
"287 680 LINE"
);
}
);
width = 331;
}
);
leftKerningGroup = I;
rightKerningGroup = I;
unicode = 0049;
},
{
color = 5;
glyphname = J;
lastChange = "2016-11-22 13:55:02 +0000";
layers = (
{
anchors = (
{
name = bottom;
position = "{157, 0}";
},
{
name = top;
position = "{157, 707}";
}
);
background = {
components = (
{
name = I;
transform = "{1, 0, 0, 1, -5, 0}";
}
);
};
guideLines = (
{
position = "{-181, -204}";
}
);
layerId = "11343128-4963-4E5D-BE9C-B74F53B36FA5";
paths = (
{
closed = 1;
nodes = (
"32 681 LINE",
"27 613 LINE",
"81 603 LINE",
"94 578 OFFCURVE",
"90 269 OFFCURVE",
"90 209 CURVE",
"90 -39 OFFCURVE",
"65 -115 OFFCURVE",
"25 -163 CURVE",
"62 -206 LINE",
"177 -145 OFFCURVE",
"234 -31 OFFCURVE",
"234 275 CURVE SMOOTH",
"234 441 OFFCURVE",
"232 555 OFFCURVE",
"242 578 CURVE SMOOTH",
"251 598 OFFCURVE",
"267 613 OFFCURVE",
"298 613 CURVE",
"299 680 LINE"
);
}
);
width = 334;
},
{
anchors = (
{
name = bottom;
position = "{147, 0}";
},
{
name = top;
position = "{147, 707}";
}
);
background = {
components = (
{
name = I;
transform = "{1, 0, 0, 1, -15, 0}";
}
);
};
guideLines = (
{
position = "{-191, -204}";
}
);
layerId = "0B1F8F77-7348-4C28-A663-EA76351238C4";
paths = (
{
closed = 1;
nodes = (
"32 681 LINE",
"27 626 LINE",
"81 616 LINE",
"94 591 OFFCURVE",
"90 269 OFFCURVE",
"90 209 CURVE",
"90 -39 OFFCURVE",
"65 -115 OFFCURVE",
"25 -163 CURVE",
"56 -201 LINE",
"155 -140 OFFCURVE",
"198 -31 OFFCURVE",
"198 275 CURVE SMOOTH",
"198 441 OFFCURVE",
"193 568 OFFCURVE",
"203 591 CURVE SMOOTH",
"212 611 OFFCURVE",
"229 626 OFFCURVE",
"260 626 CURVE",
"261 680 LINE"
);
}
);
width = 293;
}
);
leftKerningGroup = I;
rightKerningGroup = I;
rightMetricsKey = I;
unicode = 004A;
},
{
color = 5;
glyphname = K;
lastChange = "2016-11-22 13:38:56 +0000";
layers = (
{
anchors = (
{
name = bottom;
position = "{344, 0}";
},
{
name = top;
position = "{344, 700}";
}
);
background = {
components = (
{
name = V;
transform = "{-1, 0, 0, -1, 725, 700}";
}
);
};
guideLines = (
{
position = "{-266, 248}";
}
);
layerId = "11343128-4963-4E5D-BE9C-B74F53B36FA5";
paths = (
{
closed = 1;
nodes = (
"418 548 OFFCURVE",
"255 336 OFFCURVE",
"182 248 CURVE",
"226 187 LINE",
"356 349 LINE",
"429 442 OFFCURVE",
"532 557 OFFCURVE",
"558 586 CURVE SMOOTH",
"580 610 OFFCURVE",
"611 615 OFFCURVE",
"638 615 CURVE",
"641 680 LINE",
"404 680 LINE",
"397 615 LINE",
"448 606 LINE"
);
},
{
closed = 1;
nodes = (
"33 680 LINE",
"28 615 LINE",
"83 604 LINE",
"95 579 OFFCURVE",
"95 512 OFFCURVE",
"95 395 CURVE SMOOTH",
"95 185 OFFCURVE",
"80 124 OFFCURVE",
"85 108 CURVE SMOOTH",
"89 96 OFFCURVE",
"105 81 OFFCURVE",
"144 75 CURVE",
"27 65 LINE",
"25 0 LINE",
"326 1 LINE",
"331 64 LINE",
"273 74 LINE",
"235 133 OFFCURVE",
"243 297 OFFCURVE",
"243 343 CURVE SMOOTH",
"243 500 OFFCURVE",
"250 559 OFFCURVE",
"263 580 CURVE SMOOTH",
"275 599 OFFCURVE",
"296 613 OFFCURVE",
"319 615 CURVE",
"320 680 LINE"
);
},
{
closed = 1;
nodes = (
"290 329 LINE",
"352 228 OFFCURVE",
"434 69 OFFCURVE",
"483 0 CURVE",
"677 0 LINE",
"682 66 LINE",
"641 68 OFFCURVE",
"624 84 OFFCURVE",
"582 133 CURVE SMOOTH",
"523 201 OFFCURVE",
"415 378 OFFCURVE",
"383 435 CURVE"
);
}
);
width = 687;
},
{
anchors = (
{
name = bottom;
position = "{334, 0}";
},
{
name = top;
position = "{334, 700}";
}
);
background = {
components = (
{
name = V;
transform = "{-1, 0, 0, -1, 715, 700}";
}
);
};
guideLines = (
{
position = "{-276, 248}";
}
);
layerId = "0B1F8F77-7348-4C28-A663-EA76351238C4";
paths = (
{
closed = 1;
nodes = (
"419 558 OFFCURVE",
"245 336 OFFCURVE",
"172 248 CURVE",
"206 187 LINE",
"336 349 LINE",
"409 442 OFFCURVE",
"512 557 OFFCURVE",
"538 586 CURVE SMOOTH",
"560 610 OFFCURVE",
"592 625 OFFCURVE",
"619 625 CURVE",
"621 680 LINE",
"404 680 LINE",
"398 625 LINE",
"449 616 LINE"
);
},
{
closed = 1;
nodes = (
"43 680 LINE",
"38 625 LINE",
"93 614 LINE",
"105 589 OFFCURVE",
"105 522 OFFCURVE",
"105 395 CURVE SMOOTH",
"105 185 OFFCURVE",
"90 114 OFFCURVE",
"95 98 CURVE SMOOTH",
"99 86 OFFCURVE",
"115 71 OFFCURVE",
"144 65 CURVE",
"37 55 LINE",
"35 0 LINE",
"296 1 LINE",
"301 54 LINE",
"243 64 LINE",
"205 123 OFFCURVE",
"213 297 OFFCURVE",
"213 343 CURVE SMOOTH",
"213 500 OFFCURVE",
"217 569 OFFCURVE",
"230 590 CURVE SMOOTH",
"242 609 OFFCURVE",
"263 623 OFFCURVE",
"286 625 CURVE",
"287 680 LINE"
);
},
{
closed = 1;
nodes = (
"297 329 LINE",
"359 228 OFFCURVE",
"439 69 OFFCURVE",
"488 0 CURVE",
"657 0 LINE",
"662 55 LINE",
"621 57 OFFCURVE",
"604 73 OFFCURVE",
"562 122 CURVE SMOOTH",
"503 190 OFFCURVE",
"395 368 OFFCURVE",
"363 425 CURVE"
);
}
);
width = 667;
}
);
leftKerningGroup = I;
leftMetricsKey = I;
rightKerningGroup = X;
unicode = 004B;
},
{
color = 5;
glyphname = L;
lastChange = "2016-11-22 13:39:15 +0000";
layers = (
{
anchors = (
{
name = bottom;
position = "{282, 0}";
},
{
name = center;
position = "{168, 350}";
},
{
name = top;
position = "{175, 700}";
},
{
name = topright;
position = "{543, 700}";
}
);
layerId = "11343128-4963-4E5D-BE9C-B74F53B36FA5";
paths = (
{
closed = 1;
nodes = (
"149 0 LINE",
"544 0 LINE",
"548 99 OFFCURVE",
"555 169 OFFCURVE",
"556 175 CURVE",
"488 184 LINE",
"456 107 LINE",
"415 92 OFFCURVE",
"309 88 OFFCURVE",
"272 94 CURVE",
"165 54 LINE"
);
},
{
closed = 1;
nodes = (
"33 680 LINE",
"28 625 LINE",
"83 614 LINE",
"95 589 OFFCURVE",
"95 534 OFFCURVE",
"95 407 CURVE SMOOTH",
"95 197 OFFCURVE",
"80 114 OFFCURVE",
"85 98 CURVE SMOOTH",
"89 86 OFFCURVE",
"105 71 OFFCURVE",
"134 65 CURVE",
"27 55 LINE",
"25 0 LINE",
"326 1 LINE",
"331 54 LINE",
"273 74 LINE",
"235 133 OFFCURVE",
"243 307 OFFCURVE",
"243 353 CURVE SMOOTH",
"243 510 OFFCURVE",
"250 569 OFFCURVE",
"263 590 CURVE SMOOTH",
"275 609 OFFCURVE",
"296 623 OFFCURVE",
"319 625 CURVE",
"320 680 LINE"
);
}
);
width = 563;
},
{
anchors = (
{
name = bottom;
position = "{272, 0}";
},
{
name = center;
position = "{158, 350}";
},
{
name = top;
position = "{165, 700}";
},
{
name = topright;
position = "{533, 700}";
}
);
layerId = "0B1F8F77-7348-4C28-A663-EA76351238C4";
paths = (
{
closed = 1;
nodes = (
"159 0 LINE",
"534 0 LINE",
"538 79 OFFCURVE",
"545 149 OFFCURVE",
"546 155 CURVE",
"483 164 LINE",
"451 87 LINE",
"410 72 OFFCURVE",
"279 68 OFFCURVE",
"242 74 CURVE",
"165 54 LINE"
);
},
{
closed = 1;
nodes = (
"43 680 LINE",
"38 625 LINE",
"93 614 LINE",
"105 589 OFFCURVE",
"105 534 OFFCURVE",
"105 407 CURVE SMOOTH",
"105 197 OFFCURVE",
"90 114 OFFCURVE",
"95 98 CURVE SMOOTH",
"99 86 OFFCURVE",
"115 71 OFFCURVE",
"144 65 CURVE",
"37 55 LINE",
"35 0 LINE",
"296 1 LINE",
"301 54 LINE",
"243 64 LINE",
"205 113 OFFCURVE",
"213 307 OFFCURVE",
"213 353 CURVE SMOOTH",
"213 510 OFFCURVE",
"220 569 OFFCURVE",
"233 590 CURVE SMOOTH",
"245 609 OFFCURVE",
"266 623 OFFCURVE",
"289 625 CURVE",
"290 680 LINE"
);
}
);
width = 553;
}
);
leftKerningGroup = I;
leftMetricsKey = I;
rightKerningGroup = L;
unicode = 004C;
},
{
color = 5;
glyphname = M;
lastChange = "2016-11-22 13:36:40 +0000";
layers = (
{
anchors = (
{
name = bottom;
position = "{458, 0}";
},
{
name = top;
position = "{458, 700}";
}
);
background = {
components = (
{
name = V;
},
{
name = I;
transform = "{1, 0, 0, 1, 702, 0}";
}
);
};
guideLines = (
{
position = "{679, 454}";
}
);
layerId = "11343128-4963-4E5D-BE9C-B74F53B36FA5";
paths = (
{
closed = 1;
nodes = (
"224 468 LINE",
"276 317 OFFCURVE",
"388 6 OFFCURVE",
"391 0 CURVE",
"466 161 LINE",
"459 180 OFFCURVE",
"347 500 OFFCURVE",
"290 680 CURVE",
"285 675 LINE",
"288 680 LINE",
"152 615 LINE"
);
},
{
closed = 1;
nodes = (
"535 143 OFFCURVE",
"614 361 OFFCURVE",
"645 455 CURVE",
"667 190 OFFCURVE",
"682 119 OFFCURVE",
"683 104 CURVE SMOOTH",
"684 88 OFFCURVE",
"701 75 OFFCURVE",
"730 65 CURVE",
"624 55 LINE",
"622 0 LINE",
"889 0 LINE",
"893 55 LINE",
"837 65 LINE",
"806 150 OFFCURVE",
"780 433 OFFCURVE",
"767 564 CURVE SMOOTH",
"763 608 OFFCURVE",
"794 625 OFFCURVE",
"821 625 CURVE",
"824 680 LINE",
"625 680 LINE",
"557 434 OFFCURVE",
"495 280 OFFCURVE",
"452 146 CURVE",
"434 87 OFFCURVE",
"412 59 OFFCURVE",
"391 0 CURVE",
"490 0 LINE"
);
},
{
closed = 1;
nodes = (
"191 98 OFFCURVE",
"225 362 OFFCURVE",
"233 521 CURVE",
"244 576 OFFCURVE",
"267 660 OFFCURVE",
"290 680 CURVE",
"100 680 LINE",
"93 626 LINE",
"150 615 LINE",
"132 360 OFFCURVE",
"112 173 OFFCURVE",
"103 130 CURVE SMOOTH",
"90 70 OFFCURVE",
"51 56 OFFCURVE",
"25 56 CURVE",
"21 0 LINE",
"262 0 LINE",
"266 55 LINE",
"206 64 LINE"
);
}
);
width = 916;
},
{
anchors = (
{
name = bottom;
position = "{460, 0}";
},
{
name = top;
position = "{460, 700}";
}
);
background = {
components = (
{
name = V;
transform = "{1, 0, 0, 1, 2, 0}";
},
{
name = I;
transform = "{1, 0, 0, 1, 704, 0}";
}
);
};
guideLines = (
{
position = "{681, 454}";
}
);
layerId = "0B1F8F77-7348-4C28-A663-EA76351238C4";
paths = (
{
closed = 1;
nodes = (
"236 468 LINE",
"288 317 OFFCURVE",
"400 6 OFFCURVE",
"403 0 CURVE",
"468 144 LINE",
"461 163 OFFCURVE",
"339 500 OFFCURVE",
"282 680 CURVE",
"277 675 LINE",
"280 680 LINE",
"164 615 LINE"
);
},
{
closed = 1;
nodes = (
"530 152 OFFCURVE",
"624 410 OFFCURVE",
"650 492 CURVE",
"657 409 OFFCURVE",
"697 75 OFFCURVE",
"695 104 CURVE SMOOTH",
"694 120 OFFCURVE",
"713 75 OFFCURVE",
"742 65 CURVE",
"636 55 LINE",
"634 0 LINE",
"881 0 LINE",
"885 55 LINE",
"829 65 LINE",
"798 150 OFFCURVE",
"771 433 OFFCURVE",
"759 564 CURVE SMOOTH",
"755 608 OFFCURVE",
"786 625 OFFCURVE",
"813 625 CURVE",
"816 680 LINE",
"627 680 LINE",
"559 434 OFFCURVE",
"497 280 OFFCURVE",
"454 146 CURVE",
"436 87 OFFCURVE",
"424 59 OFFCURVE",
"403 0 CURVE",
"482 0 LINE"
);
},
{
closed = 1;
nodes = (
"183 98 OFFCURVE",
"217 362 OFFCURVE",
"225 521 CURVE",
"236 576 OFFCURVE",
"259 660 OFFCURVE",
"282 680 CURVE",
"102 680 LINE",
"95 626 LINE",
"152 615 LINE",
"134 360 OFFCURVE",
"114 173 OFFCURVE",
"105 130 CURVE SMOOTH",
"92 70 OFFCURVE",
"53 56 OFFCURVE",
"27 56 CURVE",
"23 0 LINE",
"254 0 LINE",
"258 55 LINE",
"198 64 LINE"
);
}
);
width = 908;
}
);
leftKerningGroup = A;
rightKerningGroup = A;
unicode = 004D;
},
{
color = 5;
glyphname = N;
lastChange = "2016-11-22 13:36:40 +0000";
layers = (
{
anchors = (
{
name = bottom;
position = "{361, 0}";
},
{
name = top;
position = "{361, 702}";
}
);
background = {
components = (
{
name = I;
transform = "{-1, 0, 0, -1, 337, 700}";
}
);
paths = (
{
closed = 1;
nodes = (
"515 603 OFFCURVE",
"515 514 OFFCURVE",
"515 464 CURVE SMOOTH",
"515 317 OFFCURVE",
"519 159 OFFCURVE",
"505 0 CURVE",
"686 0 LINE",
"691 55 LINE",
"639 65 LINE",
"592 143 OFFCURVE",
"615 528 OFFCURVE",
"622 571 CURVE SMOOTH",
"632 630 OFFCURVE",
"670 642 OFFCURVE",
"696 642 CURVE",
"697 700 LINE",
"443 700 LINE",
"438 642 LINE",
"499 633 LINE"
);
}
);
};
layerId = "11343128-4963-4E5D-BE9C-B74F53B36FA5";
paths = (
{
closed = 1;
nodes = (
"136 544 LINE",
"151 530 OFFCURVE",
"166 480 OFFCURVE",
"192 457 CURVE SMOOTH",
"228 426 OFFCURVE",
"266 364 OFFCURVE",
"288 331 CURVE SMOOTH",
"387 182 OFFCURVE",
"519 4 OFFCURVE",
"522 0 CURVE",
"609 115 LINE",
"590 139 OFFCURVE",
"569 188 OFFCURVE",
"531 220 CURVE SMOOTH",
"497 249 OFFCURVE",
"463 300 OFFCURVE",
"442 331 CURVE SMOOTH",
"354 460 OFFCURVE",
"284 562 OFFCURVE",
"222 680 CURVE",
"218 675 LINE",
"220 680 LINE",
"123 572 LINE"
);
},
{
closed = 1;
nodes = (
"218 91 OFFCURVE",
"212 160 OFFCURVE",
"212 236 CURVE SMOOTH",
"212 363 OFFCURVE",
"208 521 OFFCURVE",
"222 680 CURVE",
"41 680 LINE",
"36 623 LINE",
"94 613 LINE",
"115 587 OFFCURVE",
"116 479 OFFCURVE",
"116 317 CURVE SMOOTH",
"116 218 OFFCURVE",
"111 172 OFFCURVE",
"105 129 CURVE SMOOTH",
"97 70 OFFCURVE",
"58 55 OFFCURVE",
"32 55 CURVE",
"30 0 LINE",
"284 0 LINE",
"289 55 LINE",
"230 66 LINE"
);
},
{
closed = 1;
nodes = (
"511 590 OFFCURVE",
"515 474 OFFCURVE",
"515 424 CURVE SMOOTH",
"512 73 OFFCURVE",
"516 108 OFFCURVE",
"522 0 CURVE",
"615 0 LINE",
"611 286 OFFCURVE",
"613 484 OFFCURVE",
"622 546 CURVE SMOOTH",
"630 599 OFFCURVE",
"661 625 OFFCURVE",
"699 625 CURVE",
"701 680 LINE",
"440 680 LINE",
"434 625 LINE",
"497 616 LINE"
);
}
);
width = 721;
},
{
anchors = (
{
name = bottom;
position = "{361, 0}";
},
{
name = top;
position = "{361, 702}";
}
);
background = {
components = (
{
name = I;
transform = "{-1, 0, 0, -1, 337, 700}";
}
);
paths = (
{
closed = 1;
nodes = (
"515 603 OFFCURVE",
"515 514 OFFCURVE",
"515 464 CURVE SMOOTH",
"515 317 OFFCURVE",
"519 159 OFFCURVE",
"505 0 CURVE",
"686 0 LINE",
"691 55 LINE",
"639 65 LINE",
"592 143 OFFCURVE",
"615 528 OFFCURVE",
"622 571 CURVE SMOOTH",
"632 630 OFFCURVE",
"670 642 OFFCURVE",
"696 642 CURVE",
"697 700 LINE",
"443 700 LINE",
"438 642 LINE",
"499 633 LINE"
);
}
);
};
layerId = "0B1F8F77-7348-4C28-A663-EA76351238C4";
paths = (
{
closed = 1;
nodes = (
"142 544 LINE",
"157 530 OFFCURVE",
"168 493 OFFCURVE",
"192 467 CURVE SMOOTH",
"220 436 OFFCURVE",
"266 374 OFFCURVE",
"288 341 CURVE SMOOTH",
"387 192 OFFCURVE",
"524 4 OFFCURVE",
"527 0 CURVE",
"601 115 LINE",
"582 139 OFFCURVE",
"569 178 OFFCURVE",
"531 210 CURVE SMOOTH",
"497 239 OFFCURVE",
"463 290 OFFCURVE",
"442 321 CURVE SMOOTH",
"354 450 OFFCURVE",
"276 562 OFFCURVE",
"214 680 CURVE",
"210 675 LINE",
"212 680 LINE",
"129 572 LINE"
);
},
{
closed = 1;
nodes = (
"210 91 OFFCURVE",
"204 160 OFFCURVE",
"204 236 CURVE SMOOTH",
"204 363 OFFCURVE",
"200 521 OFFCURVE",
"214 680 CURVE",
"47 680 LINE",
"42 623 LINE",
"100 613 LINE",
"121 587 OFFCURVE",
"122 479 OFFCURVE",
"122 317 CURVE SMOOTH",
"122 218 OFFCURVE",
"117 172 OFFCURVE",
"111 129 CURVE SMOOTH",
"103 70 OFFCURVE",
"64 55 OFFCURVE",
"38 55 CURVE",
"36 0 LINE",
"276 0 LINE",
"281 55 LINE",
"222 66 LINE"
);
},
{
closed = 1;
nodes = (
"521 590 OFFCURVE",
"520 474 OFFCURVE",
"520 424 CURVE SMOOTH",
"520 73 OFFCURVE",
"521 108 OFFCURVE",
"527 0 CURVE",
"607 0 LINE",
"603 286 OFFCURVE",
"605 484 OFFCURVE",
"614 546 CURVE SMOOTH",
"622 599 OFFCURVE",
"653 625 OFFCURVE",
"691 625 CURVE",
"693 680 LINE",
"450 680 LINE",
"444 625 LINE",
"507 616 LINE"
);
}
);
width = 721;
}
);
leftKerningGroup = I;
rightKerningGroup = I;
unicode = 004E;
},
{
glyphname = Eng;
lastChange = "2016-11-22 13:36:40 +0000";
layers = (
{
anchors = (
{
name = bottom;
position = "{361, 0}";
},
{
name = top;
position = "{361, 700}";
}
);
components = (
{
name = N;
}
);
layerId = "11343128-4963-4E5D-BE9C-B74F53B36FA5";
paths = (
{
closed = 1;
nodes = (
"499 32 LINE",
"564 -50 OFFCURVE",
"534 -116 OFFCURVE",
"495 -148 CURVE",
"455 -175 OFFCURVE",
"395 -176 OFFCURVE",
"339 -138 CURVE",
"325 -185 LINE",
"359 -224 OFFCURVE",
"464 -283 OFFCURVE",
"544 -233 CURVE SMOOTH",
"633 -177 OFFCURVE",
"614 -64 OFFCURVE",
"615 15 CURVE"
);
}
);
width = 721;
},
{
anchors = (
{
name = bottom;
position = "{361, 0}";
},
{
name = top;
position = "{361, 700}";
}
);
components = (
{
name = N;
}
);
layerId = "0B1F8F77-7348-4C28-A663-EA76351238C4";
paths = (
{
closed = 1;
nodes = (
"499 32 LINE",
"564 -50 OFFCURVE",
"534 -116 OFFCURVE",
"495 -148 CURVE",
"455 -175 OFFCURVE",
"395 -176 OFFCURVE",
"339 -138 CURVE",
"325 -185 LINE",
"359 -224 OFFCURVE",
"464 -283 OFFCURVE",
"544 -233 CURVE SMOOTH",
"633 -177 OFFCURVE",
"614 -64 OFFCURVE",
"615 15 CURVE"
);
}
);
width = 721;
}
);
leftKerningGroup = I;
leftMetricsKey = N;
rightKerningGroup = I;
rightMetricsKey = N;
unicode = 014A;
},
{
color = 5;
glyphname = O;
lastChange = "2016-11-22 13:36:40 +0000";
layers = (
{
anchors = (
{
name = bottom;
position = "{364, 0}";
},
{
name = center;
position = "{364, 350}";
},
{
name = ogonek;
position = "{654, 10}";
},
{
name = top;
position = "{364, 709}";
},
{
name = topleft;
position = "{20, 700}";
},
{
name = topright;
position = "{707, 700}";
}
);
background = {
components = (
{
name = V;
}
);
};
guideLines = (
{
angle = 90;
position = "{347, 177}";
}
);
layerId = "11343128-4963-4E5D-BE9C-B74F53B36FA5";
paths = (
{
closed = 1;
nodes = (
"546 663 OFFCURVE",
"449 708 OFFCURVE",
"306 689 CURVE",
"-1 627 OFFCURVE",
"-34 244 OFFCURVE",
"123 81 CURVE SMOOTH",
"206 -8 OFFCURVE",
"324 -29 OFFCURVE",
"448 -1 CURVE",
"717 77 OFFCURVE",
"766 418 OFFCURVE",
"605 596 CURVE SMOOTH"
);
},
{
closed = 1;
nodes = (
"352 64 OFFCURVE",
"273 99 OFFCURVE",
"229 176 CURVE SMOOTH",
"137 334 OFFCURVE",
"170 531 OFFCURVE",
"316 612 CURVE",
"379 612 OFFCURVE",
"453 588 OFFCURVE",
"502 499 CURVE SMOOTH",
"587 350 OFFCURVE",
"558 152 OFFCURVE",
"416 65 CURVE"
);
}
);
width = 727;
},
{
anchors = (
{
name = bottom;
position = "{359, 0}";
},
{
name = center;
position = "{359, 350}";
},
{
name = ogonek;
position = "{649, 10}";
},
{
name = top;
position = "{359, 709}";
},
{
name = topleft;
position = "{15, 700}";
},
{
name = topright;
position = "{702, 700}";
}
);
background = {
components = (
{
name = V;
transform = "{1, 0, 0, 1, -5, 0}";
}
);
};
guideLines = (
{
angle = 90;
position = "{342, 177}";
}
);
layerId = "0B1F8F77-7348-4C28-A663-EA76351238C4";
paths = (
{
closed = 1;
nodes = (
"530 669 OFFCURVE",
"444 708 OFFCURVE",
"301 689 CURVE",
"-6 627 OFFCURVE",
"-11 220 OFFCURVE",
"128 76 CURVE SMOOTH",
"213 -12 OFFCURVE",
"319 -29 OFFCURVE",
"443 -1 CURVE",
"712 77 OFFCURVE",
"735 443 OFFCURVE",
"590 603 CURVE SMOOTH"
);
},
{
closed = 1;
nodes = (
"335 57 OFFCURVE",
"259 97 OFFCURVE",
"216 158 CURVE SMOOTH",
"119 293 OFFCURVE",
"128 528 OFFCURVE",
"301 624 CURVE",
"389 624 OFFCURVE",
"465 581 OFFCURVE",
"507 518 CURVE SMOOTH",
"603 373 OFFCURVE",
"575 152 OFFCURVE",
"421 58 CURVE"
);
}
);
width = 719;
}
);
leftKerningGroup = O;
rightKerningGroup = O;
unicode = 004F;
},
{
glyphname = OE;
lastChange = "2016-11-22 13:36:40 +0000";
layers = (
{
anchors = (
{
name = bottom;
position = "{777, 0}";
},
{
name = center;
position = "{777, 350}";
},
{
name = ogonek;
position = "{1067, 10}";
},
{
name = top;
position = "{777, 703}";
},
{
name = topleft;
position = "{433, 700}";
},
{
name = topright;
position = "{1120, 700}";
}
);
background = {
components = (
{
name = E;
transform = "{1, 0, 0, 1, 417, 0}";
},
{
alignment = -1;
name = O;
}
);
};
components = (
{
name = E;
transform = "{1, 0, 0, 1, 416, 0}";
}
);
layerId = "11343128-4963-4E5D-BE9C-B74F53B36FA5";
paths = (
{
closed = 1;
nodes = (
"346 64 OFFCURVE",
"272 102 OFFCURVE",
"223 182 CURVE SMOOTH",
"129 336 OFFCURVE",
"187 560 OFFCURVE",
"318 609 CURVE",
"385 623 OFFCURVE",
"526 553 OFFCURVE",
"526 458 CURVE SMOOTH",
"526 422 OFFCURVE",
"524 418 OFFCURVE",
"523 357 CURVE SMOOTH",
"522 318 OFFCURVE",
"519 233 OFFCURVE",
"516 206 CURVE SMOOTH",
"508 133 OFFCURVE",
"477 99 OFFCURVE",
"410 65 CURVE"
);
},
{
closed = 1;
nodes = (
"537 2 OFFCURVE",
"640 -1 OFFCURVE",
"666 84 CURVE",
"643 147 OFFCURVE",
"645 247 OFFCURVE",
"646 306 CURVE",
"646 380 LINE",
"648 498 OFFCURVE",
"653 563 OFFCURVE",
"668 588 CURVE",
"660 675 OFFCURVE",
"597 677 OFFCURVE",
"534 678 CURVE SMOOTH",
"471 679 OFFCURVE",
"371 696 OFFCURVE",
"301 684 CURVE SMOOTH",
"2 634 OFFCURVE",
"-34 256 OFFCURVE",
"121 81 CURVE SMOOTH",
"204 -13 OFFCURVE",
"326 -21 OFFCURVE",
"462 -6 CURVE SMOOTH"
);
}
);
width = 996;
},
{
anchors = (
{
name = bottom;
position = "{777, 0}";
},
{
name = center;
position = "{777, 350}";
},
{
name = ogonek;
position = "{1067, 10}";
},
{
name = top;
position = "{777, 703}";
},
{
name = topleft;
position = "{433, 700}";
},
{
name = topright;
position = "{1120, 700}";
}
);
background = {
components = (
{
name = E;
transform = "{1, 0, 0, 1, 417, 0}";
},
{
alignment = -1;
name = O;
}
);
};
components = (
{
name = E;
transform = "{1, 0, 0, 1, 416, 0}";
}
);
layerId = "0B1F8F77-7348-4C28-A663-EA76351238C4";
paths = (
{
closed = 1;
nodes = (
"346 64 OFFCURVE",
"272 102 OFFCURVE",
"223 182 CURVE SMOOTH",
"129 336 OFFCURVE",
"187 560 OFFCURVE",
"318 609 CURVE",
"385 623 OFFCURVE",
"526 553 OFFCURVE",
"526 458 CURVE SMOOTH",
"526 422 OFFCURVE",
"524 418 OFFCURVE",
"523 357 CURVE SMOOTH",
"522 318 OFFCURVE",
"519 233 OFFCURVE",
"516 206 CURVE SMOOTH",
"508 133 OFFCURVE",
"477 99 OFFCURVE",
"410 65 CURVE"
);
},
{
closed = 1;
nodes = (
"537 2 OFFCURVE",
"640 -1 OFFCURVE",
"666 84 CURVE",
"643 147 OFFCURVE",
"645 247 OFFCURVE",
"646 306 CURVE",
"646 380 LINE",
"648 498 OFFCURVE",
"653 563 OFFCURVE",
"668 588 CURVE",
"660 675 OFFCURVE",
"597 677 OFFCURVE",
"534 678 CURVE SMOOTH",
"471 679 OFFCURVE",
"371 696 OFFCURVE",
"301 684 CURVE SMOOTH",
"2 634 OFFCURVE",
"-34 256 OFFCURVE",
"121 81 CURVE SMOOTH",
"204 -13 OFFCURVE",
"326 -21 OFFCURVE",
"462 -6 CURVE SMOOTH"
);
}
);
width = 996;
}
);
leftMetricsKey = O;
rightMetricsKey = E;
unicode = 0152;
},
{
color = 5;
glyphname = P;
lastChange = "2016-11-22 13:36:40 +0000";
layers = (
{
anchors = (
{
name = bottom;
position = "{295, 0}";
},
{
name = top;
position = "{295, 700}";
}
);
background = {
components = (
{
name = R;
}
);
};
layerId = "11343128-4963-4E5D-BE9C-B74F53B36FA5";
paths = (
{
closed = 1;
nodes = (
"222 240 LINE",
"253 228 OFFCURVE",
"312 231 OFFCURVE",
"347 236 CURVE",
"588 284 OFFCURVE",
"637 567 OFFCURVE",
"462 648 CURVE SMOOTH",
"364 694 OFFCURVE",
"206 689 OFFCURVE",
"43 678 CURVE",
"225 597 LINE",
"439 633 OFFCURVE",
"488 401 OFFCURVE",
"359 326 CURVE",
"334 318 OFFCURVE",
"260 317 OFFCURVE",
"223 341 CURVE"
);
},
{
closed = 1;
nodes = (
"138 0 LINE",
"330 0 LINE",
"335 53 LINE",
"202 75 LINE"
);
},
{
closed = 1;
nodes = (
"43 678 LINE",
"38 621 LINE",
"93 610 LINE",
"105 585 OFFCURVE",
"105 512 OFFCURVE",
"105 407 CURVE SMOOTH",
"105 197 OFFCURVE",
"90 114 OFFCURVE",
"95 98 CURVE SMOOTH",
"99 86 OFFCURVE",
"115 71 OFFCURVE",
"144 65 CURVE",
"37 55 LINE",
"35 0 LINE",
"316 1 LINE",
"321 54 LINE",
"263 64 LINE",
"225 123 OFFCURVE",
"233 313 OFFCURVE",
"233 359 CURVE SMOOTH",
"233 494 OFFCURVE",
"240 567 OFFCURVE",
"253 588 CURVE SMOOTH",
"263 608 OFFCURVE",
"286 621 OFFCURVE",
"309 623 CURVE",
"310 678 LINE"
);
}
);
width = 589;
},
{
anchors = (
{
name = bottom;
position = "{285, 0}";
},
{
name = top;
position = "{285, 700}";
}
);
background = {
components = (
{
name = R;
transform = "{1, 0, 0, 1, -10, 0}";
}
);
};
layerId = "0B1F8F77-7348-4C28-A663-EA76351238C4";
paths = (
{
closed = 1;
nodes = (
"208 254 LINE",
"239 242 OFFCURVE",
"292 245 OFFCURVE",
"327 250 CURVE",
"556 297 OFFCURVE",
"608 568 OFFCURVE",
"433 648 CURVE SMOOTH",
"335 693 OFFCURVE",
"206 689 OFFCURVE",
"43 678 CURVE",
"215 609 LINE",
"431 646 OFFCURVE",
"480 397 OFFCURVE",
"340 321 CURVE",
"315 313 OFFCURVE",
"245 312 OFFCURVE",
"208 336 CURVE"
);
},
{
closed = 1;
nodes = (
"138 0 LINE",
"310 0 LINE",
"315 53 LINE",
"192 75 LINE"
);
},
{
closed = 1;
nodes = (
"43 678 LINE",
"38 621 LINE",
"93 610 LINE",
"105 585 OFFCURVE",
"105 512 OFFCURVE",
"105 407 CURVE SMOOTH",
"105 197 OFFCURVE",
"90 114 OFFCURVE",
"95 98 CURVE SMOOTH",
"99 86 OFFCURVE",
"115 71 OFFCURVE",
"144 65 CURVE",
"37 55 LINE",
"35 0 LINE",
"296 1 LINE",
"301 54 LINE",
"243 64 LINE",
"205 123 OFFCURVE",
"213 313 OFFCURVE",
"213 359 CURVE SMOOTH",
"213 494 OFFCURVE",
"220 567 OFFCURVE",
"233 588 CURVE SMOOTH",
"243 608 OFFCURVE",
"276 621 OFFCURVE",
"299 623 CURVE",
"300 678 LINE"
);
}
);
width = 579;
}
);
leftKerningGroup = I;
leftMetricsKey = I;
rightKerningGroup = T;
unicode = 0050;
},
{
glyphname = Thorn;
lastChange = "2016-11-22 13:36:40 +0000";
layers = (
{
anchors = (
{
name = bottom;
position = "{295, 0}";
},
{
name = top;
position = "{295, 700}";
}
);
layerId = "11343128-4963-4E5D-BE9C-B74F53B36FA5";
paths = (
{
closed = 1;
nodes = (
"222 138 LINE",
"253 127 OFFCURVE",
"312 129 OFFCURVE",
"347 134 CURVE",
"588 179 OFFCURVE",
"637 448 OFFCURVE",
"462 524 CURVE SMOOTH",
"400 551 OFFCURVE",
"314 559 OFFCURVE",
"218 559 CURVE",
"225 476 LINE",
"439 510 OFFCURVE",
"488 288 OFFCURVE",
"359 218 CURVE",
"334 210 OFFCURVE",
"260 217 OFFCURVE",
"223 239 CURVE"
);
},
{
closed = 1;
nodes = (
"43 680 LINE",
"38 625 LINE",
"93 614 LINE",
"105 589 OFFCURVE",
"105 514 OFFCURVE",
"105 387 CURVE SMOOTH",
"105 177 OFFCURVE",
"90 114 OFFCURVE",
"95 98 CURVE SMOOTH",
"99 86 OFFCURVE",
"115 71 OFFCURVE",
"144 65 CURVE",
"37 55 LINE",
"35 0 LINE",
"316 1 LINE",
"321 54 LINE",
"263 64 LINE",
"225 123 OFFCURVE",
"233 287 OFFCURVE",
"233 333 CURVE SMOOTH",
"233 490 OFFCURVE",
"240 569 OFFCURVE",
"253 590 CURVE SMOOTH",
"263 610 OFFCURVE",
"286 623 OFFCURVE",
"309 625 CURVE",
"310 680 LINE"
);
}
);
width = 589;
},
{
anchors = (
{
name = bottom;
position = "{295, 0}";
},
{
name = top;
position = "{295, 700}";
}
);
layerId = "0B1F8F77-7348-4C28-A663-EA76351238C4";
paths = (
{
closed = 1;
nodes = (
"222 138 LINE",
"253 127 OFFCURVE",
"312 129 OFFCURVE",
"347 134 CURVE",
"588 179 OFFCURVE",
"637 448 OFFCURVE",
"462 524 CURVE SMOOTH",
"400 551 OFFCURVE",
"314 559 OFFCURVE",
"218 559 CURVE",
"225 476 LINE",
"439 510 OFFCURVE",
"488 288 OFFCURVE",
"359 218 CURVE",
"334 210 OFFCURVE",
"260 217 OFFCURVE",
"223 239 CURVE"
);
},
{
closed = 1;
nodes = (
"43 680 LINE",
"38 625 LINE",
"93 614 LINE",
"105 589 OFFCURVE",
"105 514 OFFCURVE",
"105 387 CURVE SMOOTH",
"105 177 OFFCURVE",
"90 114 OFFCURVE",
"95 98 CURVE SMOOTH",
"99 86 OFFCURVE",
"115 71 OFFCURVE",
"144 65 CURVE",
"37 55 LINE",
"35 0 LINE",
"316 1 LINE",
"321 54 LINE",
"263 64 LINE",
"225 123 OFFCURVE",
"233 287 OFFCURVE",
"233 333 CURVE SMOOTH",
"233 490 OFFCURVE",
"240 569 OFFCURVE",
"253 590 CURVE SMOOTH",
"263 610 OFFCURVE",
"286 623 OFFCURVE",
"309 625 CURVE",
"310 680 LINE"
);
}
);
width = 589;
}
);
leftKerningGroup = I;
leftMetricsKey = I;
rightKerningGroup = B;
rightMetricsKey = P;
unicode = 00DE;
},
{
color = 5;
glyphname = Q;
lastChange = "2016-11-22 13:36:40 +0000";
layers = (
{
anchors = (
{
name = bottom;
position = "{362, 0}";
},
{
name = top;
position = "{362, 700}";
}
);
components = (
{
name = O;
}
);
layerId = "11343128-4963-4E5D-BE9C-B74F53B36FA5";
paths = (
{
closed = 1;
nodes = (
"365 -49 OFFCURVE",
"553 -168 OFFCURVE",
"647 -184 CURVE",
"749 -110 LINE",
"742 -93 LINE",
"580 -61 OFFCURVE",
"427 10 OFFCURVE",
"367 69 CURVE",
"214 105 LINE"
);
}
);
width = 724;
},
{
anchors = (
{
name = bottom;
position = "{362, 0}";
},
{
name = top;
position = "{362, 700}";
}
);
components = (
{
name = O;
}
);
layerId = "0B1F8F77-7348-4C28-A663-EA76351238C4";
paths = (
{
closed = 1;
nodes = (
"365 -49 OFFCURVE",
"573 -158 OFFCURVE",
"667 -174 CURVE",
"749 -110 LINE",
"742 -93 LINE",
"580 -61 OFFCURVE",
"427 -10 OFFCURVE",
"367 49 CURVE",
"214 105 LINE"
);
}
);
width = 724;
}
);
leftKerningGroup = O;
leftMetricsKey = O;
rightKerningGroup = O;
unicode = 0051;
},
{
glyphname = Q.alt;
lastChange = "2016-11-22 13:36:40 +0000";
layers = (
{
anchors = (
{
name = bottom;
position = "{362, 0}";
},
{
name = top;
position = "{362, 700}";
}
);
components = (
{
name = O;
}
);
layerId = "11343128-4963-4E5D-BE9C-B74F53B36FA5";
paths = (
{
closed = 1;
nodes = (
"390 -53 OFFCURVE",
"497 -160 OFFCURVE",
"591 -192 CURVE",
"699 -108 LINE",
"692 -91 LINE",
"551 -59 OFFCURVE",
"427 12 OFFCURVE",
"367 71 CURVE",
"239 101 LINE"
);
}
);
width = 724;
},
{
anchors = (
{
name = bottom;
position = "{362, 0}";
},
{
name = top;
position = "{362, 700}";
}
);
components = (
{
name = O;
}
);
layerId = "0B1F8F77-7348-4C28-A663-EA76351238C4";
paths = (
{
closed = 1;
nodes = (
"390 -53 OFFCURVE",
"497 -160 OFFCURVE",
"591 -192 CURVE",
"699 -108 LINE",
"692 -91 LINE",
"551 -59 OFFCURVE",
"427 12 OFFCURVE",
"367 71 CURVE",
"239 101 LINE"
);
}
);
width = 724;
}
);
leftKerningGroup = O;
leftMetricsKey = O;
rightKerningGroup = O;
},
{
color = 5;
glyphname = R;
lastChange = "2016-11-22 13:36:40 +0000";
layers = (
{
anchors = (
{
name = bottom;
position = "{323, 0}";
},
{
name = top;
position = "{297, 700}";
}
);
background = {
components = (
{
name = P;
}
);
};
layerId = "11343128-4963-4E5D-BE9C-B74F53B36FA5";
paths = (
{
closed = 1;
nodes = (
"229 283 LINE",
"235 280 OFFCURVE",
"308 281 OFFCURVE",
"335 282 CURVE",
"410 291 LINE",
"513 343 OFFCURVE",
"577 425 OFFCURVE",
"549 540 CURVE SMOOTH",
"498 749 OFFCURVE",
"126 679 OFFCURVE",
"44 678 CURVE",
"228 600 LINE",
"428 636 OFFCURVE",
"476 406 OFFCURVE",
"350 359 CURVE",
"327 359 OFFCURVE",
"269 352 OFFCURVE",
"209 379 CURVE"
);
},
{
closed = 1;
nodes = (
"267 337 LINE",
"329 236 OFFCURVE",
"420 69 OFFCURVE",
"469 0 CURVE",
"636 0 LINE",
"641 55 LINE",
"600 57 OFFCURVE",
"578 70 OFFCURVE",
"541 122 CURVE SMOOTH",
"483 203 OFFCURVE",
"433 280 OFFCURVE",
"401 337 CURVE"
);
},
{
closed = 1;
nodes = (
"44 678 LINE",
"39 623 LINE",
"94 612 LINE",
"106 587 OFFCURVE",
"106 512 OFFCURVE",
"106 394 CURVE SMOOTH",
"106 184 OFFCURVE",
"90 114 OFFCURVE",
"95 98 CURVE SMOOTH",
"99 86 OFFCURVE",
"115 71 OFFCURVE",
"144 65 CURVE",
"37 55 LINE",
"35 0 LINE",
"316 1 LINE",
"321 54 LINE",
"263 64 LINE",
"225 123 OFFCURVE",
"234 305 OFFCURVE",
"234 351 CURVE SMOOTH",
"234 508 OFFCURVE",
"241 567 OFFCURVE",
"254 588 CURVE SMOOTH",
"264 608 OFFCURVE",
"287 621 OFFCURVE",
"310 623 CURVE",
"311 678 LINE"
);
}
);
width = 646;
},
{
anchors = (
{
name = bottom;
position = "{313, 0}";
},
{
name = top;
position = "{287, 700}";
}
);
background = {
components = (
{
name = P;
transform = "{1, 0, 0, 1, -10, 0}";
}
);
};
layerId = "0B1F8F77-7348-4C28-A663-EA76351238C4";
paths = (
{
closed = 1;
nodes = (
"210 289 LINE",
"216 286 OFFCURVE",
"298 287 OFFCURVE",
"325 288 CURVE",
"400 297 LINE",
"503 349 OFFCURVE",
"557 426 OFFCURVE",
"529 541 CURVE SMOOTH",
"478 750 OFFCURVE",
"126 679 OFFCURVE",
"44 678 CURVE",
"218 615 LINE",
"428 656 OFFCURVE",
"476 404 OFFCURVE",
"340 355 CURVE",
"317 355 OFFCURVE",
"259 348 OFFCURVE",
"199 375 CURVE"
);
},
{
closed = 1;
nodes = (
"267 337 LINE",
"329 236 OFFCURVE",
"410 69 OFFCURVE",
"459 0 CURVE",
"614 0 LINE",
"619 55 LINE",
"578 57 OFFCURVE",
"556 70 OFFCURVE",
"519 122 CURVE SMOOTH",
"461 203 OFFCURVE",
"423 280 OFFCURVE",
"391 337 CURVE"
);
},
{
closed = 1;
nodes = (
"44 678 LINE",
"39 623 LINE",
"94 612 LINE",
"106 587 OFFCURVE",
"106 512 OFFCURVE",
"106 394 CURVE SMOOTH",
"106 184 OFFCURVE",
"90 114 OFFCURVE",
"95 98 CURVE SMOOTH",
"99 86 OFFCURVE",
"115 71 OFFCURVE",
"144 65 CURVE",
"37 55 LINE",
"35 0 LINE",
"296 1 LINE",
"301 54 LINE",
"243 64 LINE",
"205 123 OFFCURVE",
"214 305 OFFCURVE",
"214 351 CURVE SMOOTH",
"214 508 OFFCURVE",
"221 567 OFFCURVE",
"234 588 CURVE SMOOTH",
"244 608 OFFCURVE",
"254 623 OFFCURVE",
"300 623 CURVE",
"301 678 LINE"
);
}
);
width = 636;
}
);
leftKerningGroup = I;
leftMetricsKey = I;
rightKerningGroup = B;
unicode = 0052;
},
{
color = 5;
glyphname = S;
lastChange = "2016-11-22 13:36:40 +0000";
layers = (
{
anchors = (
{
name = bottom;
position = "{270, 0}";
},
{
name = top;
position = "{270, 708}";
}
);
layerId = "11343128-4963-4E5D-BE9C-B74F53B36FA5";
paths = (
{
closed = 1;
nodes = (
"480 56 OFFCURVE",
"509 113 OFFCURVE",
"509 207 CURVE SMOOTH",
"508 321 OFFCURVE",
"380 364 OFFCURVE",
"311 398 CURVE SMOOTH",
"238 432 OFFCURVE",
"188 459 OFFCURVE",
"176 489 CURVE SMOOTH",
"159 532 OFFCURVE",
"198 583 OFFCURVE",
"244 601 CURVE",
"301 601 OFFCURVE",
"356 570 OFFCURVE",
"397 520 CURVE",
"404 467 LINE",
"469 478 LINE",
"471 507 OFFCURVE",
"476 589 OFFCURVE",
"479 617 CURVE",
"426 665 OFFCURVE",
"342 699 OFFCURVE",
"244 688 CURVE SMOOTH",
"127 675 OFFCURVE",
"43 612 OFFCURVE",
"42 482 CURVE SMOOTH",
"41 363 OFFCURVE",
"152 325 OFFCURVE",
"227 287 CURVE SMOOTH",
"307 245 OFFCURVE",
"364 218 OFFCURVE",
"377 178 CURVE SMOOTH",
"390 137 OFFCURVE",
"342 90 OFFCURVE",
"308 75 CURVE",
"218 77 OFFCURVE",
"125 114 OFFCURVE",
"99 211 CURVE",
"85 206 OFFCURVE",
"60 203 OFFCURVE",
"48 198 CURVE",
"41 164 OFFCURVE",
"35 76 OFFCURVE",
"32 64 CURVE",
"110 -17 OFFCURVE",
"278 -40 OFFCURVE",
"397 17 CURVE SMOOTH"
);
}
);
width = 539;
},
{
anchors = (
{
name = bottom;
position = "{264, 0}";
},
{
name = top;
position = "{264, 708}";
}
);
layerId = "0B1F8F77-7348-4C28-A663-EA76351238C4";
paths = (
{
closed = 1;
nodes = (
"471 56 OFFCURVE",
"496 147 OFFCURVE",
"493 207 CURVE SMOOTH",
"488 308 OFFCURVE",
"374 355 OFFCURVE",
"305 389 CURVE SMOOTH",
"232 423 OFFCURVE",
"172 459 OFFCURVE",
"160 489 CURVE SMOOTH",
"143 532 OFFCURVE",
"184 593 OFFCURVE",
"230 611 CURVE",
"287 611 OFFCURVE",
"346 580 OFFCURVE",
"387 530 CURVE",
"394 477 LINE",
"459 488 LINE",
"461 517 OFFCURVE",
"466 589 OFFCURVE",
"469 617 CURVE",
"416 665 OFFCURVE",
"336 699 OFFCURVE",
"238 688 CURVE SMOOTH",
"121 675 OFFCURVE",
"46 611 OFFCURVE",
"46 492 CURVE SMOOTH",
"46 392 OFFCURVE",
"147 347 OFFCURVE",
"221 308 CURVE SMOOTH",
"301 266 OFFCURVE",
"368 228 OFFCURVE",
"381 188 CURVE SMOOTH",
"394 147 OFFCURVE",
"343 80 OFFCURVE",
"309 65 CURVE",
"219 67 OFFCURVE",
"123 104 OFFCURVE",
"97 201 CURVE",
"83 196 OFFCURVE",
"58 193 OFFCURVE",
"46 188 CURVE",
"39 154 OFFCURVE",
"33 76 OFFCURVE",
"30 64 CURVE",
"108 -17 OFFCURVE",
"269 -40 OFFCURVE",
"388 17 CURVE SMOOTH"
);
}
);
width = 524;
}
);
leftKerningGroup = I;
rightKerningGroup = I;
unicode = 0053;
},
{
glyphname = Germandbls;
lastChange = "2016-11-22 13:57:32 +0000";
layers = (
{
anchors = (
{
name = bottom;
position = "{302, 0}";
},
{
name = top;
position = "{302, 700}";
}
);
background = {
paths = (
{
closed = 1;
nodes = (
"213 391 LINE",
"235 473 LINE",
"144 562 LINE",
"123 491 LINE",
"122 470 OFFCURVE",
"113 468 OFFCURVE",
"83 466 CURVE SMOOTH",
"68 465 LINE",
"66 400 LINE",
"70 400 OFFCURVE",
"114 387 OFFCURVE",
"129 387 CURVE"
);
},
{
closed = 1;
nodes = (
"626 290 OFFCURVE",
"525 328 OFFCURVE",
"405 396 CURVE",
"564 473 OFFCURVE",
"584 756 OFFCURVE",
"321 739 CURVE SMOOTH",
"202 731 OFFCURVE",
"124 626 OFFCURVE",
"124 480 CURVE SMOOTH",
"124 404 OFFCURVE",
"120 253 OFFCURVE",
"121 95 CURVE SMOOTH",
"121 84 OFFCURVE",
"135 71 OFFCURVE",
"155 63 CURVE",
"73 55 LINE",
"70 0 LINE",
"236 0 LINE",
"235 403 LINE SMOOTH",
"235 453 OFFCURVE",
"236 500 OFFCURVE",
"236 531 CURVE SMOOTH",
"236 621 OFFCURVE",
"274 666 OFFCURVE",
"313 668 CURVE",
"396 650 OFFCURVE",
"449 510 OFFCURVE",
"309 405 CURVE",
"308 391 OFFCURVE",
"306 382 OFFCURVE",
"308 354 CURVE",
"308 288 OFFCURVE",
"505 251 OFFCURVE",
"505 138 CURVE SMOOTH",
"505 75 OFFCURVE",
"416 40 OFFCURVE",
"342 79 CURVE",
"319 24 LINE",
"443 -60 OFFCURVE",
"626 12 OFFCURVE",
"626 162 CURVE SMOOTH"
);
},
{
closed = 1;
nodes = (
"163 0 LINE",
"284 0 LINE",
"288 60 LINE",
"219 69 LINE"
);
}
);
};
layerId = "11343128-4963-4E5D-BE9C-B74F53B36FA5";
paths = (
{
closed = 1;
nodes = (
"427 -78 OFFCURVE",
"628 15 OFFCURVE",
"628 170 CURVE SMOOTH",
"628 311 OFFCURVE",
"500 363 OFFCURVE",
"368 390 CURVE",
"324 323 LINE",
"391 296 OFFCURVE",
"445 246 OFFCURVE",
"462 192 CURVE SMOOTH",
"474 155 OFFCURVE",
"469 111 OFFCURVE",
"450 81 CURVE",
"388 83 LINE",
"369 156 LINE",
"305 146 LINE",
"288 39 LINE"
);
},
{
closed = 1;
nodes = (
"526 642 OFFCURVE",
"427 724 OFFCURVE",
"288 693 CURVE SMOOTH",
"196 673 OFFCURVE",
"70 622 OFFCURVE",
"70 404 CURVE SMOOTH",
"70 294 OFFCURVE",
"69 189 OFFCURVE",
"69 114 CURVE",
"69 90 OFFCURVE",
"91 78 OFFCURVE",
"110 75 CURVE",
"26 64 LINE",
"20 0 LINE",
"260 0 LINE",
"258 65 LINE",
"221 74 LINE",
"221 275 OFFCURVE",
"218 397 OFFCURVE",
"219 441 CURVE SMOOTH",
"222 585 OFFCURVE",
"329 622 OFFCURVE",
"387 563 CURVE",
"339 448 OFFCURVE",
"279 365 OFFCURVE",
"291 379 CURVE",
"324 322 LINE",
"380 372 LINE",
"539 560 LINE",
"539 590 LINE"
);
}
);
width = 628;
},
{
anchors = (
{
name = bottom;
position = "{302, 0}";
},
{
name = top;
position = "{302, 700}";
}
);
background = {
paths = (
{
closed = 1;
nodes = (
"213 391 LINE",
"235 473 LINE",
"144 562 LINE",
"123 491 LINE",
"122 470 OFFCURVE",
"113 468 OFFCURVE",
"83 466 CURVE SMOOTH",
"68 465 LINE",
"66 400 LINE",
"70 400 OFFCURVE",
"114 387 OFFCURVE",
"129 387 CURVE"
);
},
{
closed = 1;
nodes = (
"626 290 OFFCURVE",
"525 328 OFFCURVE",
"405 396 CURVE",
"564 473 OFFCURVE",
"584 756 OFFCURVE",
"321 739 CURVE SMOOTH",
"202 731 OFFCURVE",
"124 626 OFFCURVE",
"124 480 CURVE SMOOTH",
"124 404 OFFCURVE",
"120 253 OFFCURVE",
"121 95 CURVE SMOOTH",
"121 84 OFFCURVE",
"135 71 OFFCURVE",
"155 63 CURVE",
"73 55 LINE",
"70 0 LINE",
"236 0 LINE",
"235 403 LINE SMOOTH",
"235 453 OFFCURVE",
"236 500 OFFCURVE",
"236 531 CURVE SMOOTH",
"236 621 OFFCURVE",
"274 666 OFFCURVE",
"313 668 CURVE",
"396 650 OFFCURVE",
"449 510 OFFCURVE",
"309 405 CURVE",
"308 391 OFFCURVE",
"306 382 OFFCURVE",
"308 354 CURVE",
"308 288 OFFCURVE",
"505 251 OFFCURVE",
"505 138 CURVE SMOOTH",
"505 75 OFFCURVE",
"416 40 OFFCURVE",
"342 79 CURVE",
"319 24 LINE",
"443 -60 OFFCURVE",
"626 12 OFFCURVE",
"626 162 CURVE SMOOTH"
);
},
{
closed = 1;
nodes = (
"163 0 LINE",
"284 0 LINE",
"288 60 LINE",
"219 69 LINE"
);
}
);
};
layerId = "0B1F8F77-7348-4C28-A663-EA76351238C4";
paths = (
{
closed = 1;
nodes = (
"427 -78 OFFCURVE",
"628 15 OFFCURVE",
"628 170 CURVE SMOOTH",
"628 308 OFFCURVE",
"500 356 OFFCURVE",
"368 390 CURVE",
"324 323 LINE",
"391 296 OFFCURVE",
"465 246 OFFCURVE",
"482 192 CURVE SMOOTH",
"494 155 OFFCURVE",
"489 111 OFFCURVE",
"473 81 CURVE",
"378 83 LINE",
"359 151 LINE",
"305 141 LINE",
"288 39 LINE"
);
},
{
closed = 1;
nodes = (
"526 642 OFFCURVE",
"427 724 OFFCURVE",
"288 693 CURVE SMOOTH",
"196 673 OFFCURVE",
"80 622 OFFCURVE",
"80 404 CURVE SMOOTH",
"80 294 OFFCURVE",
"79 179 OFFCURVE",
"79 104 CURVE",
"79 80 OFFCURVE",
"101 68 OFFCURVE",
"120 65 CURVE",
"36 54 LINE",
"30 0 LINE",
"250 0 LINE",
"248 55 LINE",
"211 64 LINE",
"211 265 OFFCURVE",
"208 384 OFFCURVE",
"209 428 CURVE SMOOTH",
"211 572 OFFCURVE",
"343 649 OFFCURVE",
"401 590 CURVE",
"353 475 OFFCURVE",
"279 365 OFFCURVE",
"291 379 CURVE",
"324 322 LINE",
"368 372 LINE",
"539 560 LINE",
"539 590 LINE"
);
}
);
width = 628;
}
);
leftKerningGroup = I;
rightKerningGroup = B;
unicode = 1E9E;
},
{
color = 5;
glyphname = T;
lastChange = "2016-11-22 13:36:40 +0000";
layers = (
{
anchors = (
{
name = bottom;
position = "{304, 0}";
},
{
name = center;
position = "{304, 350}";
},
{
name = top;
position = "{304, 700}";
}
);
layerId = "11343128-4963-4E5D-BE9C-B74F53B36FA5";
paths = (
{
closed = 1;
nodes = (
"416 591 OFFCURVE",
"461 589 OFFCURVE",
"501 582 CURVE",
"531 510 LINE",
"593 520 LINE",
"568 683 LINE",
"398 677 OFFCURVE",
"219 677 OFFCURVE",
"47 683 CURVE",
"25 520 LINE",
"85 509 LINE",
"103 587 OFFCURVE",
"142 592 OFFCURVE",
"248 591 CURVE",
"381 590 LINE"
);
},
{
closed = 1;
nodes = (
"172 678 LINE",
"167 626 LINE",
"222 615 LINE",
"234 590 OFFCURVE",
"234 515 OFFCURVE",
"234 388 CURVE SMOOTH",
"234 178 OFFCURVE",
"219 114 OFFCURVE",
"224 98 CURVE SMOOTH",
"228 86 OFFCURVE",
"244 71 OFFCURVE",
"273 65 CURVE",
"164 55 LINE",
"162 0 LINE",
"445 1 LINE",
"450 54 LINE",
"392 64 LINE",
"354 123 OFFCURVE",
"362 288 OFFCURVE",
"362 334 CURVE SMOOTH",
"362 491 OFFCURVE",
"361 570 OFFCURVE",
"374 591 CURVE SMOOTH",
"384 611 OFFCURVE",
"415 624 OFFCURVE",
"438 626 CURVE",
"439 678 LINE"
);
}
);
width = 613;
},
{
anchors = (
{
name = bottom;
position = "{299, 0}";
},
{
name = center;
position = "{299, 350}";
},
{
name = top;
position = "{299, 700}";
}
);
layerId = "0B1F8F77-7348-4C28-A663-EA76351238C4";
paths = (
{
closed = 1;
nodes = (
"401 601 OFFCURVE",
"446 599 OFFCURVE",
"496 592 CURVE",
"526 520 LINE",
"588 530 LINE",
"563 683 LINE",
"383 677 OFFCURVE",
"224 677 OFFCURVE",
"42 683 CURVE",
"20 530 LINE",
"80 519 LINE",
"98 597 OFFCURVE",
"147 602 OFFCURVE",
"253 601 CURVE",
"366 600 LINE"
);
},
{
closed = 1;
nodes = (
"177 678 LINE",
"172 626 LINE",
"227 615 LINE",
"239 590 OFFCURVE",
"239 515 OFFCURVE",
"239 388 CURVE SMOOTH",
"239 178 OFFCURVE",
"224 114 OFFCURVE",
"229 98 CURVE SMOOTH",
"233 86 OFFCURVE",
"249 71 OFFCURVE",
"278 65 CURVE",
"169 55 LINE",
"167 0 LINE",
"430 1 LINE",
"435 54 LINE",
"377 64 LINE",
"339 123 OFFCURVE",
"347 288 OFFCURVE",
"347 334 CURVE SMOOTH",
"347 491 OFFCURVE",
"346 570 OFFCURVE",
"359 591 CURVE SMOOTH",
"371 610 OFFCURVE",
"400 624 OFFCURVE",
"423 626 CURVE",
"424 678 LINE"
);
}
);
width = 608;
}
);
leftKerningGroup = T;
rightKerningGroup = T;
unicode = 0054;
},
{
color = 5;
glyphname = U;
lastChange = "2016-11-22 13:36:40 +0000";
layers = (
{
anchors = (
{
name = bottom;
position = "{350, 0}";
},
{
name = ogonek;
position = "{490, 10}";
},
{
name = top;
position = "{350, 700}";
},
{
name = topright;
position = "{680, 700}";
}
);
background = {
components = (
{
name = I;
transform = "{-1, 0, 0, -1, 354, 700}";
}
);
};
layerId = "11343128-4963-4E5D-BE9C-B74F53B36FA5";
paths = (
{
closed = 1;
nodes = (
"434 625 LINE",
"488 615 LINE",
"502 587 OFFCURVE",
"500 486 OFFCURVE",
"500 304 CURVE SMOOTH",
"500 170 OFFCURVE",
"465 111 OFFCURVE",
"422 89 CURVE",
"326 74 OFFCURVE",
"268 117 OFFCURVE",
"245 192 CURVE SMOOTH",
"224 256 OFFCURVE",
"235 543 OFFCURVE",
"243 591 CURVE",
"237 601 OFFCURVE",
"208 614 OFFCURVE",
"194 616 CURVE",
"232 618 OFFCURVE",
"277 622 OFFCURVE",
"299 625 CURVE",
"302 679 LINE",
"36 680 LINE",
"30 626 LINE",
"91 614 LINE",
"103 579 OFFCURVE",
"97 374 OFFCURVE",
"97 265 CURVE SMOOTH",
"97 184 OFFCURVE",
"115 114 OFFCURVE",
"149 69 CURVE SMOOTH",
"215 -17 OFFCURVE",
"355 -46 OFFCURVE",
"457 2 CURVE SMOOTH",
"540 41 OFFCURVE",
"602 125 OFFCURVE",
"602 272 CURVE SMOOTH",
"602 409 OFFCURVE",
"605 476 OFFCURVE",
"609 543 CURVE SMOOTH",
"612 591 OFFCURVE",
"628 623 OFFCURVE",
"678 625 CURVE",
"680 680 LINE",
"442 680 LINE"
);
}
);
width = 700;
},
{
anchors = (
{
name = bottom;
position = "{340, 0}";
},
{
name = ogonek;
position = "{480, 10}";
},
{
name = top;
position = "{340, 700}";
},
{
name = topright;
position = "{670, 700}";
}
);
background = {
components = (
{
name = I;
transform = "{-1, 0, 0, -1, 344, 700}";
}
);
};
layerId = "0B1F8F77-7348-4C28-A663-EA76351238C4";
paths = (
{
closed = 1;
nodes = (
"446 625 LINE",
"500 615 LINE",
"514 587 OFFCURVE",
"510 486 OFFCURVE",
"510 304 CURVE SMOOTH",
"510 157 OFFCURVE",
"461 100 OFFCURVE",
"418 78 CURVE",
"322 63 OFFCURVE",
"249 117 OFFCURVE",
"225 192 CURVE SMOOTH",
"204 256 OFFCURVE",
"215 543 OFFCURVE",
"223 591 CURVE",
"217 601 OFFCURVE",
"188 614 OFFCURVE",
"174 616 CURVE",
"212 618 OFFCURVE",
"257 622 OFFCURVE",
"279 625 CURVE",
"282 679 LINE",
"36 680 LINE",
"30 626 LINE",
"91 614 LINE",
"103 579 OFFCURVE",
"97 374 OFFCURVE",
"97 265 CURVE SMOOTH",
"97 184 OFFCURVE",
"115 114 OFFCURVE",
"149 69 CURVE SMOOTH",
"214 -17 OFFCURVE",
"345 -46 OFFCURVE",
"447 2 CURVE SMOOTH",
"530 41 OFFCURVE",
"592 125 OFFCURVE",
"592 272 CURVE SMOOTH",
"592 409 OFFCURVE",
"595 476 OFFCURVE",
"599 543 CURVE SMOOTH",
"602 591 OFFCURVE",
"618 623 OFFCURVE",
"668 625 CURVE",
"670 680 LINE",
"454 680 LINE"
);
}
);
width = 690;
}
);
leftKerningGroup = V;
rightKerningGroup = U;
unicode = 0055;
},
{
color = 5;
glyphname = V;
lastChange = "2016-11-22 13:36:40 +0000";
layers = (
{
anchors = (
{
name = bottom;
position = "{351, 0}";
},
{
name = top;
position = "{351, 700}";
}
);
background = {
paths = (
{
closed = 1;
nodes = (
"83 576 OFFCURVE",
"95 492 OFFCURVE",
"88 414 CURVE",
"214 430 LINE",
"218 539 OFFCURVE",
"227 589 OFFCURVE",
"225 605 CURVE SMOOTH",
"224 613 OFFCURVE",
"218 627 OFFCURVE",
"186 639 CURVE",
"281 645 LINE",
"281 700 LINE",
"16 700 LINE",
"10 645 LINE",
"67 635 LINE"
);
}
);
};
layerId = "11343128-4963-4E5D-BE9C-B74F53B36FA5";
paths = (
{
closed = 1;
nodes = (
"380 117 LINE",
"360 189 OFFCURVE",
"233 571 OFFCURVE",
"230 581 CURVE SMOOTH",
"223 603 OFFCURVE",
"199 614 OFFCURVE",
"177 616 CURVE",
"274 625 LINE",
"277 680 LINE",
"13 680 LINE",
"7 625 LINE",
"58 615 LINE",
"74 583 OFFCURVE",
"130 442 OFFCURVE",
"172 321 CURVE SMOOTH",
"213 210 OFFCURVE",
"263 73 OFFCURVE",
"283 0 CURVE"
);
},
{
closed = 1;
nodes = (
"507 584 OFFCURVE",
"465 463 OFFCURVE",
"449 412 CURVE SMOOTH",
"338 67 OFFCURVE",
"308 44 OFFCURVE",
"285 0 CURVE",
"404 0 LINE",
"500 270 OFFCURVE",
"570 460 OFFCURVE",
"610 564 CURVE SMOOTH",
"628 611 OFFCURVE",
"661 625 OFFCURVE",
"692 625 CURVE",
"696 680 LINE",
"451 680 LINE",
"443 625 LINE",
"498 616 LINE"
);
}
);
width = 702;
},
{
anchors = (
{
name = bottom;
position = "{351, 0}";
},
{
name = top;
position = "{351, 700}";
}
);
background = {
paths = (
{
closed = 1;
nodes = (
"83 576 OFFCURVE",
"95 492 OFFCURVE",
"88 414 CURVE",
"214 430 LINE",
"218 539 OFFCURVE",
"227 589 OFFCURVE",
"225 605 CURVE SMOOTH",
"224 613 OFFCURVE",
"218 627 OFFCURVE",
"186 639 CURVE",
"281 645 LINE",
"281 700 LINE",
"16 700 LINE",
"10 645 LINE",
"67 635 LINE"
);
}
);
};
layerId = "0B1F8F77-7348-4C28-A663-EA76351238C4";
paths = (
{
closed = 1;
nodes = (
"368 117 LINE",
"348 189 OFFCURVE",
"223 571 OFFCURVE",
"220 581 CURVE SMOOTH",
"213 603 OFFCURVE",
"189 614 OFFCURVE",
"167 616 CURVE",
"264 625 LINE",
"267 680 LINE",
"23 680 LINE",
"17 625 LINE",
"68 615 LINE",
"84 583 OFFCURVE",
"140 442 OFFCURVE",
"182 321 CURVE SMOOTH",
"221 209 OFFCURVE",
"271 73 OFFCURVE",
"291 0 CURVE"
);
},
{
closed = 1;
nodes = (
"512 584 OFFCURVE",
"470 463 OFFCURVE",
"454 412 CURVE SMOOTH",
"344 66 OFFCURVE",
"316 44 OFFCURVE",
"293 0 CURVE",
"392 0 LINE",
"488 270 OFFCURVE",
"552 460 OFFCURVE",
"592 564 CURVE SMOOTH",
"610 611 OFFCURVE",
"643 625 OFFCURVE",
"674 625 CURVE",
"678 680 LINE",
"456 680 LINE",
"448 625 LINE",
"503 616 LINE"
);
}
);
width = 702;
}
);
leftKerningGroup = V;
rightKerningGroup = V;
unicode = 0056;
},
{
color = 5;
glyphname = W;
lastChange = "2016-11-22 13:36:40 +0000";
layers = (
{
anchors = (
{
name = bottom;
position = "{524, 0}";
},
{
name = top;
position = "{524, 705}";
}
);
background = {
components = (
{
name = V;
}
);
};
guideLines = (
{
position = "{1458, 194}";
},
{
angle = 70;
position = "{829, 288}";
}
);
layerId = "11343128-4963-4E5D-BE9C-B74F53B36FA5";
paths = (
{
closed = 1;
nodes = (
"392 117 LINE",
"372 189 OFFCURVE",
"267 573 OFFCURVE",
"263 583 CURVE SMOOTH",
"256 596 OFFCURVE",
"245 608 OFFCURVE",
"218 616 CURVE",
"300 625 LINE",
"304 680 LINE",
"35 680 LINE",
"27 625 LINE",
"89 615 LINE",
"105 583 OFFCURVE",
"159 442 OFFCURVE",
"196 321 CURVE SMOOTH",
"230 209 OFFCURVE",
"281 44 OFFCURVE",
"295 0 CURVE"
);
},
{
closed = 1;
nodes = (
"506 584 OFFCURVE",
"462 463 OFFCURVE",
"445 412 CURVE SMOOTH",
"331 67 OFFCURVE",
"320 44 OFFCURVE",
"296 0 CURVE",
"402 0 LINE",
"496 270 OFFCURVE",
"565 470 OFFCURVE",
"585 517 CURVE",
"499 616 LINE"
);
},
{
closed = 1;
nodes = (
"713 117 LINE",
"697 189 OFFCURVE",
"595 573 OFFCURVE",
"593 583 CURVE SMOOTH",
"588 607 OFFCURVE",
"600 625 OFFCURVE",
"637 625 CURVE",
"643 680 LINE",
"383 680 LINE",
"375 625 LINE",
"435 615 LINE",
"449 583 OFFCURVE",
"482 441 OFFCURVE",
"524 321 CURVE SMOOTH",
"563 210 OFFCURVE",
"609 44 OFFCURVE",
"624 0 CURVE"
);
},
{
closed = 1;
nodes = (
"813 584 OFFCURVE",
"778 464 OFFCURVE",
"763 412 CURVE SMOOTH",
"661 65 OFFCURVE",
"666 54 OFFCURVE",
"623 0 CURVE",
"734 0 LINE",
"850 400 OFFCURVE",
"898 517 OFFCURVE",
"920 564 CURVE SMOOTH",
"943 610 OFFCURVE",
"972 625 OFFCURVE",
"1006 625 CURVE",
"1010 680 LINE",
"759 680 LINE",
"751 625 LINE",
"805 616 LINE"
);
}
);
width = 1047;
},
{
anchors = (
{
name = bottom;
position = "{514, 0}";
},
{
name = top;
position = "{514, 705}";
}
);
background = {
components = (
{
name = V;
transform = "{1, 0, 0, 1, -10, 0}";
}
);
};
guideLines = (
{
position = "{1448, 194}";
},
{
angle = 70;
position = "{819, 288}";
}
);
layerId = "0B1F8F77-7348-4C28-A663-EA76351238C4";
paths = (
{
closed = 1;
nodes = (
"372 117 LINE",
"352 189 OFFCURVE",
"247 573 OFFCURVE",
"243 583 CURVE SMOOTH",
"238 597 OFFCURVE",
"225 608 OFFCURVE",
"198 616 CURVE",
"280 625 LINE",
"284 680 LINE",
"35 680 LINE",
"27 625 LINE",
"89 615 LINE",
"105 583 OFFCURVE",
"159 442 OFFCURVE",
"196 321 CURVE SMOOTH",
"230 209 OFFCURVE",
"281 44 OFFCURVE",
"295 0 CURVE"
);
},
{
closed = 1;
nodes = (
"496 584 OFFCURVE",
"452 463 OFFCURVE",
"435 412 CURVE SMOOTH",
"321 67 OFFCURVE",
"320 44 OFFCURVE",
"296 0 CURVE",
"379 0 LINE",
"473 270 OFFCURVE",
"542 470 OFFCURVE",
"562 517 CURVE",
"489 616 LINE"
);
},
{
closed = 1;
nodes = (
"693 117 LINE",
"677 189 OFFCURVE",
"575 573 OFFCURVE",
"573 583 CURVE SMOOTH",
"568 607 OFFCURVE",
"580 625 OFFCURVE",
"617 625 CURVE",
"623 680 LINE",
"383 680 LINE",
"375 625 LINE",
"435 615 LINE",
"449 583 OFFCURVE",
"482 441 OFFCURVE",
"524 321 CURVE SMOOTH",
"563 210 OFFCURVE",
"609 44 OFFCURVE",
"624 0 CURVE"
);
},
{
closed = 1;
nodes = (
"803 584 OFFCURVE",
"768 464 OFFCURVE",
"753 412 CURVE SMOOTH",
"651 65 OFFCURVE",
"666 54 OFFCURVE",
"623 0 CURVE",
"712 0 LINE",
"828 400 OFFCURVE",
"876 517 OFFCURVE",
"898 564 CURVE SMOOTH",
"920 611 OFFCURVE",
"950 625 OFFCURVE",
"984 625 CURVE",
"988 680 LINE",
"749 680 LINE",
"741 625 LINE",
"795 616 LINE"
);
}
);
width = 1025;
}
);
leftKerningGroup = V;
rightKerningGroup = V;
unicode = 0057;
},
{
color = 5;
glyphname = X;
lastChange = "2016-11-22 13:40:49 +0000";
layers = (
{
anchors = (
{
name = bottom;
position = "{364, 0}";
},
{
name = top;
position = "{364, 700}";
}
);
background = {
components = (
{
name = V;
transform = "{-1, 0, 0, -1, 692, 700}";
}
);
};
guideLines = (
{
angle = 90;
position = "{14, 134}";
},
{
angle = 90;
position = "{701, 135}";
},
{
angle = 56;
position = "{348, 360}";
}
);
layerId = "11343128-4963-4E5D-BE9C-B74F53B36FA5";
paths = (
{
closed = 1;
nodes = (
"320 294 LINE",
"366 218 OFFCURVE",
"388 184 OFFCURVE",
"420 140 CURVE SMOOTH",
"458 88 OFFCURVE",
"479 78 OFFCURVE",
"499 75 CURVE",
"405 65 LINE",
"403 0 LINE",
"719 0 LINE",
"727 65 LINE",
"665 75 LINE",
"591 164 OFFCURVE",
"451 317 OFFCURVE",
"398 402 CURVE"
);
},
{
closed = 1;
nodes = (
"480 531 OFFCURVE",
"419 458 OFFCURVE",
"366 382 CURVE",
"420 309 LINE",
"483 402 OFFCURVE",
"607 550 OFFCURVE",
"633 579 CURVE SMOOTH",
"655 603 OFFCURVE",
"684 613 OFFCURVE",
"712 615 CURVE",
"712 680 LINE",
"464 680 LINE",
"459 615 LINE",
"513 605 LINE"
);
},
{
closed = 1;
nodes = (
"264 133 OFFCURVE",
"349 232 OFFCURVE",
"379 278 CURVE",
"309 350 LINE",
"252 263 OFFCURVE",
"135 135 OFFCURVE",
"96 101 CURVE SMOOTH",
"69 78 OFFCURVE",
"44 65 OFFCURVE",
"17 65 CURVE",
"17 0 LINE",
"281 0 LINE",
"285 65 LINE",
"235 75 LINE"
);
},
{
closed = 1;
nodes = (
"396 393 LINE",
"346 462 OFFCURVE",
"325 506 OFFCURVE",
"295 554 CURVE SMOOTH",
"282 575 OFFCURVE",
"266 615 OFFCURVE",
"325 615 CURVE",
"325 680 LINE",
"21 680 LINE",
"16 615 LINE",
"72 605 LINE",
"175 467 OFFCURVE",
"289 319 OFFCURVE",
"328 262 CURVE"
);
}
);
width = 727;
},
{
anchors = (
{
name = bottom;
position = "{360, 0}";
},
{
name = top;
position = "{360, 700}";
}
);
background = {
components = (
{
name = V;
transform = "{-1, 0, 0, -1, 688, 700}";
}
);
};
guideLines = (
{
angle = 90;
position = "{10, 134}";
},
{
angle = 90;
position = "{697, 135}";
},
{
angle = 56;
position = "{344, 360}";
}
);
layerId = "0B1F8F77-7348-4C28-A663-EA76351238C4";
paths = (
{
closed = 1;
nodes = (
"326 294 LINE",
"369 218 OFFCURVE",
"406 174 OFFCURVE",
"436 130 CURVE SMOOTH",
"472 77 OFFCURVE",
"495 68 OFFCURVE",
"515 65 CURVE",
"421 55 LINE",
"419 0 LINE",
"695 0 LINE",
"703 55 LINE",
"641 65 LINE",
"562 168 OFFCURVE",
"450 302 OFFCURVE",
"388 387 CURVE"
);
},
{
closed = 1;
nodes = (
"483 541 OFFCURVE",
"422 458 OFFCURVE",
"369 382 CURVE",
"413 309 LINE",
"476 402 OFFCURVE",
"590 560 OFFCURVE",
"616 589 CURVE SMOOTH",
"638 613 OFFCURVE",
"667 623 OFFCURVE",
"695 625 CURVE",
"695 680 LINE",
"467 680 LINE",
"462 625 LINE",
"516 615 LINE"
);
},
{
closed = 1;
nodes = (
"248 123 OFFCURVE",
"333 232 OFFCURVE",
"363 278 CURVE",
"303 350 LINE",
"246 263 OFFCURVE",
"139 125 OFFCURVE",
"100 91 CURVE SMOOTH",
"73 68 OFFCURVE",
"48 55 OFFCURVE",
"21 55 CURVE",
"21 0 LINE",
"265 0 LINE",
"269 55 LINE",
"219 65 LINE"
);
},
{
closed = 1;
nodes = (
"385 375 LINE",
"333 452 OFFCURVE",
"298 500 OFFCURVE",
"265 554 CURVE SMOOTH",
"247 584 OFFCURVE",
"236 625 OFFCURVE",
"295 625 CURVE",
"295 680 LINE",
"31 680 LINE",
"26 625 LINE",
"82 615 LINE",
"185 477 OFFCURVE",
"294 318 OFFCURVE",
"330 261 CURVE"
);
}
);
width = 713;
}
);
leftKerningGroup = X;
rightKerningGroup = X;
unicode = 0058;
},
{
color = 5;
glyphname = Y;
lastChange = "2016-11-22 13:36:40 +0000";
layers = (
{
anchors = (
{
name = bottom;
position = "{340, 0}";
},
{
name = top;
position = "{351, 701}";
},
{
name = topleft;
position = "{20, 700}";
}
);
annotations = (
{
position = "{-186, 798}";
text = "82";
type = Text;
},
{
position = "{224, -14}";
text = "This Serif!";
type = Text;
width = 83;
}
);
background = {
components = (
{
name = F;
transform = "{1, 0, 0, 1, 164, 0}";
}
);
};
guideLines = (
{
position = "{258, 273}";
}
);
layerId = "11343128-4963-4E5D-BE9C-B74F53B36FA5";
paths = (
{
closed = 1;
nodes = (
"458 558 OFFCURVE",
"385 399 OFFCURVE",
"307 282 CURVE",
"378 214 LINE",
"418 307 OFFCURVE",
"557 560 OFFCURVE",
"583 589 CURVE SMOOTH",
"605 613 OFFCURVE",
"639 625 OFFCURVE",
"666 625 CURVE",
"666 680 LINE",
"425 680 LINE",
"418 625 LINE",
"480 616 LINE"
);
},
{
closed = 1;
nodes = (
"375 354 LINE",
"329 447 OFFCURVE",
"258 561 OFFCURVE",
"250 581 CURVE SMOOTH",
"241 603 OFFCURVE",
"249 625 OFFCURVE",
"290 625 CURVE",
"290 680 LINE",
"32 680 LINE",
"25 625 LINE",
"77 616 LINE",
"202 415 OFFCURVE",
"243 336 OFFCURVE",
"299 223 CURVE"
);
},
{
closed = 1;
nodes = (
"401 106 OFFCURVE",
"403 244 OFFCURVE",
"404 322 CURVE",
"275 306 LINE",
"271 197 OFFCURVE",
"262 110 OFFCURVE",
"269 95 CURVE SMOOTH",
"273 86 OFFCURVE",
"282 74 OFFCURVE",
"311 65 CURVE",
"204 55 LINE",
"201 0 LINE",
"486 0 LINE",
"492 55 LINE",
"431 65 LINE"
);
}
);
width = 680;
},
{
anchors = (
{
name = bottom;
position = "{330, 0}";
},
{
name = top;
position = "{341, 701}";
},
{
name = topleft;
position = "{10, 700}";
}
);
annotations = (
{
position = "{-186, 798}";
text = "82";
type = Text;
},
{
position = "{224, -14}";
text = "This Serif!";
type = Text;
width = 83;
}
);
background = {
components = (
{
name = F;
transform = "{1, 0, 0, 1, 154, 0}";
}
);
};
guideLines = (
{
position = "{248, 273}";
}
);
layerId = "0B1F8F77-7348-4C28-A663-EA76351238C4";
paths = (
{
closed = 1;
nodes = (
"448 558 OFFCURVE",
"385 399 OFFCURVE",
"307 282 CURVE",
"358 214 LINE",
"398 307 OFFCURVE",
"537 560 OFFCURVE",
"563 589 CURVE SMOOTH",
"585 613 OFFCURVE",
"619 625 OFFCURVE",
"646 625 CURVE",
"646 680 LINE",
"415 680 LINE",
"408 625 LINE",
"470 616 LINE"
);
},
{
closed = 1;
nodes = (
"365 336 LINE",
"319 429 OFFCURVE",
"238 561 OFFCURVE",
"230 581 CURVE SMOOTH",
"221 603 OFFCURVE",
"229 625 OFFCURVE",
"270 625 CURVE",
"270 680 LINE",
"32 680 LINE",
"25 625 LINE",
"77 616 LINE",
"202 415 OFFCURVE",
"243 336 OFFCURVE",
"299 223 CURVE"
);
},
{
closed = 1;
nodes = (
"391 106 OFFCURVE",
"393 244 OFFCURVE",
"394 322 CURVE",
"275 306 LINE",
"271 197 OFFCURVE",
"262 110 OFFCURVE",
"269 95 CURVE SMOOTH",
"273 86 OFFCURVE",
"282 74 OFFCURVE",
"311 65 CURVE",
"204 55 LINE",
"201 0 LINE",
"476 0 LINE",
"482 55 LINE",
"421 65 LINE"
);
}
);
width = 660;
}
);
leftKerningGroup = V;
rightKerningGroup = V;
unicode = 0059;
},
{
color = 5;
glyphname = Z;
lastChange = "2016-11-22 13:36:40 +0000";
layers = (
{
anchors = (
{
name = bottom;
position = "{305, 0}";
},
{
name = top;
position = "{305, 700}";
}
);
background = {
components = (
{
name = S;
transform = "{1, 0, 0, -1, 91, 674}";
}
);
};
guideLines = (
{
angle = 90;
position = "{549, 270}";
}
);
layerId = "11343128-4963-4E5D-BE9C-B74F53B36FA5";
paths = (
{
closed = 1;
nodes = (
"386 678 OFFCURVE",
"230 682 OFFCURVE",
"63 682 CURVE",
"41 510 LINE",
"106 498 LINE",
"117 540 OFFCURVE",
"134 583 OFFCURVE",
"222 591 CURVE SMOOTH",
"265 595 OFFCURVE",
"317 598 OFFCURVE",
"372 598 CURVE",
"346 540 OFFCURVE",
"278 422 OFFCURVE",
"209 308 CURVE SMOOTH",
"128 173 OFFCURVE",
"53 71 OFFCURVE",
"26 60 CURVE",
"45 0 LINE",
"200 5 OFFCURVE",
"416 0 OFFCURVE",
"560 0 CURVE",
"574 162 LINE",
"515 172 LINE",
"486 108 LINE",
"418 95 OFFCURVE",
"350 89 OFFCURVE",
"238 89 CURVE",
"271 153 OFFCURVE",
"317 227 OFFCURVE",
"390 360 CURVE SMOOTH",
"456 480 OFFCURVE",
"531 606 OFFCURVE",
"564 623 CURVE",
"546 683 LINE"
);
}
);
width = 595;
},
{
anchors = (
{
name = bottom;
position = "{295, 0}";
},
{
name = top;
position = "{295, 700}";
}
);
background = {
components = (
{
name = S;
transform = "{1, 0, 0, -1, 81, 674}";
}
);
};
guideLines = (
{
angle = 90;
position = "{539, 270}";
}
);
layerId = "0B1F8F77-7348-4C28-A663-EA76351238C4";
paths = (
{
closed = 1;
nodes = (
"366 678 OFFCURVE",
"230 682 OFFCURVE",
"63 682 CURVE",
"41 520 LINE",
"106 508 LINE",
"117 550 OFFCURVE",
"134 593 OFFCURVE",
"212 601 CURVE SMOOTH",
"255 605 OFFCURVE",
"321 608 OFFCURVE",
"376 608 CURVE",
"350 550 OFFCURVE",
"278 422 OFFCURVE",
"209 308 CURVE SMOOTH",
"128 173 OFFCURVE",
"53 71 OFFCURVE",
"26 60 CURVE",
"45 0 LINE",
"200 5 OFFCURVE",
"396 0 OFFCURVE",
"540 0 CURVE",
"554 152 LINE",
"495 162 LINE",
"466 98 LINE",
"398 85 OFFCURVE",
"326 79 OFFCURVE",
"214 79 CURVE",
"247 143 OFFCURVE",
"297 227 OFFCURVE",
"370 360 CURVE SMOOTH",
"436 480 OFFCURVE",
"511 606 OFFCURVE",
"544 623 CURVE",
"526 683 LINE"
);
}
);
width = 575;
}
);
leftKerningGroup = X;
rightKerningGroup = X;
unicode = 005A;
},
{
glyphname = Z.ss01;
lastChange = "2016-11-22 13:36:40 +0000";
layers = (
{
layerId = "11343128-4963-4E5D-BE9C-B74F53B36FA5";
paths = (
{
closed = 1;
nodes = (
"372 676 OFFCURVE",
"237 681 OFFCURVE",
"70 681 CURVE",
"43 496 LINE",
"109 485 LINE",
"120 530 OFFCURVE",
"138 547 OFFCURVE",
"236 553 CURVE SMOOTH",
"286 556 OFFCURVE",
"323 556 OFFCURVE",
"367 558 CURVE",
"344 500 OFFCURVE",
"325 468 OFFCURVE",
"251 334 CURVE",
"148 156 OFFCURVE",
"100 112 OFFCURVE",
"65 80 CURVE SMOOTH",
"49 65 OFFCURVE",
"36 55 OFFCURVE",
"26 50 CURVE",
"41 0 LINE",
"196 7 OFFCURVE",
"386 0 OFFCURVE",
"530 0 CURVE",
"555 181 LINE",
"492 189 LINE",
"465 127 LINE",
"397 121 OFFCURVE",
"282 117 OFFCURVE",
"215 117 CURVE",
"248 181 OFFCURVE",
"264 194 OFFCURVE",
"345 332 CURVE SMOOTH",
"426 470 OFFCURVE",
"483 574 OFFCURVE",
"505 600 CURVE SMOOTH",
"515 613 OFFCURVE",
"535 629 OFFCURVE",
"545 634 CURVE",
"527 681 LINE"
);
}
);
width = 576;
},
{
layerId = "0B1F8F77-7348-4C28-A663-EA76351238C4";
paths = (
{
closed = 1;
nodes = (
"372 676 OFFCURVE",
"237 681 OFFCURVE",
"70 681 CURVE",
"43 496 LINE",
"109 485 LINE",
"120 530 OFFCURVE",
"138 547 OFFCURVE",
"236 553 CURVE SMOOTH",
"286 556 OFFCURVE",
"323 556 OFFCURVE",
"367 558 CURVE",
"344 500 OFFCURVE",
"325 468 OFFCURVE",
"251 334 CURVE",
"148 156 OFFCURVE",
"100 112 OFFCURVE",
"65 80 CURVE SMOOTH",
"49 65 OFFCURVE",
"36 55 OFFCURVE",
"26 50 CURVE",
"41 0 LINE",
"196 7 OFFCURVE",
"386 0 OFFCURVE",
"530 0 CURVE",
"555 181 LINE",
"492 189 LINE",
"465 127 LINE",
"397 121 OFFCURVE",
"282 117 OFFCURVE",
"215 117 CURVE",
"248 181 OFFCURVE",
"264 194 OFFCURVE",
"345 332 CURVE SMOOTH",
"426 470 OFFCURVE",
"483 574 OFFCURVE",
"505 600 CURVE SMOOTH",
"515 613 OFFCURVE",
"535 629 OFFCURVE",
"545 634 CURVE",
"527 681 LINE"
);
}
);
width = 576;
}
);
leftKerningGroup = X;
leftMetricsKey = Z;
rightKerningGroup = X;
rightMetricsKey = Z;
},
{
color = 1;
glyphname = a;
lastChange = "2016-11-22 13:42:55 +0000";
layers = (
{
anchors = (
{
name = bottom;
position = "{231, 0}";
},
{
name = ogonek;
position = "{419, 10}";
},
{
name = top;
position = "{229, 480}";
}
);
background = {
components = (
{
name = n;
transform = "{-1, 0, 0, -1, 539, 480}";
}
);
};
guideLines = (
{
angle = 90;
position = "{38, 179}";
},
{
position = "{142, 21}";
},
{
position = "{160, 71}";
}
);
layerId = "11343128-4963-4E5D-BE9C-B74F53B36FA5";
paths = (
{
closed = 1;
nodes = (
"64 301 LINE",
"82 302 OFFCURVE",
"127 311 OFFCURVE",
"147 318 CURVE",
"154 370 LINE",
"165 377 OFFCURVE",
"211 391 OFFCURVE",
"236 391 CURVE",
"259 376 OFFCURVE",
"263 320 OFFCURVE",
"263 252 CURVE SMOOTH",
"263 68 OFFCURVE",
"253 51 OFFCURVE",
"282 0 CURVE",
"358 -16 OFFCURVE",
"436 8 OFFCURVE",
"456 21 CURVE",
"448 82 LINE",
"400 82 LINE",
"394 142 OFFCURVE",
"396 289 OFFCURVE",
"397 361 CURVE SMOOTH",
"398 430 OFFCURVE",
"338 484 OFFCURVE",
"249 485 CURVE SMOOTH",
"141 486 OFFCURVE",
"84 461 OFFCURVE",
"53 445 CURVE"
);
},
{
closed = 1;
nodes = (
"272 122 OFFCURVE",
"232 104 OFFCURVE",
"202 100 CURVE",
"178 118 OFFCURVE",
"174 159 OFFCURVE",
"182 188 CURVE",
"206 200 OFFCURVE",
"239 207 OFFCURVE",
"298 220 CURVE",
"299 290 LINE",
"202 265 OFFCURVE",
"174 259 OFFCURVE",
"132 249 CURVE SMOOTH",
"-58 204 OFFCURVE",
"41 -6 OFFCURVE",
"131 -8 CURVE",
"176 4 OFFCURVE",
"265 46 OFFCURVE",
"317 93 CURVE",
"301 139 LINE"
);
}
);
width = 472;
},
{
anchors = (
{
name = bottom;
position = "{233, 0}";
},
{
name = ogonek;
position = "{421, 10}";
},
{
name = top;
position = "{231, 480}";
}
);
background = {
components = (
{
name = n;
transform = "{-1, 0, 0, -1, 541, 480}";
}
);
};
guideLines = (
{
angle = 90;
position = "{40, 179}";
},
{
position = "{144, 21}";
},
{
position = "{162, 71}";
}
);
layerId = "0B1F8F77-7348-4C28-A663-EA76351238C4";
paths = (
{
closed = 1;
nodes = (
"68 319 LINE",
"86 320 OFFCURVE",
"114 327 OFFCURVE",
"134 334 CURVE",
"141 384 LINE",
"152 391 OFFCURVE",
"235 415 OFFCURVE",
"260 415 CURVE",
"283 400 OFFCURVE",
"287 320 OFFCURVE",
"287 252 CURVE SMOOTH",
"287 68 OFFCURVE",
"275 51 OFFCURVE",
"304 0 CURVE",
"380 -16 OFFCURVE",
"425 8 OFFCURVE",
"445 21 CURVE",
"437 71 LINE",
"386 71 LINE",
"380 131 OFFCURVE",
"382 289 OFFCURVE",
"383 361 CURVE SMOOTH",
"384 437 OFFCURVE",
"340 491 OFFCURVE",
"251 492 CURVE SMOOTH",
"145 493 OFFCURVE",
"88 468 OFFCURVE",
"57 452 CURVE"
);
},
{
closed = 1;
nodes = (
"276 117 OFFCURVE",
"194 88 OFFCURVE",
"164 84 CURVE",
"140 102 OFFCURVE",
"136 153 OFFCURVE",
"144 182 CURVE",
"168 194 OFFCURVE",
"223 206 OFFCURVE",
"302 225 CURVE",
"303 290 LINE",
"206 265 OFFCURVE",
"176 260 OFFCURVE",
"134 250 CURVE SMOOTH",
"-56 205 OFFCURVE",
"42 -5 OFFCURVE",
"132 -7 CURVE",
"177 5 OFFCURVE",
"269 46 OFFCURVE",
"321 93 CURVE",
"305 134 LINE"
);
}
);
width = 475;
}
);
leftKerningGroup = o;
leftMetricsKey = o;
rightKerningGroup = i;
unicode = 0061;
},
{
glyphname = ae;
lastChange = "2016-11-22 13:36:40 +0000";
layers = (
{
anchors = (
{
name = bottom;
position = "{667, 0}";
},
{
name = ogonek;
position = "{844, 10}";
},
{
name = top;
position = "{667, 480}";
}
);
background = {
components = (
{
name = e;
transform = "{1, 0, 0, 1, -1, 0}";
}
);
};
components = (
{
alignment = -1;
name = e;
transform = "{1, 0, 0, 1, 251, 0}";
}
);
layerId = "11343128-4963-4E5D-BE9C-B74F53B36FA5";
paths = (
{
closed = 1;
nodes = (
"64 309 LINE",
"82 310 OFFCURVE",
"110 317 OFFCURVE",
"130 324 CURVE",
"137 374 LINE",
"148 381 OFFCURVE",
"230 405 OFFCURVE",
"255 405 CURVE",
"279 390 OFFCURVE",
"279 320 OFFCURVE",
"277 252 CURVE SMOOTH",
"271 68 OFFCURVE",
"334 110 OFFCURVE",
"363 59 CURVE",
"439 43 OFFCURVE",
"435 8 OFFCURVE",
"455 21 CURVE",
"447 71 LINE",
"399 71 LINE",
"393 131 OFFCURVE",
"372 270 OFFCURVE",
"373 342 CURVE SMOOTH",
"374 418 OFFCURVE",
"338 489 OFFCURVE",
"248 490 CURVE SMOOTH",
"164 491 OFFCURVE",
"84 468 OFFCURVE",
"53 452 CURVE"
);
},
{
closed = 1;
nodes = (
"271 117 OFFCURVE",
"211 93 OFFCURVE",
"181 89 CURVE",
"157 107 OFFCURVE",
"154 158 OFFCURVE",
"162 187 CURVE",
"186 199 OFFCURVE",
"219 206 OFFCURVE",
"298 225 CURVE",
"299 290 LINE",
"202 265 OFFCURVE",
"174 259 OFFCURVE",
"132 249 CURVE SMOOTH",
"-58 204 OFFCURVE",
"40 -6 OFFCURVE",
"130 -8 CURVE",
"175 4 OFFCURVE",
"264 46 OFFCURVE",
"316 93 CURVE",
"300 134 LINE"
);
}
);
width = 693;
},
{
anchors = (
{
name = bottom;
position = "{667, 0}";
},
{
name = ogonek;
position = "{844, 10}";
},
{
name = top;
position = "{667, 480}";
}
);
background = {
components = (
{
name = e;
transform = "{1, 0, 0, 1, -1, 0}";
}
);
};
components = (
{
alignment = -1;
name = e;
transform = "{1, 0, 0, 1, 251, 0}";
}
);
layerId = "0B1F8F77-7348-4C28-A663-EA76351238C4";
paths = (
{
closed = 1;
nodes = (
"64 309 LINE",
"82 310 OFFCURVE",
"110 317 OFFCURVE",
"130 324 CURVE",
"137 374 LINE",
"148 381 OFFCURVE",
"230 405 OFFCURVE",
"255 405 CURVE",
"279 390 OFFCURVE",
"279 320 OFFCURVE",
"277 252 CURVE SMOOTH",
"271 68 OFFCURVE",
"334 110 OFFCURVE",
"363 59 CURVE",
"439 43 OFFCURVE",
"435 8 OFFCURVE",
"455 21 CURVE",
"447 71 LINE",
"399 71 LINE",
"393 131 OFFCURVE",
"372 270 OFFCURVE",
"373 342 CURVE SMOOTH",
"374 418 OFFCURVE",
"338 489 OFFCURVE",
"248 490 CURVE SMOOTH",
"164 491 OFFCURVE",
"84 468 OFFCURVE",
"53 452 CURVE"
);
},
{
closed = 1;
nodes = (
"271 117 OFFCURVE",
"211 93 OFFCURVE",
"181 89 CURVE",
"157 107 OFFCURVE",
"154 158 OFFCURVE",
"162 187 CURVE",
"186 199 OFFCURVE",
"219 206 OFFCURVE",
"298 225 CURVE",
"299 290 LINE",
"202 265 OFFCURVE",
"174 259 OFFCURVE",
"132 249 CURVE SMOOTH",
"-58 204 OFFCURVE",
"40 -6 OFFCURVE",
"130 -8 CURVE",
"175 4 OFFCURVE",
"264 46 OFFCURVE",
"316 93 CURVE",
"300 134 LINE"
);
}
);
width = 693;
}
);
leftKerningGroup = o;
leftMetricsKey = a;
rightKerningGroup = o;
rightMetricsKey = e;
unicode = 00E6;
},
{
color = 5;
glyphname = b;
lastChange = "2016-11-22 13:36:40 +0000";
layers = (
{
anchors = (
{
name = bottom;
position = "{259, 0}";
},
{
name = top;
position = "{259, 480}";
}
);
background = {
components = (
{
name = h;
transform = "{1, 0, 0, 1, 10, 0}";
}
);
};
layerId = "11343128-4963-4E5D-BE9C-B74F53B36FA5";
paths = (
{
closed = 1;
nodes = (
"205 81 OFFCURVE",
"209 182 OFFCURVE",
"209 329 CURVE SMOOTH",
"209 491 OFFCURVE",
"216 709 OFFCURVE",
"206 740 CURVE",
"187 745 OFFCURVE",
"91 749 OFFCURVE",
"1 716 CURVE",
"10 655 LINE",
"55 655 LINE",
"89 574 OFFCURVE",
"65 59 OFFCURVE",
"64 37 CURVE",
"68 30 OFFCURVE",
"134 29 OFFCURVE",
"155 27 CURVE",
"160 40 OFFCURVE",
"173 51 OFFCURVE",
"191 84 CURVE",
"201 89 OFFCURVE",
"202 62 OFFCURVE",
"215 40 CURVE"
);
},
{
closed = 1;
nodes = (
"410 454 OFFCURVE",
"368 483 OFFCURVE",
"309 483 CURVE",
"274 474 OFFCURVE",
"202 438 OFFCURVE",
"159 413 CURVE",
"117 293 OFFCURVE",
"73 82 OFFCURVE",
"64 37 CURVE",
"105 2 OFFCURVE",
"238 -13 OFFCURVE",
"303 -2 CURVE SMOOTH",
"520 34 OFFCURVE",
"535 334 OFFCURVE",
"430 435 CURVE SMOOTH"
);
},
{
closed = 1;
nodes = (
"230 78 OFFCURVE",
"164 85 OFFCURVE",
"142 134 CURVE SMOOTH",
"118 188 OFFCURVE",
"173 298 OFFCURVE",
"189 352 CURVE",
"200 359 OFFCURVE",
"222 371 OFFCURVE",
"273 383 CURVE",
"288 378 OFFCURVE",
"303 372 OFFCURVE",
"318 342 CURVE SMOOTH",
"360 258 OFFCURVE",
"348 124 OFFCURVE",
"273 78 CURVE"
);
}
);
width = 516;
},
{
anchors = (
{
name = bottom;
position = "{249, 0}";
},
{
name = top;
position = "{249, 480}";
}
);
background = {
components = (
{
name = h;
}
);
};
layerId = "0B1F8F77-7348-4C28-A663-EA76351238C4";
paths = (
{
closed = 1;
nodes = (
"175 81 OFFCURVE",
"179 182 OFFCURVE",
"179 329 CURVE SMOOTH",
"179 491 OFFCURVE",
"186 709 OFFCURVE",
"176 740 CURVE",
"157 745 OFFCURVE",
"101 749 OFFCURVE",
"11 716 CURVE",
"20 665 LINE",
"65 665 LINE",
"99 584 OFFCURVE",
"75 59 OFFCURVE",
"74 37 CURVE",
"78 30 OFFCURVE",
"124 29 OFFCURVE",
"145 27 CURVE",
"150 40 OFFCURVE",
"143 51 OFFCURVE",
"161 84 CURVE",
"171 89 OFFCURVE",
"172 62 OFFCURVE",
"185 40 CURVE"
);
},
{
closed = 1;
nodes = (
"390 454 OFFCURVE",
"358 483 OFFCURVE",
"299 483 CURVE",
"264 474 OFFCURVE",
"182 438 OFFCURVE",
"149 413 CURVE",
"107 293 OFFCURVE",
"83 82 OFFCURVE",
"74 37 CURVE",
"115 2 OFFCURVE",
"218 -15 OFFCURVE",
"283 -2 CURVE SMOOTH",
"491 39 OFFCURVE",
"515 334 OFFCURVE",
"410 435 CURVE SMOOTH"
);
},
{
closed = 1;
nodes = (
"249 64 OFFCURVE",
"193 75 OFFCURVE",
"171 124 CURVE SMOOTH",
"147 178 OFFCURVE",
"153 313 OFFCURVE",
"169 367 CURVE",
"180 374 OFFCURVE",
"247 398 OFFCURVE",
"298 398 CURVE",
"313 393 OFFCURVE",
"328 372 OFFCURVE",
"343 342 CURVE SMOOTH",
"385 258 OFFCURVE",
"367 110 OFFCURVE",
"292 64 CURVE"
);
}
);
width = 496;
}
);
leftKerningGroup = l;
leftMetricsKey = "=l-5";
rightKerningGroup = o;
rightMetricsKey = o;
unicode = 0062;
},
{
color = 1;
glyphname = c;
lastChange = "2016-11-22 13:42:55 +0000";
layers = (
{
anchors = (
{
name = bottom;
position = "{205, 0}";
},
{
name = top;
position = "{223, 480}";
}
);
background = {
components = (
{
name = e;
}
);
};
guideLines = (
{
position = "{145, 38}";
},
{
position = "{163, 88}";
}
);
layerId = "11343128-4963-4E5D-BE9C-B74F53B36FA5";
paths = (
{
closed = 1;
nodes = (
"239 381 OFFCURVE",
"273 379 OFFCURVE",
"293 373 CURVE",
"296 358 OFFCURVE",
"301 316 OFFCURVE",
"304 310 CURVE",
"318 309 OFFCURVE",
"357 314 OFFCURVE",
"388 325 CURVE",
"389 346 OFFCURVE",
"392 416 OFFCURVE",
"392 447 CURVE",
"363 470 OFFCURVE",
"272 504 OFFCURVE",
"182 473 CURVE SMOOTH",
"-2 410 OFFCURVE",
"-20 133 OFFCURVE",
"95 35 CURVE SMOOTH",
"149 -11 OFFCURVE",
"279 -36 OFFCURVE",
"401 38 CURVE",
"384 98 LINE",
"275 64 OFFCURVE",
"223 84 OFFCURVE",
"191 154 CURVE SMOOTH",
"151 242 OFFCURVE",
"172 326 OFFCURVE",
"221 383 CURVE"
);
}
);
width = 411;
},
{
anchors = (
{
name = bottom;
position = "{205, 0}";
},
{
name = top;
position = "{223, 480}";
}
);
background = {
components = (
{
name = e;
}
);
};
guideLines = (
{
position = "{145, 38}";
},
{
position = "{163, 88}";
}
);
layerId = "0B1F8F77-7348-4C28-A663-EA76351238C4";
paths = (
{
closed = 1;
nodes = (
"222 418 OFFCURVE",
"281 405 OFFCURVE",
"308 384 CURVE",
"311 369 OFFCURVE",
"316 317 OFFCURVE",
"319 311 CURVE",
"333 310 OFFCURVE",
"357 315 OFFCURVE",
"388 326 CURVE",
"389 347 OFFCURVE",
"392 421 OFFCURVE",
"392 447 CURVE",
"363 470 OFFCURVE",
"272 504 OFFCURVE",
"182 473 CURVE SMOOTH",
"-2 410 OFFCURVE",
"-17 134 OFFCURVE",
"98 36 CURVE SMOOTH",
"152 -10 OFFCURVE",
"279 -36 OFFCURVE",
"401 38 CURVE",
"384 85 LINE",
"275 51 OFFCURVE",
"186 73 OFFCURVE",
"154 143 CURVE SMOOTH",
"114 231 OFFCURVE",
"137 380 OFFCURVE",
"204 418 CURVE"
);
}
);
width = 445;
}
);
leftKerningGroup = o;
leftMetricsKey = o;
rightKerningGroup = z;
unicode = 0063;
},
{
color = 1;
glyphname = d;
lastChange = "2016-11-22 13:42:55 +0000";
layers = (
{
anchors = (
{
name = bottom;
position = "{260, 0}";
},
{
name = center;
position = "{103, 240}";
},
{
name = top;
position = "{260, 480}";
},
{
name = topright;
position = "{496, 480}";
}
);
background = {
components = (
{
name = o;
}
);
};
guideLines = (
{
position = "{148, 21}";
},
{
position = "{166, 71}";
},
{
position = "{148, 407}";
},
{
position = "{166, 457}";
}
);
layerId = "11343128-4963-4E5D-BE9C-B74F53B36FA5";
paths = (
{
closed = 1;
nodes = (
"107 25 OFFCURVE",
"149 -5 OFFCURVE",
"208 -5 CURVE",
"243 4 OFFCURVE",
"309 40 OFFCURVE",
"342 72 CURVE",
"384 192 OFFCURVE",
"341 393 OFFCURVE",
"350 438 CURVE",
"324 466 OFFCURVE",
"278 490 OFFCURVE",
"213 483 CURVE",
"79 458 OFFCURVE",
"16 343 OFFCURVE",
"24 210 CURVE SMOOTH",
"28 145 OFFCURVE",
"50 80 OFFCURVE",
"87 44 CURVE SMOOTH"
);
},
{
closed = 1;
nodes = (
"281 398 OFFCURVE",
"309 379 OFFCURVE",
"324 330 CURVE SMOOTH",
"341 276 OFFCURVE",
"343 188 OFFCURVE",
"327 134 CURVE",
"316 127 OFFCURVE",
"290 104 OFFCURVE",
"239 99 CURVE",
"224 104 OFFCURVE",
"208 119 OFFCURVE",
"193 149 CURVE SMOOTH",
"151 233 OFFCURVE",
"163 352 OFFCURVE",
"238 398 CURVE"
);
},
{
closed = 1;
nodes = (
"457 81 LINE",
"451 131 OFFCURVE",
"451 178 OFFCURVE",
"451 374 CURVE SMOOTH",
"451 531 OFFCURVE",
"454 711 OFFCURVE",
"445 740 CURVE",
"425 746 OFFCURVE",
"341 750 OFFCURVE",
"251 716 CURVE",
"260 655 LINE",
"309 655 LINE",
"319 527 OFFCURVE",
"313 351 OFFCURVE",
"313 157 CURVE SMOOTH",
"313 60 OFFCURVE",
"326 20 OFFCURVE",
"342 2 CURVE",
"414 -16 OFFCURVE",
"501 8 OFFCURVE",
"520 21 CURVE",
"511 81 LINE"
);
}
);
width = 516;
},
{
anchors = (
{
name = bottom;
position = "{253, 0}";
},
{
name = center;
position = "{96, 240}";
},
{
name = top;
position = "{253, 480}";
},
{
name = topright;
position = "{489, 480}";
}
);
background = {
components = (
{
name = p;
transform = "{-1, 0, 0, -1, 506, 480}";
}
);
};
guideLines = (
{
position = "{141, 21}";
},
{
position = "{159, 71}";
},
{
position = "{141, 407}";
},
{
position = "{159, 457}";
}
);
layerId = "0B1F8F77-7348-4C28-A663-EA76351238C4";
paths = (
{
closed = 1;
nodes = (
"109 21 OFFCURVE",
"142 -5 OFFCURVE",
"201 -5 CURVE",
"236 4 OFFCURVE",
"312 50 OFFCURVE",
"345 82 CURVE",
"387 202 OFFCURVE",
"344 393 OFFCURVE",
"353 438 CURVE",
"327 466 OFFCURVE",
"271 490 OFFCURVE",
"206 483 CURVE",
"72 458 OFFCURVE",
"18 342 OFFCURVE",
"26 209 CURVE SMOOTH",
"30 144 OFFCURVE",
"52 76 OFFCURVE",
"89 40 CURVE SMOOTH"
);
},
{
closed = 1;
nodes = (
"244 418 OFFCURVE",
"321 395 OFFCURVE",
"336 346 CURVE SMOOTH",
"353 292 OFFCURVE",
"346 178 OFFCURVE",
"330 124 CURVE",
"319 117 OFFCURVE",
"253 84 OFFCURVE",
"202 79 CURVE",
"187 84 OFFCURVE",
"165 109 OFFCURVE",
"150 139 CURVE SMOOTH",
"108 223 OFFCURVE",
"126 372 OFFCURVE",
"201 418 CURVE"
);
},
{
closed = 1;
nodes = (
"430 71 LINE",
"424 121 OFFCURVE",
"424 178 OFFCURVE",
"424 374 CURVE SMOOTH",
"424 531 OFFCURVE",
"427 711 OFFCURVE",
"418 740 CURVE",
"398 746 OFFCURVE",
"341 750 OFFCURVE",
"251 716 CURVE",
"260 665 LINE",
"319 665 LINE",
"329 537 OFFCURVE",
"326 351 OFFCURVE",
"326 157 CURVE SMOOTH",
"326 60 OFFCURVE",
"339 20 OFFCURVE",
"355 2 CURVE",
"407 -16 OFFCURVE",
"474 8 OFFCURVE",
"493 21 CURVE",
"484 71 LINE"
);
}
);
width = 521;
}
);
leftKerningGroup = o;
leftMetricsKey = o;
rightKerningGroup = i;
unicode = 0064;
},
{
glyphname = eth;
lastChange = "2016-11-22 13:36:40 +0000";
layers = (
{
components = (
{
name = d;
}
);
layerId = "11343128-4963-4E5D-BE9C-B74F53B36FA5";
paths = (
{
closed = 1;
nodes = (
"228 538 LINE",
"322 540 OFFCURVE",
"417 540 OFFCURVE",
"511 538 CURVE",
"511 598 LINE",
"416 596 OFFCURVE",
"325 596 OFFCURVE",
"230 598 CURVE"
);
}
);
width = 517;
},
{
components = (
{
name = d;
}
);
layerId = "0B1F8F77-7348-4C28-A663-EA76351238C4";
paths = (
{
closed = 1;
nodes = (
"228 538 LINE",
"322 540 OFFCURVE",
"417 540 OFFCURVE",
"511 538 CURVE",
"511 598 LINE",
"416 596 OFFCURVE",
"325 596 OFFCURVE",
"230 598 CURVE"
);
}
);
width = 517;
}
);
leftKerningGroup = o;
leftMetricsKey = o;
rightKerningGroup = i;
rightMetricsKey = "=d";
unicode = 00F0;
},
{
color = 5;
glyphname = e;
lastChange = "2016-11-22 13:36:40 +0000";
layers = (
{
anchors = (
{
name = bottom;
position = "{224, 0}";
},
{
name = ogonek;
position = "{401, 10}";
},
{
name = top;
position = "{236, 480}";
}
);
background = {
components = (
{
name = o;
}
);
};
layerId = "11343128-4963-4E5D-BE9C-B74F53B36FA5";
paths = (
{
closed = 1;
nodes = (
"147 232 OFFCURVE",
"171 375 OFFCURVE",
"215 409 CURVE",
"276 407 OFFCURVE",
"281 333 OFFCURVE",
"280 301 CURVE",
"254 297 OFFCURVE",
"187 294 OFFCURVE",
"126 297 CURVE",
"127 226 LINE",
"419 232 LINE",
"463 405 OFFCURVE",
"346 530 OFFCURVE",
"176 475 CURVE SMOOTH",
"-8 416 OFFCURVE",
"-17 128 OFFCURVE",
"101 31 CURVE SMOOTH",
"158 -16 OFFCURVE",
"296 -38 OFFCURVE",
"417 43 CURVE",
"400 107 LINE",
"287 57 OFFCURVE",
"221 75 OFFCURVE",
"188 145 CURVE SMOOTH"
);
}
);
width = 442;
},
{
anchors = (
{
name = bottom;
position = "{224, 0}";
},
{
name = ogonek;
position = "{401, 10}";
},
{
name = top;
position = "{236, 480}";
}
);
background = {
components = (
{
name = o;
}
);
};
layerId = "0B1F8F77-7348-4C28-A663-EA76351238C4";
paths = (
{
closed = 1;
nodes = (
"111 227 OFFCURVE",
"123 381 OFFCURVE",
"206 426 CURVE",
"273 424 OFFCURVE",
"324 370 OFFCURVE",
"321 299 CURVE",
"295 296 OFFCURVE",
"185 292 OFFCURVE",
"124 295 CURVE",
"124 236 LINE",
"410 242 LINE",
"449 393 OFFCURVE",
"345 530 OFFCURVE",
"175 475 CURVE SMOOTH",
"-11 415 OFFCURVE",
"-12 130 OFFCURVE",
"106 33 CURVE SMOOTH",
"163 -14 OFFCURVE",
"296 -38 OFFCURVE",
"417 43 CURVE",
"400 94 LINE",
"287 44 OFFCURVE",
"185 70 OFFCURVE",
"152 140 CURVE SMOOTH"
);
}
);
width = 438;
}
);
leftKerningGroup = o;
leftMetricsKey = o;
rightKerningGroup = o;
rightMetricsKey = "=o-5";
unicode = 0065;
},
{
color = 5;
glyphname = f;
lastChange = "2016-11-22 13:36:40 +0000";
layers = (
{
anchors = (
{
name = bottom;
position = "{163, 0}";
},
{
name = top;
position = "{163, 480}";
}
);
background = {
components = (
{
name = t;
transform = "{1, 0, 0, 1, 4, 0}";
}
);
};
layerId = "11343128-4963-4E5D-BE9C-B74F53B36FA5";
paths = (
{
closed = 1;
nodes = (
"166 392 LINE",
"214 391 OFFCURVE",
"267 390 OFFCURVE",
"289 390 CURVE SMOOTH",
"300 390 OFFCURVE",
"299 406 OFFCURVE",
"301 469 CURVE",
"252 466 OFFCURVE",
"209 465 OFFCURVE",
"192 464 CURVE",
"85 563 LINE",
"75 482 LINE",
"74 461 OFFCURVE",
"66 459 OFFCURVE",
"36 457 CURVE SMOOTH",
"19 456 LINE",
"19 393 LINE",
"23 393 OFFCURVE",
"69 393 OFFCURVE",
"84 393 CURVE"
);
},
{
closed = 1;
nodes = (
"18 55 LINE",
"15 0 LINE",
"270 0 LINE",
"274 56 LINE",
"194 66 LINE",
"144 66 LINE"
);
},
{
closed = 1;
nodes = (
"191 127 OFFCURVE",
"191 193 OFFCURVE",
"191 408 CURVE",
"75 408 LINE",
"75 283 OFFCURVE",
"71 124 OFFCURVE",
"71 101 CURVE SMOOTH",
"71 73 OFFCURVE",
"111 59 OFFCURVE",
"132 57 CURVE SMOOTH",
"159 54 OFFCURVE",
"164 47 OFFCURVE",
"199 47 CURVE"
);
},
{
closed = 1;
nodes = (
"190 363 LINE",
"190 553 OFFCURVE",
"193 633 OFFCURVE",
"209 663 CURVE",
"231 660 OFFCURVE",
"280 648 OFFCURVE",
"319 610 CURVE",
"334 641 OFFCURVE",
"358 676 OFFCURVE",
"365 710 CURVE",
"343 729 OFFCURVE",
"254 756 OFFCURVE",
"198 740 CURVE SMOOTH",
"102 712 OFFCURVE",
"73 617 OFFCURVE",
"75 458 CURVE"
);
},
{
closed = 1;
nodes = (
"290 623 OFFCURVE",
"293 602 OFFCURVE",
"296 576 CURVE",
"304 576 OFFCURVE",
"345 582 OFFCURVE",
"357 588 CURVE",
"365 710 LINE",
"283 644 LINE"
);
}
);
width = 325;
},
{
anchors = (
{
name = bottom;
position = "{153, 0}";
},
{
name = top;
position = "{153, 480}";
}
);
background = {
components = (
{
name = t;
transform = "{1, 0, 0, 1, -6, 0}";
}
);
};
layerId = "0B1F8F77-7348-4C28-A663-EA76351238C4";
paths = (
{
closed = 1;
nodes = (
"156 392 LINE",
"194 391 OFFCURVE",
"247 390 OFFCURVE",
"269 390 CURVE SMOOTH",
"280 390 OFFCURVE",
"279 406 OFFCURVE",
"281 469 CURVE",
"232 466 OFFCURVE",
"189 465 OFFCURVE",
"172 464 CURVE",
"85 563 LINE",
"75 482 LINE",
"74 461 OFFCURVE",
"66 459 OFFCURVE",
"36 457 CURVE SMOOTH",
"19 456 LINE",
"19 393 LINE",
"23 393 OFFCURVE",
"69 393 OFFCURVE",
"84 393 CURVE"
);
},
{
closed = 1;
nodes = (
"18 55 LINE",
"15 0 LINE",
"250 0 LINE",
"254 56 LINE",
"174 66 LINE",
"134 66 LINE"
);
},
{
closed = 1;
nodes = (
"171 127 OFFCURVE",
"171 193 OFFCURVE",
"171 408 CURVE",
"75 408 LINE",
"75 283 OFFCURVE",
"71 124 OFFCURVE",
"71 101 CURVE SMOOTH",
"71 73 OFFCURVE",
"101 59 OFFCURVE",
"122 57 CURVE SMOOTH",
"149 54 OFFCURVE",
"144 47 OFFCURVE",
"179 47 CURVE"
);
},
{
closed = 1;
nodes = (
"170 363 LINE",
"170 553 OFFCURVE",
"173 643 OFFCURVE",
"189 673 CURVE",
"211 670 OFFCURVE",
"260 658 OFFCURVE",
"299 620 CURVE",
"314 651 OFFCURVE",
"338 686 OFFCURVE",
"345 710 CURVE",
"323 729 OFFCURVE",
"234 756 OFFCURVE",
"178 740 CURVE SMOOTH",
"82 713 OFFCURVE",
"73 617 OFFCURVE",
"75 458 CURVE"
);
},
{
closed = 1;
nodes = (
"270 633 OFFCURVE",
"273 612 OFFCURVE",
"276 586 CURVE",
"284 586 OFFCURVE",
"325 592 OFFCURVE",
"337 598 CURVE",
"345 710 LINE",
"263 654 LINE"
);
}
);
width = 290;
}
);
leftKerningGroup = f;
rightKerningGroup = f;
unicode = 0066;
},
{
glyphname = f.alt;
lastChange = "2016-11-22 13:36:40 +0000";
layers = (
{
anchors = (
{
name = bottom;
position = "{163, 0}";
},
{
name = top;
position = "{163, 480}";
}
);
background = {
components = (
{
name = s;
}
);
};
layerId = "11343128-4963-4E5D-BE9C-B74F53B36FA5";
paths = (
{
closed = 1;
nodes = (
"166 392 LINE",
"214 391 OFFCURVE",
"267 390 OFFCURVE",
"289 390 CURVE SMOOTH",
"300 390 OFFCURVE",
"299 406 OFFCURVE",
"301 469 CURVE",
"252 466 OFFCURVE",
"209 465 OFFCURVE",
"192 464 CURVE",
"85 563 LINE",
"75 482 LINE",
"74 461 OFFCURVE",
"66 459 OFFCURVE",
"36 457 CURVE SMOOTH",
"19 456 LINE",
"19 393 LINE",
"23 393 OFFCURVE",
"69 393 OFFCURVE",
"84 393 CURVE"
);
},
{
closed = 1;
nodes = (
"18 55 LINE",
"15 0 LINE",
"270 0 LINE",
"274 56 LINE",
"194 66 LINE",
"144 66 LINE"
);
},
{
closed = 1;
nodes = (
"191 127 OFFCURVE",
"191 193 OFFCURVE",
"191 408 CURVE",
"75 408 LINE",
"75 283 OFFCURVE",
"71 124 OFFCURVE",
"71 101 CURVE SMOOTH",
"71 73 OFFCURVE",
"111 59 OFFCURVE",
"132 57 CURVE SMOOTH",
"159 54 OFFCURVE",
"164 47 OFFCURVE",
"199 47 CURVE"
);
},
{
closed = 1;
nodes = (
"190 363 LINE",
"190 553 OFFCURVE",
"189 630 OFFCURVE",
"205 660 CURVE",
"227 660 OFFCURVE",
"245 660 OFFCURVE",
"285 660 CURVE",
"299 688 OFFCURVE",
"304 698 OFFCURVE",
"316 723 CURVE",
"296 749 OFFCURVE",
"232 757 OFFCURVE",
"186 736 CURVE SMOOTH",
"96 695 OFFCURVE",
"73 617 OFFCURVE",
"75 458 CURVE"
);
}
);
width = 325;
},
{
anchors = (
{
name = bottom;
position = "{163, 0}";
},
{
name = top;
position = "{163, 480}";
}
);
background = {
components = (
{
name = s;
}
);
};
layerId = "0B1F8F77-7348-4C28-A663-EA76351238C4";
paths = (
{
closed = 1;
nodes = (
"166 392 LINE",
"214 391 OFFCURVE",
"267 390 OFFCURVE",
"289 390 CURVE SMOOTH",
"300 390 OFFCURVE",
"299 406 OFFCURVE",
"301 469 CURVE",
"252 466 OFFCURVE",
"209 465 OFFCURVE",
"192 464 CURVE",
"85 563 LINE",
"75 482 LINE",
"74 461 OFFCURVE",
"66 459 OFFCURVE",
"36 457 CURVE SMOOTH",
"19 456 LINE",
"19 393 LINE",
"23 393 OFFCURVE",
"69 393 OFFCURVE",
"84 393 CURVE"
);
},
{
closed = 1;
nodes = (
"18 55 LINE",
"15 0 LINE",
"270 0 LINE",
"274 56 LINE",
"194 66 LINE",
"144 66 LINE"
);
},
{
closed = 1;
nodes = (
"191 127 OFFCURVE",
"191 193 OFFCURVE",
"191 408 CURVE",
"75 408 LINE",
"75 283 OFFCURVE",
"71 124 OFFCURVE",
"71 101 CURVE SMOOTH",
"71 73 OFFCURVE",
"111 59 OFFCURVE",
"132 57 CURVE SMOOTH",
"159 54 OFFCURVE",
"164 47 OFFCURVE",
"199 47 CURVE"
);
},
{
closed = 1;
nodes = (
"190 363 LINE",
"190 553 OFFCURVE",
"189 630 OFFCURVE",
"205 660 CURVE",
"227 660 OFFCURVE",
"245 660 OFFCURVE",
"285 660 CURVE",
"299 688 OFFCURVE",
"304 698 OFFCURVE",
"316 723 CURVE",
"296 749 OFFCURVE",
"232 757 OFFCURVE",
"186 736 CURVE SMOOTH",
"96 695 OFFCURVE",
"73 617 OFFCURVE",
"75 458 CURVE"
);
}
);
width = 325;
}
);
leftKerningGroup = f;
rightKerningGroup = f;
},
{
glyphname = f.alt2;
lastChange = "2016-11-22 13:36:40 +0000";
layers = (
{
anchors = (
{
name = bottom;
position = "{163, 0}";
},
{
name = top;
position = "{163, 480}";
}
);
background = {
components = (
{
name = s;
}
);
};
layerId = "11343128-4963-4E5D-BE9C-B74F53B36FA5";
paths = (
{
closed = 1;
nodes = (
"166 392 LINE",
"214 391 OFFCURVE",
"267 390 OFFCURVE",
"289 390 CURVE SMOOTH",
"300 390 OFFCURVE",
"299 406 OFFCURVE",
"301 469 CURVE",
"252 466 OFFCURVE",
"209 465 OFFCURVE",
"192 464 CURVE",
"85 563 LINE",
"75 482 LINE",
"74 461 OFFCURVE",
"66 459 OFFCURVE",
"36 457 CURVE SMOOTH",
"19 456 LINE",
"19 393 LINE",
"23 393 OFFCURVE",
"69 393 OFFCURVE",
"84 393 CURVE"
);
},
{
closed = 1;
nodes = (
"18 55 LINE",
"15 0 LINE",
"270 0 LINE",
"274 56 LINE",
"194 66 LINE",
"144 66 LINE"
);
},
{
closed = 1;
nodes = (
"191 127 OFFCURVE",
"191 193 OFFCURVE",
"191 408 CURVE",
"75 408 LINE",
"75 283 OFFCURVE",
"71 124 OFFCURVE",
"71 101 CURVE SMOOTH",
"71 73 OFFCURVE",
"111 59 OFFCURVE",
"132 57 CURVE SMOOTH",
"159 54 OFFCURVE",
"164 47 OFFCURVE",
"199 47 CURVE"
);
},
{
closed = 1;
nodes = (
"190 363 LINE",
"190 553 OFFCURVE",
"193 633 OFFCURVE",
"209 663 CURVE",
"231 660 OFFCURVE",
"280 648 OFFCURVE",
"319 610 CURVE",
"334 641 OFFCURVE",
"358 676 OFFCURVE",
"365 710 CURVE",
"343 729 OFFCURVE",
"254 756 OFFCURVE",
"198 740 CURVE SMOOTH",
"102 712 OFFCURVE",
"73 617 OFFCURVE",
"75 458 CURVE"
);
},
{
closed = 1;
nodes = (
"290 623 OFFCURVE",
"293 602 OFFCURVE",
"296 576 CURVE",
"304 576 OFFCURVE",
"345 582 OFFCURVE",
"357 588 CURVE",
"365 710 LINE",
"283 644 LINE"
);
}
);
width = 325;
},
{
anchors = (
{
name = bottom;
position = "{163, 0}";
},
{
name = top;
position = "{163, 480}";
}
);
background = {
components = (
{
name = s;
}
);
};
layerId = "0B1F8F77-7348-4C28-A663-EA76351238C4";
paths = (
{
closed = 1;
nodes = (
"166 392 LINE",
"214 391 OFFCURVE",
"267 390 OFFCURVE",
"289 390 CURVE SMOOTH",
"300 390 OFFCURVE",
"299 406 OFFCURVE",
"301 469 CURVE",
"252 466 OFFCURVE",
"209 465 OFFCURVE",
"192 464 CURVE",
"85 563 LINE",
"75 482 LINE",
"74 461 OFFCURVE",
"66 459 OFFCURVE",
"36 457 CURVE SMOOTH",
"19 456 LINE",
"19 393 LINE",
"23 393 OFFCURVE",
"69 393 OFFCURVE",
"84 393 CURVE"
);
},
{
closed = 1;
nodes = (
"18 55 LINE",
"15 0 LINE",
"270 0 LINE",
"274 56 LINE",
"194 66 LINE",
"144 66 LINE"
);
},
{
closed = 1;
nodes = (
"191 127 OFFCURVE",
"191 193 OFFCURVE",
"191 408 CURVE",
"75 408 LINE",
"75 283 OFFCURVE",
"71 124 OFFCURVE",
"71 101 CURVE SMOOTH",
"71 73 OFFCURVE",
"111 59 OFFCURVE",
"132 57 CURVE SMOOTH",
"159 54 OFFCURVE",
"164 47 OFFCURVE",
"199 47 CURVE"
);
},
{
closed = 1;
nodes = (
"190 363 LINE",
"190 553 OFFCURVE",
"193 633 OFFCURVE",
"209 663 CURVE",
"231 660 OFFCURVE",
"280 648 OFFCURVE",
"319 610 CURVE",
"334 641 OFFCURVE",
"358 676 OFFCURVE",
"365 710 CURVE",
"343 729 OFFCURVE",
"254 756 OFFCURVE",
"198 740 CURVE SMOOTH",
"102 712 OFFCURVE",
"73 617 OFFCURVE",
"75 458 CURVE"
);
},
{
closed = 1;
nodes = (
"290 623 OFFCURVE",
"293 602 OFFCURVE",
"296 576 CURVE",
"304 576 OFFCURVE",
"345 582 OFFCURVE",
"357 588 CURVE",
"365 710 LINE",
"283 644 LINE"
);
}
);
width = 325;
}
);
leftKerningGroup = f;
rightKerningGroup = f;
},
{
color = 1;
glyphname = g;
lastChange = "2016-11-22 13:42:55 +0000";
layers = (
{
anchors = (
{
name = bottom;
position = "{261, 0}";
},
{
name = top;
position = "{261, 480}";
}
);
background = {
paths = (
{
closed = 1;
nodes = (
"373 433 LINE",
"327 468 OFFCURVE",
"262 483 OFFCURVE",
"204 483 CURVE",
"35 433 OFFCURVE",
"4 170 OFFCURVE",
"119 40 CURVE SMOOTH",
"132 24 OFFCURVE",
"156 13 OFFCURVE",
"169 13 CURVE",
"155 -1 OFFCURVE",
"122 -34 OFFCURVE",
"100 -54 CURVE SMOOTH",
"81 -71 OFFCURVE",
"43 -95 OFFCURVE",
"23 -108 CURVE",
"30 -156 LINE",
"39 -166 OFFCURVE",
"50 -175 OFFCURVE",
"57 -180 CURVE SMOOTH",
"83 -200 OFFCURVE",
"166 -253 OFFCURVE",
"309 -253 CURVE",
"415 -222 OFFCURVE",
"457 -137 OFFCURVE",
"442 70 CURVE SMOOTH",
"438 134 OFFCURVE",
"439 240 OFFCURVE",
"452 352 CURVE SMOOTH",
"456 383 OFFCURVE",
"459 424 OFFCURVE",
"466 456 CURVE",
"418 479 LINE"
);
},
{
closed = 1;
nodes = (
"156 238 OFFCURVE",
"162 371 OFFCURVE",
"227 414 CURVE",
"263 414 OFFCURVE",
"309 380 OFFCURVE",
"336 349 CURVE",
"336 347 LINE",
"338 324 OFFCURVE",
"337 282 OFFCURVE",
"338 238 CURVE",
"323 210 OFFCURVE",
"260 122 OFFCURVE",
"244 106 CURVE",
"235 106 OFFCURVE",
"217 120 OFFCURVE",
"205 143 CURVE SMOOTH"
);
},
{
closed = 1;
nodes = (
"180 -58 OFFCURVE",
"241 -10 OFFCURVE",
"333 116 CURVE",
"340 -112 OFFCURVE",
"317 -163 OFFCURVE",
"303 -186 CURVE",
"276 -177 OFFCURVE",
"185 -137 OFFCURVE",
"149 -102 CURVE"
);
}
);
};
guideLines = (
{
angle = 90;
position = "{53, 121}";
}
);
layerId = "11343128-4963-4E5D-BE9C-B74F53B36FA5";
paths = (
{
closed = 1;
nodes = (
"361 472 OFFCURVE",
"302 498 OFFCURVE",
"217 485 CURVE SMOOTH",
"11 452 OFFCURVE",
"-3 237 OFFCURVE",
"104 168 CURVE SMOOTH",
"142 144 OFFCURVE",
"208 133 OFFCURVE",
"268 142 CURVE SMOOTH",
"464 171 OFFCURVE",
"487 380 OFFCURVE",
"388 452 CURVE SMOOTH"
);
},
{
closed = 1;
nodes = (
"223 213 OFFCURVE",
"192 253 OFFCURVE",
"182 298 CURVE SMOOTH",
"171 343 OFFCURVE",
"181 393 OFFCURVE",
"220 411 CURVE",
"263 410 OFFCURVE",
"294 373 OFFCURVE",
"306 330 CURVE SMOOTH",
"318 284 OFFCURVE",
"307 232 OFFCURVE",
"266 209 CURVE"
);
},
{
closed = 1;
nodes = (
"125 144 OFFCURVE",
"94 114 OFFCURVE",
"49 78 CURVE",
"56 9 LINE",
"114 -36 OFFCURVE",
"376 -31 OFFCURVE",
"385 -72 CURVE",
"385 -151 OFFCURVE",
"149 -134 OFFCURVE",
"117 -85 CURVE",
"134 -34 OFFCURVE",
"142 -10 OFFCURVE",
"156 13 CURVE",
"119 32 LINE",
"6 -97 LINE",
"-4 -164 OFFCURVE",
"50 -255 OFFCURVE",
"187 -255 CURVE SMOOTH",
"389 -255 OFFCURVE",
"486 -126 OFFCURVE",
"491 -28 CURVE SMOOTH",
"492 14 OFFCURVE",
"470 69 OFFCURVE",
"321 84 CURVE SMOOTH",
"267 89 OFFCURVE",
"195 91 OFFCURVE",
"188 109 CURVE SMOOTH",
"181 127 OFFCURVE",
"219 160 OFFCURVE",
"239 185 CURVE",
"176 211 LINE"
);
},
{
closed = 1;
nodes = (
"467 471 OFFCURVE",
"371 463 OFFCURVE",
"347 458 CURVE",
"370 400 LINE",
"415 397 OFFCURVE",
"451 390 OFFCURVE",
"500 384 CURVE",
"497 408 OFFCURVE",
"491 459 OFFCURVE",
"487 471 CURVE"
);
}
);
width = 505;
},
{
anchors = (
{
name = bottom;
position = "{268, 0}";
},
{
name = top;
position = "{268, 480}";
}
);
background = {
paths = (
{
closed = 1;
nodes = (
"380 433 LINE",
"334 468 OFFCURVE",
"269 483 OFFCURVE",
"211 483 CURVE",
"42 433 OFFCURVE",
"11 170 OFFCURVE",
"126 40 CURVE SMOOTH",
"139 24 OFFCURVE",
"163 13 OFFCURVE",
"176 13 CURVE",
"162 -1 OFFCURVE",
"129 -34 OFFCURVE",
"107 -54 CURVE SMOOTH",
"88 -71 OFFCURVE",
"50 -95 OFFCURVE",
"30 -108 CURVE",
"37 -156 LINE",
"46 -166 OFFCURVE",
"57 -175 OFFCURVE",
"64 -180 CURVE SMOOTH",
"90 -200 OFFCURVE",
"173 -253 OFFCURVE",
"316 -253 CURVE",
"422 -222 OFFCURVE",
"464 -137 OFFCURVE",
"449 70 CURVE SMOOTH",
"445 134 OFFCURVE",
"446 240 OFFCURVE",
"459 352 CURVE SMOOTH",
"463 383 OFFCURVE",
"466 424 OFFCURVE",
"473 456 CURVE",
"425 479 LINE"
);
},
{
closed = 1;
nodes = (
"163 238 OFFCURVE",
"169 371 OFFCURVE",
"234 414 CURVE",
"270 414 OFFCURVE",
"316 380 OFFCURVE",
"343 349 CURVE",
"343 347 LINE",
"345 324 OFFCURVE",
"344 282 OFFCURVE",
"345 238 CURVE",
"330 210 OFFCURVE",
"267 122 OFFCURVE",
"251 106 CURVE",
"242 106 OFFCURVE",
"224 120 OFFCURVE",
"212 143 CURVE SMOOTH"
);
},
{
closed = 1;
nodes = (
"187 -58 OFFCURVE",
"248 -10 OFFCURVE",
"340 116 CURVE",
"347 -112 OFFCURVE",
"324 -163 OFFCURVE",
"310 -186 CURVE",
"283 -177 OFFCURVE",
"192 -137 OFFCURVE",
"156 -102 CURVE"
);
}
);
};
guideLines = (
{
angle = 90;
position = "{60, 121}";
}
);
layerId = "0B1F8F77-7348-4C28-A663-EA76351238C4";
paths = (
{
closed = 1;
nodes = (
"363 472 OFFCURVE",
"309 499 OFFCURVE",
"224 485 CURVE SMOOTH",
"24 452 OFFCURVE",
"10 237 OFFCURVE",
"117 168 CURVE SMOOTH",
"154 144 OFFCURVE",
"215 133 OFFCURVE",
"275 142 CURVE SMOOTH",
"466 171 OFFCURVE",
"488 379 OFFCURVE",
"390 452 CURVE SMOOTH"
);
},
{
closed = 1;
nodes = (
"237 195 OFFCURVE",
"186 212 OFFCURVE",
"170 247 CURVE SMOOTH",
"141 311 OFFCURVE",
"164 400 OFFCURVE",
"227 427 CURVE",
"261 427 OFFCURVE",
"305 420 OFFCURVE",
"325 390 CURVE SMOOTH",
"364 330 OFFCURVE",
"344 228 OFFCURVE",
"273 195 CURVE"
);
},
{
closed = 1;
nodes = (
"143 140 OFFCURVE",
"107 105 OFFCURVE",
"62 78 CURVE",
"71 34 LINE",
"129 -11 OFFCURVE",
"394 -22 OFFCURVE",
"407 -63 CURVE",
"407 -199 OFFCURVE",
"152 -181 OFFCURVE",
"122 -107 CURVE",
"128 -56 OFFCURVE",
"162 15 OFFCURVE",
"176 38 CURVE",
"139 56 LINE",
"23 -97 LINE",
"13 -164 OFFCURVE",
"57 -255 OFFCURVE",
"194 -255 CURVE SMOOTH",
"396 -255 OFFCURVE",
"493 -136 OFFCURVE",
"496 -38 CURVE SMOOTH",
"497 2 OFFCURVE",
"476 55 OFFCURVE",
"327 72 CURVE SMOOTH",
"273 78 OFFCURVE",
"193 91 OFFCURVE",
"186 109 CURVE SMOOTH",
"179 127 OFFCURVE",
"217 160 OFFCURVE",
"237 185 CURVE",
"194 198 LINE"
);
},
{
closed = 1;
nodes = (
"469 471 OFFCURVE",
"373 463 OFFCURVE",
"349 458 CURVE",
"372 409 LINE",
"417 406 OFFCURVE",
"453 402 OFFCURVE",
"502 396 CURVE",
"499 420 OFFCURVE",
"493 459 OFFCURVE",
"489 471 CURVE"
);
}
);
width = 536;
}
);
leftKerningGroup = o;
rightKerningGroup = g;
unicode = 0067;
},
{
color = 5;
glyphname = h;
lastChange = "2016-11-22 13:36:40 +0000";
layers = (
{
anchors = (
{
name = bottom;
position = "{284, 0}";
},
{
name = center;
position = "{284, 240}";
},
{
name = top;
position = "{283, 751}";
}
);
background = {
components = (
{
alignment = -1;
name = n;
transform = "{1, 0, 0, 1, -4, -2}";
}
);
};
guideLines = (
{
position = "{265, 666}";
},
{
position = "{283, 716}";
},
{
position = "{160, 21}";
},
{
position = "{178, 71}";
}
);
layerId = "11343128-4963-4E5D-BE9C-B74F53B36FA5";
paths = (
{
closed = 1;
nodes = (
"198 336 LINE",
"257 373 OFFCURVE",
"294 380 OFFCURVE",
"326 382 CURVE",
"326 81 OFFCURVE",
"325 37 OFFCURVE",
"347 0 CURVE",
"420 -21 OFFCURVE",
"505 6 OFFCURVE",
"531 19 CURVE",
"524 80 LINE",
"472 80 LINE",
"472 150 OFFCURVE",
"474 309 OFFCURVE",
"474 382 CURVE SMOOTH",
"474 431 OFFCURVE",
"454 486 OFFCURVE",
"367 483 CURVE",
"296 466 OFFCURVE",
"207 416 OFFCURVE",
"198 391 CURVE"
);
},
{
closed = 1;
nodes = (
"219 173 OFFCURVE",
"219 167 OFFCURVE",
"219 347 CURVE SMOOTH",
"219 592 OFFCURVE",
"222 709 OFFCURVE",
"212 740 CURVE",
"193 745 OFFCURVE",
"96 749 OFFCURVE",
"6 716 CURVE",
"16 656 LINE",
"73 656 LINE",
"73 575 OFFCURVE",
"73 536 OFFCURVE",
"73 111 CURVE SMOOTH",
"73 83 OFFCURVE",
"126 69 OFFCURVE",
"147 67 CURVE SMOOTH",
"174 64 OFFCURVE",
"184 56 OFFCURVE",
"219 56 CURVE"
);
},
{
closed = 1;
nodes = (
"16 65 LINE",
"13 0 LINE",
"283 0 LINE",
"287 66 LINE",
"220 76 LINE",
"160 76 LINE"
);
}
);
width = 536;
},
{
anchors = (
{
name = bottom;
position = "{284, 0}";
},
{
name = center;
position = "{284, 240}";
},
{
name = top;
position = "{283, 751}";
}
);
background = {
components = (
{
alignment = -1;
name = n;
transform = "{1, 0, 0, 1, -4, -2}";
}
);
};
guideLines = (
{
position = "{265, 666}";
},
{
position = "{283, 716}";
},
{
position = "{160, 21}";
},
{
position = "{178, 71}";
}
);
layerId = "0B1F8F77-7348-4C28-A663-EA76351238C4";
paths = (
{
closed = 1;
nodes = (
"188 345 LINE",
"247 382 OFFCURVE",
"314 390 OFFCURVE",
"346 392 CURVE",
"346 81 OFFCURVE",
"342 37 OFFCURVE",
"368 0 CURVE",
"441 -21 OFFCURVE",
"490 6 OFFCURVE",
"516 19 CURVE",
"509 70 LINE",
"452 70 LINE",
"452 140 OFFCURVE",
"454 309 OFFCURVE",
"454 382 CURVE SMOOTH",
"454 431 OFFCURVE",
"449 486 OFFCURVE",
"367 483 CURVE",
"296 462 OFFCURVE",
"197 415 OFFCURVE",
"188 390 CURVE"
);
},
{
closed = 1;
nodes = (
"199 163 OFFCURVE",
"199 157 OFFCURVE",
"199 347 CURVE SMOOTH",
"199 592 OFFCURVE",
"202 709 OFFCURVE",
"192 740 CURVE",
"173 745 OFFCURVE",
"116 749 OFFCURVE",
"26 716 CURVE",
"36 666 LINE",
"93 666 LINE",
"93 585 OFFCURVE",
"93 526 OFFCURVE",
"93 101 CURVE SMOOTH",
"93 73 OFFCURVE",
"136 60 OFFCURVE",
"147 57 CURVE SMOOTH",
"164 52 OFFCURVE",
"164 46 OFFCURVE",
"199 46 CURVE"
);
},
{
closed = 1;
nodes = (
"36 55 LINE",
"33 0 LINE",
"263 0 LINE",
"267 56 LINE",
"200 66 LINE",
"150 66 LINE"
);
}
);
width = 536;
}
);
leftKerningGroup = l;
leftMetricsKey = n;
rightKerningGroup = i;
rightMetricsKey = n;
unicode = 0068;
},
{
color = 1;
glyphname = idotless;
lastChange = "2016-11-22 13:42:55 +0000";
layers = (
{
anchors = (
{
name = bottom;
position = "{139, 0}";
},
{
name = ogonek;
position = "{250, 10}";
},
{
name = top;
position = "{135, 480}";
}
);
background = {
components = (
{
name = n;
}
);
};
guideLines = (
{
position = "{146, 407}";
},
{
position = "{164, 457}";
}
);
layerId = "11343128-4963-4E5D-BE9C-B74F53B36FA5";
paths = (
{
closed = 1;
nodes = (
"21 65 LINE",
"18 0 LINE",
"272 0 LINE",
"275 66 LINE",
"213 76 LINE",
"153 76 LINE"
);
},
{
closed = 1;
nodes = (
"213 73 OFFCURVE",
"208 147 OFFCURVE",
"208 289 CURVE SMOOTH",
"208 361 OFFCURVE",
"209 447 OFFCURVE",
"203 478 CURVE",
"131 486 OFFCURVE",
"57 478 OFFCURVE",
"14 457 CURVE",
"24 398 LINE",
"73 398 LINE",
"79 338 OFFCURVE",
"76 165 OFFCURVE",
"76 111 CURVE SMOOTH",
"76 83 OFFCURVE",
"118 69 OFFCURVE",
"139 67 CURVE SMOOTH",
"166 64 OFFCURVE",
"189 50 OFFCURVE",
"224 50 CURVE"
);
}
);
width = 289;
},
{
anchors = (
{
name = bottom;
position = "{154, 0}";
},
{
name = ogonek;
position = "{265, 10}";
},
{
name = top;
position = "{150, 480}";
}
);
background = {
components = (
{
name = n;
transform = "{1, 0, 0, 1, 15, 0}";
}
);
};
guideLines = (
{
position = "{161, 407}";
},
{
position = "{179, 457}";
}
);
layerId = "0B1F8F77-7348-4C28-A663-EA76351238C4";
paths = (
{
closed = 1;
nodes = (
"48 55 LINE",
"45 0 LINE",
"267 0 LINE",
"270 56 LINE",
"208 66 LINE",
"158 66 LINE"
);
},
{
closed = 1;
nodes = (
"208 63 OFFCURVE",
"203 137 OFFCURVE",
"203 289 CURVE SMOOTH",
"203 361 OFFCURVE",
"204 447 OFFCURVE",
"198 478 CURVE",
"126 486 OFFCURVE",
"84 478 OFFCURVE",
"41 457 CURVE",
"51 407 LINE",
"100 407 LINE",
"106 347 OFFCURVE",
"103 155 OFFCURVE",
"103 101 CURVE SMOOTH",
"103 73 OFFCURVE",
"133 61 OFFCURVE",
"154 57 CURVE SMOOTH",
"171 54 OFFCURVE",
"184 40 OFFCURVE",
"219 40 CURVE"
);
}
);
width = 298;
}
);
leftKerningGroup = i;
rightKerningGroup = i;
unicode = 0131;
},
{
color = 5;
glyphname = j;
lastChange = "2016-11-22 13:36:40 +0000";
layers = (
{
background = {
paths = (
{
closed = 1;
nodes = (
"203 63 OFFCURVE",
"194 130 OFFCURVE",
"198 289 CURVE SMOOTH",
"200 361 OFFCURVE",
"203 450 OFFCURVE",
"194 481 CURVE",
"175 486 OFFCURVE",
"102 490 OFFCURVE",
"12 457 CURVE",
"21 406 LINE",
"36 411 OFFCURVE",
"49 414 OFFCURVE",
"63 415 CURVE",
"99 382 OFFCURVE",
"80 124 OFFCURVE",
"78 101 CURVE SMOOTH",
"75 73 OFFCURVE",
"118 59 OFFCURVE",
"139 57 CURVE SMOOTH",
"166 54 OFFCURVE",
"179 40 OFFCURVE",
"214 40 CURVE"
);
}
);
};
components = (
{
name = jdotless;
},
{
name = dotaccentcomb;
transform = "{1, 0, 0, 1, -136, 0}";
}
);
layerId = "11343128-4963-4E5D-BE9C-B74F53B36FA5";
width = 243;
},
{
background = {
paths = (
{
closed = 1;
nodes = (
"203 63 OFFCURVE",
"194 130 OFFCURVE",
"198 289 CURVE SMOOTH",
"200 361 OFFCURVE",
"203 450 OFFCURVE",
"194 481 CURVE",
"175 486 OFFCURVE",
"102 490 OFFCURVE",
"12 457 CURVE",
"21 406 LINE",
"36 411 OFFCURVE",
"49 414 OFFCURVE",
"63 415 CURVE",
"99 382 OFFCURVE",
"80 124 OFFCURVE",
"78 101 CURVE SMOOTH",
"75 73 OFFCURVE",
"118 59 OFFCURVE",
"139 57 CURVE SMOOTH",
"166 54 OFFCURVE",
"179 40 OFFCURVE",
"214 40 CURVE"
);
}
);
};
components = (
{
name = jdotless;
},
{
name = dotaccentcomb;
transform = "{1, 0, 0, 1, -136, 0}";
}
);
layerId = "0B1F8F77-7348-4C28-A663-EA76351238C4";
width = 243;
}
);
leftKerningGroup = j;
rightKerningGroup = g;
unicode = 006A;
},
{
glyphname = jdotless;
lastChange = "2016-11-22 13:36:40 +0000";
layers = (
{
anchors = (
{
name = bottom;
position = "{118, 0}";
},
{
name = top;
position = "{118, 480}";
}
);
background = {
components = (
{
name = i;
transform = "{1, 0, 0, 1, -10, 0}";
}
);
};
guideLines = (
{
position = "{131, 407}";
},
{
position = "{149, 457}";
}
);
layerId = "11343128-4963-4E5D-BE9C-B74F53B36FA5";
paths = (
{
closed = 1;
nodes = (
"108 486 OFFCURVE",
"46 476 OFFCURVE",
"7 457 CURVE",
"16 407 LINE",
"66 407 LINE",
"70 358 OFFCURVE",
"70 252 OFFCURVE",
"70 144 CURVE SMOOTH",
"70 -76 OFFCURVE",
"25 -146 OFFCURVE",
"5 -166 CURVE",
"39 -206 LINE",
"136 -148 OFFCURVE",
"187 -28 OFFCURVE",
"187 218 CURVE SMOOTH",
"187 351 OFFCURVE",
"191 448 OFFCURVE",
"183 478 CURVE"
);
}
);
width = 243;
},
{
anchors = (
{
name = bottom;
position = "{118, 0}";
},
{
name = top;
position = "{118, 480}";
}
);
background = {
components = (
{
name = i;
transform = "{1, 0, 0, 1, -10, 0}";
}
);
};
guideLines = (
{
position = "{131, 407}";
},
{
position = "{149, 457}";
}
);
layerId = "0B1F8F77-7348-4C28-A663-EA76351238C4";
paths = (
{
closed = 1;
nodes = (
"108 486 OFFCURVE",
"56 476 OFFCURVE",
"17 457 CURVE",
"26 407 LINE",
"76 407 LINE",
"80 358 OFFCURVE",
"80 252 OFFCURVE",
"80 144 CURVE SMOOTH",
"80 -76 OFFCURVE",
"35 -146 OFFCURVE",
"15 -166 CURVE",
"43 -197 LINE",
"140 -139 OFFCURVE",
"177 -28 OFFCURVE",
"177 218 CURVE SMOOTH",
"177 351 OFFCURVE",
"181 448 OFFCURVE",
"173 478 CURVE"
);
}
);
width = 243;
}
);
leftKerningGroup = j;
rightKerningGroup = g;
unicode = 0237;
},
{
color = 5;
glyphname = k;
lastChange = "2016-11-22 13:36:40 +0000";
layers = (
{
anchors = (
{
name = bottom;
position = "{275, 0}";
},
{
name = top;
position = "{275, 480}";
}
);
background = {
components = (
{
name = l;
}
);
};
guideLines = (
{
position = "{113, 666}";
},
{
position = "{131, 716}";
},
{
position = "{154, 21}";
},
{
position = "{172, 71}";
}
);
layerId = "11343128-4963-4E5D-BE9C-B74F53B36FA5";
paths = (
{
closed = 1;
nodes = (
"208 63 OFFCURVE",
"202 157 OFFCURVE",
"202 347 CURVE SMOOTH",
"202 509 OFFCURVE",
"210 709 OFFCURVE",
"200 740 CURVE",
"181 745 OFFCURVE",
"106 749 OFFCURVE",
"16 716 CURVE",
"25 666 LINE",
"75 666 LINE",
"85 580 OFFCURVE",
"82 123 OFFCURVE",
"80 101 CURVE SMOOTH",
"77 73 OFFCURVE",
"120 59 OFFCURVE",
"141 57 CURVE SMOOTH",
"168 54 OFFCURVE",
"181 40 OFFCURVE",
"216 40 CURVE"
);
},
{
closed = 1;
nodes = (
"23 55 LINE",
"20 0 LINE",
"266 0 LINE",
"270 54 LINE",
"203 66 LINE",
"153 66 LINE"
);
},
{
closed = 1;
nodes = (
"283 272 LINE",
"298 176 OFFCURVE",
"357 36 OFFCURVE",
"387 -3 CURVE",
"494 -15 OFFCURVE",
"534 9 OFFCURVE",
"554 21 CURVE",
"545 71 LINE",
"492 70 LINE",
"434 153 OFFCURVE",
"381 274 OFFCURVE",
"370 329 CURVE"
);
},
{
closed = 1;
nodes = (
"333 375 OFFCURVE",
"219 256 OFFCURVE",
"146 168 CURVE",
"184 109 LINE",
"250 185 OFFCURVE",
"390 343 OFFCURVE",
"425 378 CURVE SMOOTH",
"445 398 OFFCURVE",
"477 422 OFFCURVE",
"509 427 CURVE",
"513 480 LINE",
"312 480 LINE",
"304 427 LINE",
"354 415 LINE"
);
}
);
width = 558;
},
{
anchors = (
{
name = bottom;
position = "{275, 0}";
},
{
name = top;
position = "{275, 480}";
}
);
background = {
components = (
{
name = l;
}
);
};
guideLines = (
{
position = "{113, 666}";
},
{
position = "{131, 716}";
},
{
position = "{154, 21}";
},
{
position = "{172, 71}";
}
);
layerId = "0B1F8F77-7348-4C28-A663-EA76351238C4";
paths = (
{
closed = 1;
nodes = (
"198 63 OFFCURVE",
"192 157 OFFCURVE",
"192 347 CURVE SMOOTH",
"192 509 OFFCURVE",
"200 709 OFFCURVE",
"190 740 CURVE",
"171 745 OFFCURVE",
"116 749 OFFCURVE",
"26 716 CURVE",
"35 666 LINE",
"85 666 LINE",
"95 580 OFFCURVE",
"92 123 OFFCURVE",
"90 101 CURVE SMOOTH",
"87 73 OFFCURVE",
"120 59 OFFCURVE",
"141 57 CURVE SMOOTH",
"168 54 OFFCURVE",
"171 40 OFFCURVE",
"206 40 CURVE"
);
},
{
closed = 1;
nodes = (
"33 55 LINE",
"30 0 LINE",
"256 0 LINE",
"260 54 LINE",
"193 66 LINE",
"153 66 LINE"
);
},
{
closed = 1;
nodes = (
"277 269 LINE",
"292 173 OFFCURVE",
"353 36 OFFCURVE",
"383 -3 CURVE",
"490 -15 OFFCURVE",
"514 9 OFFCURVE",
"534 21 CURVE",
"525 71 LINE",
"472 70 LINE",
"414 153 OFFCURVE",
"350 268 OFFCURVE",
"339 323 CURVE"
);
},
{
closed = 1;
nodes = (
"334 385 OFFCURVE",
"215 251 OFFCURVE",
"137 163 CURVE",
"165 104 LINE",
"231 180 OFFCURVE",
"381 353 OFFCURVE",
"416 388 CURVE SMOOTH",
"436 408 OFFCURVE",
"468 432 OFFCURVE",
"500 437 CURVE",
"504 480 LINE",
"303 480 LINE",
"295 437 LINE",
"355 425 LINE"
);
}
);
width = 539;
}
);
leftKerningGroup = l;
leftMetricsKey = i;
rightKerningGroup = i;
unicode = 006B;
},
{
color = 5;
glyphname = l;
lastChange = "2016-11-22 13:36:40 +0000";
layers = (
{
anchors = (
{
name = bottom;
position = "{133, 0}";
},
{
name = center;
position = "{133, 240}";
},
{
name = top;
position = "{133, 718}";
},
{
name = topright;
position = "{188, 740}";
}
);
background = {
paths = (
{
closed = 1;
nodes = (
"197 63 OFFCURVE",
"191 157 OFFCURVE",
"191 347 CURVE SMOOTH",
"191 509 OFFCURVE",
"199 709 OFFCURVE",
"189 740 CURVE",
"170 745 OFFCURVE",
"95 749 OFFCURVE",
"5 716 CURVE",
"14 666 LINE",
"64 666 LINE",
"74 580 OFFCURVE",
"71 123 OFFCURVE",
"69 101 CURVE SMOOTH",
"66 73 OFFCURVE",
"109 59 OFFCURVE",
"130 57 CURVE SMOOTH",
"157 54 OFFCURVE",
"170 40 OFFCURVE",
"205 40 CURVE"
);
}
);
};
guideLines = (
{
position = "{136, 666}";
},
{
position = "{154, 716}";
}
);
layerId = "11343128-4963-4E5D-BE9C-B74F53B36FA5";
paths = (
{
closed = 1;
nodes = (
"198 63 OFFCURVE",
"192 157 OFFCURVE",
"192 347 CURVE SMOOTH",
"192 509 OFFCURVE",
"200 709 OFFCURVE",
"190 740 CURVE",
"171 745 OFFCURVE",
"96 749 OFFCURVE",
"6 716 CURVE",
"15 666 LINE",
"65 666 LINE",
"75 580 OFFCURVE",
"72 123 OFFCURVE",
"70 101 CURVE SMOOTH",
"67 73 OFFCURVE",
"110 59 OFFCURVE",
"131 57 CURVE SMOOTH",
"158 54 OFFCURVE",
"171 40 OFFCURVE",
"206 40 CURVE"
);
},
{
closed = 1;
nodes = (
"13 55 LINE",
"10 0 LINE",
"260 0 LINE",
"264 56 LINE",
"197 66 LINE",
"147 66 LINE"
);
}
);
width = 277;
},
{
anchors = (
{
name = bottom;
position = "{133, 0}";
},
{
name = center;
position = "{133, 240}";
},
{
name = top;
position = "{133, 718}";
},
{
name = topright;
position = "{188, 740}";
}
);
background = {
paths = (
{
closed = 1;
nodes = (
"197 63 OFFCURVE",
"191 157 OFFCURVE",
"191 347 CURVE SMOOTH",
"191 509 OFFCURVE",
"199 709 OFFCURVE",
"189 740 CURVE",
"170 745 OFFCURVE",
"95 749 OFFCURVE",
"5 716 CURVE",
"14 666 LINE",
"64 666 LINE",
"74 580 OFFCURVE",
"71 123 OFFCURVE",
"69 101 CURVE SMOOTH",
"66 73 OFFCURVE",
"109 59 OFFCURVE",
"130 57 CURVE SMOOTH",
"157 54 OFFCURVE",
"170 40 OFFCURVE",
"205 40 CURVE"
);
}
);
};
guideLines = (
{
position = "{136, 666}";
},
{
position = "{154, 716}";
}
);
layerId = "0B1F8F77-7348-4C28-A663-EA76351238C4";
paths = (
{
closed = 1;
nodes = (
"188 63 OFFCURVE",
"182 157 OFFCURVE",
"182 347 CURVE SMOOTH",
"182 509 OFFCURVE",
"190 709 OFFCURVE",
"180 740 CURVE",
"161 745 OFFCURVE",
"106 749 OFFCURVE",
"16 716 CURVE",
"25 666 LINE",
"75 666 LINE",
"85 580 OFFCURVE",
"82 123 OFFCURVE",
"80 101 CURVE SMOOTH",
"77 73 OFFCURVE",
"120 61 OFFCURVE",
"141 57 CURVE SMOOTH",
"158 54 OFFCURVE",
"161 40 OFFCURVE",
"196 40 CURVE"
);
},
{
closed = 1;
nodes = (
"23 55 LINE",
"20 0 LINE",
"250 0 LINE",
"254 56 LINE",
"187 66 LINE",
"147 66 LINE"
);
}
);
width = 277;
}
);
leftKerningGroup = l;
leftMetricsKey = "=i-10";
rightKerningGroup = i;
rightMetricsKey = i;
unicode = 006C;
},
{
color = 5;
glyphname = m;
lastChange = "2016-11-22 13:36:40 +0000";
layers = (
{
anchors = (
{
name = bottom;
position = "{393, 0}";
},
{
name = top;
position = "{393, 480}";
}
);
background = {
components = (
{
name = n;
}
);
};
guideLines = (
{
position = "{147, 21}";
},
{
position = "{165, 71}";
},
{
position = "{147, 407}";
},
{
position = "{165, 457}";
}
);
layerId = "11343128-4963-4E5D-BE9C-B74F53B36FA5";
paths = (
{
closed = 1;
nodes = (
"452 68 OFFCURVE",
"450 131 OFFCURVE",
"450 285 CURVE",
"451 335 OFFCURVE",
"451 331 OFFCURVE",
"453 375 CURVE SMOOTH",
"457 453 OFFCURVE",
"413 485 OFFCURVE",
"349 483 CURVE",
"267 458 OFFCURVE",
"179 403 OFFCURVE",
"171 381 CURVE",
"171 326 LINE",
"201 348 OFFCURVE",
"281 381 OFFCURVE",
"318 382 CURVE",
"341 346 OFFCURVE",
"337 209 OFFCURVE",
"334 122 CURVE SMOOTH",
"333 79 OFFCURVE",
"326 60 OFFCURVE",
"287 56 CURVE",
"303 26 OFFCURVE",
"421 40 OFFCURVE",
"466 40 CURVE"
);
},
{
closed = 1;
nodes = (
"24 55 LINE",
"22 0 LINE",
"251 0 LINE",
"255 56 LINE",
"205 66 LINE",
"155 66 LINE"
);
},
{
closed = 1;
nodes = (
"287 56 LINE",
"283 0 LINE",
"516 0 LINE",
"520 56 LINE",
"454 66 LINE"
);
},
{
closed = 1;
nodes = (
"420 326 LINE",
"479 363 OFFCURVE",
"536 380 OFFCURVE",
"568 382 CURVE",
"606 298 OFFCURVE",
"564 47 OFFCURVE",
"590 0 CURVE",
"700 -10 OFFCURVE",
"750 9 OFFCURVE",
"772 21 CURVE",
"763 71 LINE",
"713 71 LINE",
"690 134 OFFCURVE",
"695 309 OFFCURVE",
"701 382 CURVE SMOOTH",
"705 431 OFFCURVE",
"681 486 OFFCURVE",
"599 483 CURVE",
"528 462 OFFCURVE",
"429 406 OFFCURVE",
"420 381 CURVE"
);
},
{
closed = 1;
nodes = (
"207 63 OFFCURVE",
"198 130 OFFCURVE",
"202 289 CURVE SMOOTH",
"203 317 OFFCURVE",
"204 348 OFFCURVE",
"204 377 CURVE SMOOTH",
"204 383 OFFCURVE",
"199 389 OFFCURVE",
"199 395 CURVE",
"199 432 OFFCURVE",
"197 465 OFFCURVE",
"193 481 CURVE",
"174 486 OFFCURVE",
"106 490 OFFCURVE",
"16 457 CURVE",
"25 407 LINE",
"74 407 LINE",
"102 353 OFFCURVE",
"84 123 OFFCURVE",
"82 101 CURVE SMOOTH",
"79 73 OFFCURVE",
"122 59 OFFCURVE",
"143 57 CURVE SMOOTH",
"170 54 OFFCURVE",
"183 40 OFFCURVE",
"218 40 CURVE"
);
}
);
width = 782;
},
{
layerId = "0B1F8F77-7348-4C28-A663-EA76351238C4";
paths = (
{
closed = 1;
nodes = (
"442 68 OFFCURVE",
"440 131 OFFCURVE",
"440 285 CURVE",
"441 335 OFFCURVE",
"441 331 OFFCURVE",
"443 375 CURVE SMOOTH",
"447 453 OFFCURVE",
"413 485 OFFCURVE",
"359 483 CURVE",
"277 458 OFFCURVE",
"169 403 OFFCURVE",
"161 381 CURVE",
"161 336 LINE",
"191 358 OFFCURVE",
"291 391 OFFCURVE",
"328 392 CURVE",
"351 356 OFFCURVE",
"346 209 OFFCURVE",
"344 122 CURVE SMOOTH",
"343 79 OFFCURVE",
"336 60 OFFCURVE",
"297 56 CURVE",
"313 26 OFFCURVE",
"411 40 OFFCURVE",
"456 40 CURVE"
);
},
{
closed = 1;
nodes = (
"34 55 LINE",
"32 0 LINE",
"241 0 LINE",
"245 56 LINE",
"195 66 LINE",
"145 66 LINE"
);
},
{
closed = 1;
nodes = (
"297 56 LINE",
"293 0 LINE",
"506 0 LINE",
"510 56 LINE",
"444 66 LINE"
);
},
{
closed = 1;
nodes = (
"410 336 LINE",
"469 373 OFFCURVE",
"536 390 OFFCURVE",
"578 392 CURVE",
"616 308 OFFCURVE",
"574 47 OFFCURVE",
"600 0 CURVE",
"700 -10 OFFCURVE",
"740 9 OFFCURVE",
"762 21 CURVE",
"753 71 LINE",
"703 71 LINE",
"680 134 OFFCURVE",
"685 309 OFFCURVE",
"691 382 CURVE SMOOTH",
"695 431 OFFCURVE",
"691 486 OFFCURVE",
"609 483 CURVE",
"528 462 OFFCURVE",
"419 406 OFFCURVE",
"410 381 CURVE"
);
},
{
closed = 1;
nodes = (
"197 63 OFFCURVE",
"191 130 OFFCURVE",
"192 289 CURVE SMOOTH",
"192 317 OFFCURVE",
"194 348 OFFCURVE",
"194 377 CURVE SMOOTH",
"194 383 OFFCURVE",
"189 389 OFFCURVE",
"189 395 CURVE",
"189 432 OFFCURVE",
"187 465 OFFCURVE",
"183 481 CURVE",
"164 486 OFFCURVE",
"116 490 OFFCURVE",
"26 457 CURVE",
"35 407 LINE",
"84 407 LINE",
"112 353 OFFCURVE",
"94 123 OFFCURVE",
"92 101 CURVE SMOOTH",
"89 73 OFFCURVE",
"122 59 OFFCURVE",
"143 57 CURVE SMOOTH",
"170 54 OFFCURVE",
"173 40 OFFCURVE",
"208 40 CURVE"
);
}
);
width = 782;
}
);
leftKerningGroup = i;
leftMetricsKey = i;
rightKerningGroup = n;
rightMetricsKey = n;
unicode = 006D;
},
{
color = 5;
glyphname = n;
lastChange = "2016-11-22 13:43:22 +0000";
layers = (
{
anchors = (
{
name = bottom;
position = "{268, 0}";
},
{
name = top;
position = "{268, 480}";
}
);
background = {
paths = (
{
closed = 1;
nodes = (
"362 154 LINE",
"303 117 OFFCURVE",
"246 100 OFFCURVE",
"214 98 CURVE",
"176 182 OFFCURVE",
"218 433 OFFCURVE",
"192 480 CURVE",
"82 490 OFFCURVE",
"31 470 OFFCURVE",
"13 459 CURVE",
"22 409 LINE",
"69 409 LINE",
"92 347 OFFCURVE",
"87 171 OFFCURVE",
"81 98 CURVE SMOOTH",
"77 49 OFFCURVE",
"101 -6 OFFCURVE",
"183 -3 CURVE",
"254 18 OFFCURVE",
"353 74 OFFCURVE",
"362 99 CURVE"
);
}
);
};
guideLines = (
{
position = "{143, 21}";
},
{
position = "{161, 71}";
},
{
position = "{143, 407}";
}
);
layerId = "11343128-4963-4E5D-BE9C-B74F53B36FA5";
paths = (
{
closed = 1;
nodes = (
"213 102 OFFCURVE",
"213 252 OFFCURVE",
"213 373 CURVE",
"213 381 OFFCURVE",
"206 388 OFFCURVE",
"206 396 CURVE",
"204 434 OFFCURVE",
"201 463 OFFCURVE",
"196 480 CURVE",
"155 493 OFFCURVE",
"41 474 OFFCURVE",
"14 459 CURVE",
"23 399 LINE",
"74 399 LINE",
"87 319 OFFCURVE",
"77 135 OFFCURVE",
"77 114 CURVE SMOOTH",
"77 84 OFFCURVE",
"117 69 OFFCURVE",
"138 67 CURVE SMOOTH",
"175 64 OFFCURVE",
"178 40 OFFCURVE",
"213 40 CURVE"
);
},
{
closed = 1;
nodes = (
"188 330 LINE",
"247 367 OFFCURVE",
"295 380 OFFCURVE",
"327 382 CURVE",
"327 113 OFFCURVE",
"323 57 OFFCURVE",
"349 0 CURVE",
"427 -17 OFFCURVE",
"514 10 OFFCURVE",
"532 21 CURVE",
"523 81 LINE",
"468 81 LINE",
"459 131 OFFCURVE",
"464 309 OFFCURVE",
"464 382 CURVE SMOOTH",
"464 431 OFFCURVE",
"439 486 OFFCURVE",
"357 483 CURVE",
"296 466 OFFCURVE",
"197 410 OFFCURVE",
"188 383 CURVE"
);
},
{
closed = 1;
nodes = (
"23 65 LINE",
"20 0 LINE",
"273 0 LINE",
"277 66 LINE",
"217 76 LINE",
"157 76 LINE"
);
}
);
width = 543;
},
{
anchors = (
{
name = bottom;
position = "{285, 0}";
},
{
name = top;
position = "{285, 480}";
}
);
background = {
components = (
{
name = m;
transform = "{1, 0, 0, 1, -225, 0}";
}
);
};
guideLines = (
{
position = "{160, 21}";
},
{
position = "{178, 71}";
},
{
position = "{160, 407}";
}
);
layerId = "0B1F8F77-7348-4C28-A663-EA76351238C4";
paths = (
{
closed = 1;
nodes = (
"210 92 OFFCURVE",
"210 252 OFFCURVE",
"210 373 CURVE",
"210 381 OFFCURVE",
"203 388 OFFCURVE",
"203 396 CURVE",
"201 434 OFFCURVE",
"198 463 OFFCURVE",
"193 480 CURVE",
"152 493 OFFCURVE",
"68 474 OFFCURVE",
"41 459 CURVE",
"50 409 LINE",
"101 409 LINE",
"114 329 OFFCURVE",
"104 125 OFFCURVE",
"104 104 CURVE SMOOTH",
"104 74 OFFCURVE",
"134 61 OFFCURVE",
"155 57 CURVE SMOOTH",
"172 54 OFFCURVE",
"175 40 OFFCURVE",
"210 40 CURVE"
);
},
{
closed = 1;
nodes = (
"185 338 LINE",
"244 375 OFFCURVE",
"324 390 OFFCURVE",
"356 392 CURVE",
"381 292 OFFCURVE",
"351 47 OFFCURVE",
"376 0 CURVE",
"444 -17 OFFCURVE",
"516 10 OFFCURVE",
"534 21 CURVE",
"525 71 LINE",
"474 71 LINE",
"463 121 OFFCURVE",
"464 207 OFFCURVE",
"464 382 CURVE SMOOTH",
"464 431 OFFCURVE",
"463 484 OFFCURVE",
"384 484 CURVE",
"303 463 OFFCURVE",
"194 408 OFFCURVE",
"185 381 CURVE"
);
},
{
closed = 1;
nodes = (
"50 55 LINE",
"47 0 LINE",
"270 0 LINE",
"274 56 LINE",
"214 66 LINE",
"174 66 LINE"
);
}
);
width = 559;
}
);
leftKerningGroup = i;
leftMetricsKey = i;
rightKerningGroup = n;
rightMetricsKey = "=i-3";
unicode = 006E;
},
{
glyphname = eng;
lastChange = "2016-11-22 13:36:40 +0000";
layers = (
{
anchors = (
{
name = bottom;
position = "{271, 0}";
},
{
name = top;
position = "{271, 480}";
}
);
background = {
paths = (
{
closed = 1;
nodes = (
"368 482 LINE",
"334 482 OFFCURVE",
"239 349 OFFCURVE",
"203 274 CURVE",
"203 292 OFFCURVE",
"207 443 OFFCURVE",
"201 452 CURVE SMOOTH",
"195 461 OFFCURVE",
"61 484 OFFCURVE",
"48 477 CURVE",
"39 434 LINE",
"87 407 LINE",
"90 272 OFFCURVE",
"74 46 OFFCURVE",
"77 34 CURVE SMOOTH",
"80 21 OFFCURVE",
"165 -3 OFFCURVE",
"190 -3 CURVE SMOOTH",
"218 -3 OFFCURVE",
"215 25 OFFCURVE",
"199 133 CURVE",
"250 271 OFFCURVE",
"311 323 OFFCURVE",
"340 359 CURVE",
"338 320 OFFCURVE",
"342 212 OFFCURVE",
"345 82 CURVE SMOOTH",
"348 11 OFFCURVE",
"340 -68 OFFCURVE",
"316 -104 CURVE",
"280 -123 OFFCURVE",
"220 -105 OFFCURVE",
"190 -84 CURVE",
"175 -130 LINE",
"219 -174 OFFCURVE",
"306 -212 OFFCURVE",
"382 -181 CURVE SMOOTH",
"457 -151 OFFCURVE",
"466 -45 OFFCURVE",
"464 27 CURVE SMOOTH",
"461 286 OFFCURVE",
"457 364 OFFCURVE",
"471 444 CURVE"
);
}
);
};
layerId = "11343128-4963-4E5D-BE9C-B74F53B36FA5";
paths = (
{
closed = 1;
nodes = (
"205 63 OFFCURVE",
"196 130 OFFCURVE",
"200 289 CURVE SMOOTH",
"202 361 OFFCURVE",
"205 450 OFFCURVE",
"196 481 CURVE",
"177 486 OFFCURVE",
"107 490 OFFCURVE",
"17 457 CURVE",
"26 407 LINE",
"72 407 LINE",
"100 353 OFFCURVE",
"82 122 OFFCURVE",
"80 101 CURVE SMOOTH",
"77 73 OFFCURVE",
"120 59 OFFCURVE",
"141 57 CURVE SMOOTH",
"168 54 OFFCURVE",
"181 40 OFFCURVE",
"216 40 CURVE"
);
},
{
closed = 1;
nodes = (
"23 55 LINE",
"20 0 LINE",
"266 0 LINE",
"270 56 LINE",
"203 66 LINE",
"153 66 LINE"
);
},
{
closed = 1;
nodes = (
"181 326 LINE",
"240 363 OFFCURVE",
"301 380 OFFCURVE",
"333 382 CURVE",
"349 294 OFFCURVE",
"354 -48 OFFCURVE",
"329 -106 CURVE",
"298 -115 OFFCURVE",
"231 -106 OFFCURVE",
"194 -88 CURVE",
"183 -105 OFFCURVE",
"176 -123 OFFCURVE",
"175 -130 CURVE",
"219 -174 OFFCURVE",
"331 -219 OFFCURVE",
"404 -163 CURVE SMOOTH",
"457 -122 OFFCURVE",
"465 -34 OFFCURVE",
"465 71 CURVE SMOOTH",
"465 143 OFFCURVE",
"463 309 OFFCURVE",
"462 382 CURVE SMOOTH",
"461 431 OFFCURVE",
"442 486 OFFCURVE",
"360 483 CURVE",
"289 462 OFFCURVE",
"190 406 OFFCURVE",
"181 381 CURVE"
);
}
);
width = 542;
},
{
anchors = (
{
name = bottom;
position = "{271, 0}";
},
{
name = top;
position = "{271, 480}";
}
);
background = {
paths = (
{
closed = 1;
nodes = (
"368 482 LINE",
"334 482 OFFCURVE",
"239 349 OFFCURVE",
"203 274 CURVE",
"203 292 OFFCURVE",
"207 443 OFFCURVE",
"201 452 CURVE SMOOTH",
"195 461 OFFCURVE",
"61 484 OFFCURVE",
"48 477 CURVE",
"39 434 LINE",
"87 407 LINE",
"90 272 OFFCURVE",
"74 46 OFFCURVE",
"77 34 CURVE SMOOTH",
"80 21 OFFCURVE",
"165 -3 OFFCURVE",
"190 -3 CURVE SMOOTH",
"218 -3 OFFCURVE",
"215 25 OFFCURVE",
"199 133 CURVE",
"250 271 OFFCURVE",
"311 323 OFFCURVE",
"340 359 CURVE",
"338 320 OFFCURVE",
"342 212 OFFCURVE",
"345 82 CURVE SMOOTH",
"348 11 OFFCURVE",
"340 -68 OFFCURVE",
"316 -104 CURVE",
"280 -123 OFFCURVE",
"220 -105 OFFCURVE",
"190 -84 CURVE",
"175 -130 LINE",
"219 -174 OFFCURVE",
"306 -212 OFFCURVE",
"382 -181 CURVE SMOOTH",
"457 -151 OFFCURVE",
"466 -45 OFFCURVE",
"464 27 CURVE SMOOTH",
"461 286 OFFCURVE",
"457 364 OFFCURVE",
"471 444 CURVE"
);
}
);
};
layerId = "0B1F8F77-7348-4C28-A663-EA76351238C4";
paths = (
{
closed = 1;
nodes = (
"205 63 OFFCURVE",
"196 130 OFFCURVE",
"200 289 CURVE SMOOTH",
"202 361 OFFCURVE",
"205 450 OFFCURVE",
"196 481 CURVE",
"177 486 OFFCURVE",
"107 490 OFFCURVE",
"17 457 CURVE",
"26 407 LINE",
"72 407 LINE",
"100 353 OFFCURVE",
"82 122 OFFCURVE",
"80 101 CURVE SMOOTH",
"77 73 OFFCURVE",
"120 59 OFFCURVE",
"141 57 CURVE SMOOTH",
"168 54 OFFCURVE",
"181 40 OFFCURVE",
"216 40 CURVE"
);
},
{
closed = 1;
nodes = (
"23 55 LINE",
"20 0 LINE",
"266 0 LINE",
"270 56 LINE",
"203 66 LINE",
"153 66 LINE"
);
},
{
closed = 1;
nodes = (
"181 326 LINE",
"240 363 OFFCURVE",
"301 380 OFFCURVE",
"333 382 CURVE",
"349 294 OFFCURVE",
"354 -48 OFFCURVE",
"329 -106 CURVE",
"298 -115 OFFCURVE",
"231 -106 OFFCURVE",
"194 -88 CURVE",
"183 -105 OFFCURVE",
"176 -123 OFFCURVE",
"175 -130 CURVE",
"219 -174 OFFCURVE",
"331 -219 OFFCURVE",
"404 -163 CURVE SMOOTH",
"457 -122 OFFCURVE",
"465 -34 OFFCURVE",
"465 71 CURVE SMOOTH",
"465 143 OFFCURVE",
"463 309 OFFCURVE",
"462 382 CURVE SMOOTH",
"461 431 OFFCURVE",
"442 486 OFFCURVE",
"360 483 CURVE",
"289 462 OFFCURVE",
"190 406 OFFCURVE",
"181 381 CURVE"
);
}
);
width = 542;
}
);
leftKerningGroup = i;
rightKerningGroup = n;
unicode = 014B;
},
{
color = 5;
glyphname = o;
lastChange = "2016-11-22 13:36:40 +0000";
layers = (
{
anchors = (
{
name = bottom;
position = "{242, 0}";
},
{
name = center;
position = "{242, 240}";
},
{
name = ogonek;
position = "{436, 10}";
},
{
name = top;
position = "{242, 480}";
},
{
name = topright;
position = "{464, 480}";
}
);
background = {
components = (
{
name = n;
}
);
};
guideLines = (
{
angle = 90;
position = "{263, 338}";
}
);
layerId = "11343128-4963-4E5D-BE9C-B74F53B36FA5";
paths = (
{
closed = 1;
nodes = (
"367 464 OFFCURVE",
"302 504 OFFCURVE",
"211 484 CURVE SMOOTH",
"83 458 OFFCURVE",
"23 352 OFFCURVE",
"23 237 CURVE SMOOTH",
"23 157 OFFCURVE",
"48 75 OFFCURVE",
"97 34 CURVE SMOOTH",
"139 -1 OFFCURVE",
"211 -18 OFFCURVE",
"276 -4 CURVE SMOOTH",
"407 21 OFFCURVE",
"461 143 OFFCURVE",
"461 258 CURVE SMOOTH",
"461 328 OFFCURVE",
"438 397 OFFCURVE",
"397 436 CURVE SMOOTH"
);
},
{
closed = 1;
nodes = (
"227 68 OFFCURVE",
"192 96 OFFCURVE",
"169 145 CURVE SMOOTH",
"125 237 OFFCURVE",
"149 371 OFFCURVE",
"217 409 CURVE",
"258 409 OFFCURVE",
"288 385 OFFCURVE",
"311 343 CURVE SMOOTH",
"356 258 OFFCURVE",
"346 114 OFFCURVE",
"270 68 CURVE"
);
}
);
width = 484;
},
{
anchors = (
{
name = bottom;
position = "{238, 0}";
},
{
name = center;
position = "{238, 240}";
},
{
name = ogonek;
position = "{432, 10}";
},
{
name = top;
position = "{238, 480}";
},
{
name = topright;
position = "{460, 480}";
}
);
background = {
components = (
{
name = n;
transform = "{1, 0, 0, 1, -4, 0}";
}
);
};
guideLines = (
{
angle = 90;
position = "{259, 338}";
}
);
layerId = "0B1F8F77-7348-4C28-A663-EA76351238C4";
paths = (
{
closed = 1;
nodes = (
"355 464 OFFCURVE",
"299 504 OFFCURVE",
"206 484 CURVE SMOOTH",
"76 458 OFFCURVE",
"25 352 OFFCURVE",
"25 237 CURVE SMOOTH",
"25 157 OFFCURVE",
"51 75 OFFCURVE",
"101 34 CURVE SMOOTH",
"143 -1 OFFCURVE",
"206 -18 OFFCURVE",
"273 -4 CURVE SMOOTH",
"406 21 OFFCURVE",
"451 143 OFFCURVE",
"451 258 CURVE SMOOTH",
"451 328 OFFCURVE",
"427 397 OFFCURVE",
"385 436 CURVE SMOOTH"
);
},
{
closed = 1;
nodes = (
"233 55 OFFCURVE",
"177 96 OFFCURVE",
"154 145 CURVE SMOOTH",
"109 237 OFFCURVE",
"133 382 OFFCURVE",
"202 420 CURVE",
"244 420 OFFCURVE",
"295 384 OFFCURVE",
"317 342 CURVE SMOOTH",
"363 257 OFFCURVE",
"354 101 OFFCURVE",
"277 55 CURVE"
);
}
);
width = 476;
}
);
leftKerningGroup = o;
rightKerningGroup = o;
unicode = 006F;
},
{
color = 5;
glyphname = p;
lastChange = "2016-11-22 13:36:40 +0000";
layers = (
{
anchors = (
{
name = bottom;
position = "{256, 0}";
},
{
name = top;
position = "{256, 480}";
}
);
background = {
components = (
{
name = n;
transform = "{1, 0, 0, 1, -14, 0}";
}
);
};
guideLines = (
{
position = "{146, 407}";
},
{
position = "{164, 457}";
}
);
layerId = "11343128-4963-4E5D-BE9C-B74F53B36FA5";
paths = (
{
closed = 1;
nodes = (
"406 455 OFFCURVE",
"364 484 OFFCURVE",
"305 484 CURVE",
"270 475 OFFCURVE",
"195 426 OFFCURVE",
"162 401 CURVE",
"120 281 OFFCURVE",
"135 103 OFFCURVE",
"126 58 CURVE",
"152 32 OFFCURVE",
"234 -13 OFFCURVE",
"299 -1 CURVE SMOOTH",
"507 38 OFFCURVE",
"531 335 OFFCURVE",
"426 436 CURVE SMOOTH"
);
},
{
closed = 1;
nodes = (
"251 74 OFFCURVE",
"186 95 OFFCURVE",
"171 144 CURVE",
"154 198 OFFCURVE",
"160 287 OFFCURVE",
"176 341 CURVE",
"187 348 OFFCURVE",
"243 389 OFFCURVE",
"294 389 CURVE",
"309 384 OFFCURVE",
"324 373 OFFCURVE",
"339 343 CURVE SMOOTH",
"381 259 OFFCURVE",
"369 120 OFFCURVE",
"294 74 CURVE"
);
},
{
closed = 1;
nodes = (
"62 409 LINE",
"82 367 OFFCURVE",
"86 289 OFFCURVE",
"82 106 CURVE SMOOTH",
"79 -51 OFFCURVE",
"66 -146 OFFCURVE",
"74 -162 CURVE SMOOTH",
"81 -176 OFFCURVE",
"136 -200 OFFCURVE",
"258 -250 CURVE",
"262 -194 LINE",
"206 -185 LINE",
"189 -155 OFFCURVE",
"192 44 OFFCURVE",
"192 238 CURVE SMOOTH",
"192 297 OFFCURVE",
"192 341 OFFCURVE",
"191 374 CURVE",
"191 381 OFFCURVE",
"188 387 OFFCURVE",
"188 393 CURVE",
"186 449 OFFCURVE",
"183 468 OFFCURVE",
"177 481 CURVE",
"111 492 OFFCURVE",
"22 470 OFFCURVE",
"2 459 CURVE",
"12 409 LINE"
);
},
{
closed = 1;
nodes = (
"22 -195 LINE",
"19 -250 LINE",
"258 -250 LINE",
"153 -184 LINE"
);
}
);
width = 510;
},
{
anchors = (
{
name = bottom;
position = "{256, 0}";
},
{
name = top;
position = "{256, 480}";
}
);
background = {
components = (
{
name = n;
transform = "{1, 0, 0, 1, -14, 0}";
}
);
};
guideLines = (
{
position = "{146, 407}";
},
{
position = "{164, 457}";
}
);
layerId = "0B1F8F77-7348-4C28-A663-EA76351238C4";
paths = (
{
closed = 1;
nodes = (
"396 455 OFFCURVE",
"364 484 OFFCURVE",
"305 484 CURVE",
"270 475 OFFCURVE",
"195 426 OFFCURVE",
"162 401 CURVE",
"120 281 OFFCURVE",
"135 103 OFFCURVE",
"126 58 CURVE",
"152 32 OFFCURVE",
"224 -13 OFFCURVE",
"289 -1 CURVE SMOOTH",
"497 38 OFFCURVE",
"521 335 OFFCURVE",
"416 436 CURVE SMOOTH"
);
},
{
closed = 1;
nodes = (
"261 64 OFFCURVE",
"186 85 OFFCURVE",
"171 134 CURVE",
"154 188 OFFCURVE",
"160 297 OFFCURVE",
"176 351 CURVE",
"187 358 OFFCURVE",
"253 399 OFFCURVE",
"304 399 CURVE",
"319 394 OFFCURVE",
"334 383 OFFCURVE",
"349 353 CURVE SMOOTH",
"391 269 OFFCURVE",
"379 110 OFFCURVE",
"304 64 CURVE"
);
},
{
closed = 1;
nodes = (
"72 409 LINE",
"92 367 OFFCURVE",
"95 289 OFFCURVE",
"92 106 CURVE SMOOTH",
"89 -51 OFFCURVE",
"76 -146 OFFCURVE",
"84 -162 CURVE SMOOTH",
"91 -176 OFFCURVE",
"126 -200 OFFCURVE",
"248 -250 CURVE",
"252 -194 LINE",
"196 -185 LINE",
"179 -155 OFFCURVE",
"182 44 OFFCURVE",
"182 238 CURVE SMOOTH",
"182 297 OFFCURVE",
"182 341 OFFCURVE",
"181 374 CURVE",
"181 381 OFFCURVE",
"178 387 OFFCURVE",
"178 393 CURVE",
"176 449 OFFCURVE",
"173 468 OFFCURVE",
"167 481 CURVE",
"101 492 OFFCURVE",
"32 470 OFFCURVE",
"12 459 CURVE",
"22 409 LINE"
);
},
{
closed = 1;
nodes = (
"32 -195 LINE",
"29 -250 LINE",
"248 -250 LINE",
"153 -184 LINE"
);
}
);
width = 502;
}
);
leftKerningGroup = i;
rightKerningGroup = o;
rightMetricsKey = o;
unicode = 0070;
},
{
glyphname = thorn;
lastChange = "2016-11-22 13:36:40 +0000";
layers = (
{
anchors = (
{
name = bottom;
position = "{241, 0}";
},
{
name = top;
position = "{241, 480}";
}
);
layerId = "11343128-4963-4E5D-BE9C-B74F53B36FA5";
paths = (
{
closed = 1;
nodes = (
"391 455 OFFCURVE",
"349 484 OFFCURVE",
"290 484 CURVE",
"255 475 OFFCURVE",
"179 430 OFFCURVE",
"146 405 CURVE",
"104 285 OFFCURVE",
"129 98 OFFCURVE",
"120 53 CURVE",
"146 27 OFFCURVE",
"219 -13 OFFCURVE",
"284 -1 CURVE SMOOTH",
"492 38 OFFCURVE",
"516 335 OFFCURVE",
"411 436 CURVE SMOOTH"
);
},
{
closed = 1;
nodes = (
"236 74 OFFCURVE",
"182 95 OFFCURVE",
"167 144 CURVE SMOOTH",
"150 198 OFFCURVE",
"144 291 OFFCURVE",
"160 345 CURVE",
"171 352 OFFCURVE",
"228 389 OFFCURVE",
"279 389 CURVE",
"294 384 OFFCURVE",
"309 373 OFFCURVE",
"324 343 CURVE SMOOTH",
"366 259 OFFCURVE",
"354 120 OFFCURVE",
"279 74 CURVE"
);
},
{
closed = 1;
nodes = (
"7 -195 LINE",
"4 -250 LINE",
"243 -250 LINE",
"138 -184 LINE"
);
},
{
closed = 1;
nodes = (
"179 -164 OFFCURVE",
"177 -62 OFFCURVE",
"177 63 CURVE",
"179 56 OFFCURVE",
"182 48 OFFCURVE",
"187 40 CURVE",
"177 81 OFFCURVE",
"181 182 OFFCURVE",
"181 329 CURVE SMOOTH",
"181 491 OFFCURVE",
"188 709 OFFCURVE",
"178 740 CURVE",
"159 745 OFFCURVE",
"92 749 OFFCURVE",
"2 716 CURVE",
"11 665 LINE",
"56 665 LINE",
"72 514 OFFCURVE",
"69 364 OFFCURVE",
"66 213 CURVE SMOOTH",
"64 100 OFFCURVE",
"52 -149 OFFCURVE",
"59 -162 CURVE SMOOTH",
"66 -176 OFFCURVE",
"121 -200 OFFCURVE",
"243 -250 CURVE",
"247 -194 LINE",
"191 -185 LINE"
);
}
);
width = 495;
},
{
anchors = (
{
name = bottom;
position = "{241, 0}";
},
{
name = top;
position = "{241, 480}";
}
);
layerId = "0B1F8F77-7348-4C28-A663-EA76351238C4";
paths = (
{
closed = 1;
nodes = (
"391 455 OFFCURVE",
"349 484 OFFCURVE",
"290 484 CURVE",
"255 475 OFFCURVE",
"179 430 OFFCURVE",
"146 405 CURVE",
"104 285 OFFCURVE",
"129 98 OFFCURVE",
"120 53 CURVE",
"146 27 OFFCURVE",
"219 -13 OFFCURVE",
"284 -1 CURVE SMOOTH",
"492 38 OFFCURVE",
"516 335 OFFCURVE",
"411 436 CURVE SMOOTH"
);
},
{
closed = 1;
nodes = (
"236 74 OFFCURVE",
"182 95 OFFCURVE",
"167 144 CURVE SMOOTH",
"150 198 OFFCURVE",
"144 291 OFFCURVE",
"160 345 CURVE",
"171 352 OFFCURVE",
"228 389 OFFCURVE",
"279 389 CURVE",
"294 384 OFFCURVE",
"309 373 OFFCURVE",
"324 343 CURVE SMOOTH",
"366 259 OFFCURVE",
"354 120 OFFCURVE",
"279 74 CURVE"
);
},
{
closed = 1;
nodes = (
"7 -195 LINE",
"4 -250 LINE",
"243 -250 LINE",
"138 -184 LINE"
);
},
{
closed = 1;
nodes = (
"179 -164 OFFCURVE",
"177 -62 OFFCURVE",
"177 63 CURVE",
"179 56 OFFCURVE",
"182 48 OFFCURVE",
"187 40 CURVE",
"177 81 OFFCURVE",
"181 182 OFFCURVE",
"181 329 CURVE SMOOTH",
"181 491 OFFCURVE",
"188 709 OFFCURVE",
"178 740 CURVE",
"159 745 OFFCURVE",
"92 749 OFFCURVE",
"2 716 CURVE",
"11 665 LINE",
"56 665 LINE",
"72 514 OFFCURVE",
"69 364 OFFCURVE",
"66 213 CURVE SMOOTH",
"64 100 OFFCURVE",
"52 -149 OFFCURVE",
"59 -162 CURVE SMOOTH",
"66 -176 OFFCURVE",
"121 -200 OFFCURVE",
"243 -250 CURVE",
"247 -194 LINE",
"191 -185 LINE"
);
}
);
width = 495;
}
);
leftKerningGroup = l;
leftMetricsKey = p;
rightKerningGroup = o;
rightMetricsKey = p;
unicode = 00FE;
},
{
color = 5;
glyphname = q;
lastChange = "2016-11-22 13:36:40 +0000";
layers = (
{
anchors = (
{
name = bottom;
position = "{247, 0}";
},
{
name = top;
position = "{247, 480}";
}
);
background = {
paths = (
{
closed = 1;
nodes = (
"434 -187 OFFCURVE",
"425 -120 OFFCURVE",
"429 39 CURVE SMOOTH",
"431 111 OFFCURVE",
"434 200 OFFCURVE",
"425 231 CURVE",
"406 236 OFFCURVE",
"333 240 OFFCURVE",
"243 207 CURVE",
"252 156 LINE",
"267 161 OFFCURVE",
"280 164 OFFCURVE",
"294 165 CURVE",
"330 132 OFFCURVE",
"311 -126 OFFCURVE",
"309 -149 CURVE SMOOTH",
"306 -177 OFFCURVE",
"349 -191 OFFCURVE",
"370 -193 CURVE SMOOTH",
"397 -196 OFFCURVE",
"410 -210 OFFCURVE",
"445 -210 CURVE"
);
}
);
};
layerId = "11343128-4963-4E5D-BE9C-B74F53B36FA5";
paths = (
{
closed = 1;
nodes = (
"319 399 OFFCURVE",
"315 298 OFFCURVE",
"315 151 CURVE SMOOTH",
"315 -11 OFFCURVE",
"311 -115 OFFCURVE",
"311 -157 CURVE",
"311 -172 OFFCURVE",
"364 -205 OFFCURVE",
"447 -229 CURVE",
"425 -162 OFFCURVE",
"426 111 OFFCURVE",
"440 443 CURVE",
"436 450 OFFCURVE",
"380 451 OFFCURVE",
"359 453 CURVE",
"354 440 OFFCURVE",
"351 429 OFFCURVE",
"333 396 CURVE",
"323 391 OFFCURVE",
"322 418 OFFCURVE",
"309 440 CURVE"
);
},
{
closed = 1;
nodes = (
"104 26 OFFCURVE",
"146 -3 OFFCURVE",
"205 -3 CURVE",
"240 6 OFFCURVE",
"322 42 OFFCURVE",
"355 67 CURVE",
"397 187 OFFCURVE",
"431 398 OFFCURVE",
"440 443 CURVE",
"399 478 OFFCURVE",
"276 495 OFFCURVE",
"211 482 CURVE SMOOTH",
"3 441 OFFCURVE",
"-21 146 OFFCURVE",
"84 45 CURVE SMOOTH"
);
},
{
closed = 1;
nodes = (
"259 407 OFFCURVE",
"311 395 OFFCURVE",
"333 346 CURVE SMOOTH",
"357 292 OFFCURVE",
"351 177 OFFCURVE",
"335 123 CURVE",
"324 116 OFFCURVE",
"267 92 OFFCURVE",
"216 92 CURVE",
"201 97 OFFCURVE",
"186 108 OFFCURVE",
"171 138 CURVE SMOOTH",
"129 222 OFFCURVE",
"141 361 OFFCURVE",
"216 407 CURVE"
);
},
{
closed = 1;
nodes = (
"260 -195 LINE",
"257 -250 LINE",
"486 -250 LINE",
"490 -194 LINE",
"432 -184 LINE",
"382 -184 LINE"
);
}
);
width = 496;
},
{
anchors = (
{
name = bottom;
position = "{240, 0}";
},
{
name = top;
position = "{240, 480}";
}
);
background = {
components = (
{
name = b;
transform = "{-1, 0, 0, -1, 495, 480}";
}
);
};
layerId = "0B1F8F77-7348-4C28-A663-EA76351238C4";
paths = (
{
closed = 1;
nodes = (
"322 399 OFFCURVE",
"318 298 OFFCURVE",
"318 151 CURVE SMOOTH",
"318 -11 OFFCURVE",
"314 -115 OFFCURVE",
"314 -157 CURVE",
"314 -172 OFFCURVE",
"347 -205 OFFCURVE",
"430 -229 CURVE",
"408 -162 OFFCURVE",
"409 111 OFFCURVE",
"423 443 CURVE",
"419 450 OFFCURVE",
"373 451 OFFCURVE",
"352 453 CURVE",
"347 440 OFFCURVE",
"344 429 OFFCURVE",
"326 396 CURVE",
"316 391 OFFCURVE",
"325 418 OFFCURVE",
"312 440 CURVE"
);
},
{
closed = 1;
nodes = (
"116 15 OFFCURVE",
"150 -3 OFFCURVE",
"195 -3 CURVE",
"230 6 OFFCURVE",
"315 42 OFFCURVE",
"348 67 CURVE",
"390 187 OFFCURVE",
"414 398 OFFCURVE",
"423 443 CURVE",
"382 478 OFFCURVE",
"269 495 OFFCURVE",
"204 482 CURVE SMOOTH",
"-4 441 OFFCURVE",
"-14 150 OFFCURVE",
"87 45 CURVE SMOOTH"
);
},
{
closed = 1;
nodes = (
"247 417 OFFCURVE",
"304 405 OFFCURVE",
"326 356 CURVE SMOOTH",
"350 302 OFFCURVE",
"344 166 OFFCURVE",
"328 112 CURVE",
"317 105 OFFCURVE",
"248 82 OFFCURVE",
"197 82 CURVE",
"182 87 OFFCURVE",
"167 108 OFFCURVE",
"152 138 CURVE SMOOTH",
"110 222 OFFCURVE",
"129 371 OFFCURVE",
"204 417 CURVE"
);
},
{
closed = 1;
nodes = (
"263 -195 LINE",
"260 -250 LINE",
"469 -250 LINE",
"473 -194 LINE",
"415 -184 LINE",
"375 -184 LINE"
);
}
);
width = 489;
}
);
leftKerningGroup = o;
leftMetricsKey = o;
rightKerningGroup = g;
unicode = 0071;
},
{
color = 1;
glyphname = r;
lastChange = "2016-11-22 13:43:17 +0000";
layers = (
{
anchors = (
{
name = bottom;
position = "{201, 0}";
},
{
name = top;
position = "{201, 480}";
}
);
background = {
components = (
{
name = a;
}
);
};
guideLines = (
{
position = "{143, 407}";
},
{
position = "{161, 457}";
}
);
layerId = "11343128-4963-4E5D-BE9C-B74F53B36FA5";
paths = (
{
closed = 1;
nodes = (
"12 54 LINE",
"9 -1 LINE",
"287 0 LINE",
"282 56 LINE",
"221 66 LINE",
"155 66 LINE"
);
},
{
closed = 1;
nodes = (
"212 117 OFFCURVE",
"212 137 OFFCURVE",
"212 289 CURVE SMOOTH",
"212 310 OFFCURVE",
"212 332 OFFCURVE",
"213 355 CURVE",
"213 365 OFFCURVE",
"209 376 OFFCURVE",
"209 386 CURVE",
"210 427 OFFCURVE",
"209 462 OFFCURVE",
"204 480 CURVE",
"186 486 OFFCURVE",
"96 490 OFFCURVE",
"6 457 CURVE",
"14 407 LINE",
"70 407 LINE",
"74 310 OFFCURVE",
"72 134 OFFCURVE",
"71 101 CURVE SMOOTH",
"70 73 OFFCURVE",
"106 59 OFFCURVE",
"127 57 CURVE SMOOTH",
"154 54 OFFCURVE",
"177 50 OFFCURVE",
"212 50 CURVE"
);
},
{
closed = 1;
nodes = (
"301 516 OFFCURVE",
"228 417 OFFCURVE",
"194 325 CURVE",
"193 293 LINE",
"218 314 OFFCURVE",
"270 370 OFFCURVE",
"297 369 CURVE",
"301 347 OFFCURVE",
"305 321 OFFCURVE",
"306 312 CURVE",
"321 312 OFFCURVE",
"360 315 OFFCURVE",
"382 322 CURVE",
"385 368 OFFCURVE",
"390 437 OFFCURVE",
"391 476 CURVE"
);
}
);
width = 403;
},
{
anchors = (
{
name = bottom;
position = "{216, 0}";
},
{
name = top;
position = "{216, 480}";
}
);
background = {
components = (
{
name = a;
transform = "{1, 0, 0, 1, 15, 0}";
}
);
};
guideLines = (
{
position = "{158, 407}";
},
{
position = "{176, 457}";
}
);
layerId = "0B1F8F77-7348-4C28-A663-EA76351238C4";
paths = (
{
closed = 1;
nodes = (
"47 54 LINE",
"44 -1 LINE",
"282 0 LINE",
"277 56 LINE",
"216 66 LINE",
"170 66 LINE"
);
},
{
closed = 1;
nodes = (
"207 117 OFFCURVE",
"207 133 OFFCURVE",
"207 285 CURVE SMOOTH",
"207 306 OFFCURVE",
"207 328 OFFCURVE",
"208 351 CURVE",
"208 361 OFFCURVE",
"208 361 OFFCURVE",
"204 367 CURVE",
"205 408 OFFCURVE",
"204 462 OFFCURVE",
"199 480 CURVE",
"181 486 OFFCURVE",
"131 490 OFFCURVE",
"41 457 CURVE",
"49 407 LINE",
"105 407 LINE",
"109 310 OFFCURVE",
"107 134 OFFCURVE",
"106 101 CURVE SMOOTH",
"105 73 OFFCURVE",
"141 61 OFFCURVE",
"162 57 CURVE SMOOTH",
"179 54 OFFCURVE",
"172 50 OFFCURVE",
"207 50 CURVE"
);
},
{
closed = 1;
nodes = (
"311 514 OFFCURVE",
"211 396 OFFCURVE",
"184 314 CURVE",
"191 296 LINE",
"213 324 OFFCURVE",
"271 382 OFFCURVE",
"318 381 CURVE",
"322 359 OFFCURVE",
"326 333 OFFCURVE",
"327 324 CURVE",
"342 324 OFFCURVE",
"370 328 OFFCURVE",
"392 335 CURVE",
"395 381 OFFCURVE",
"400 435 OFFCURVE",
"401 474 CURVE"
);
}
);
width = 436;
}
);
leftKerningGroup = i;
leftMetricsKey = i;
rightKerningGroup = r;
unicode = 0072;
},
{
color = 1;
glyphname = s;
lastChange = "2016-11-22 13:42:55 +0000";
layers = (
{
anchors = (
{
name = bottom;
position = "{197, 0}";
},
{
name = top;
position = "{197, 480}";
}
);
background = {
paths = (
{
closed = 1;
nodes = (
"179 510 OFFCURVE",
"298 495 OFFCURVE",
"356 441 CURVE",
"358 427 OFFCURVE",
"331 369 OFFCURVE",
"314 336 CURVE",
"278 366 OFFCURVE",
"209 402 OFFCURVE",
"140 409 CURVE",
"104 384 OFFCURVE",
"109 328 OFFCURVE",
"223 286 CURVE SMOOTH",
"282 264 OFFCURVE",
"350 225 OFFCURVE",
"346 131 CURVE SMOOTH",
"342 47 OFFCURVE",
"259 -7 OFFCURVE",
"178 -9 CURVE SMOOTH",
"109 -11 OFFCURVE",
"42 7 OFFCURVE",
"14 29 CURVE",
"18 54 OFFCURVE",
"45 108 OFFCURVE",
"59 134 CURVE",
"96 95 OFFCURVE",
"177 82 OFFCURVE",
"213 79 CURVE",
"245 100 OFFCURVE",
"253 162 OFFCURVE",
"142 203 CURVE SMOOTH",
"71 229 OFFCURVE",
"4 262 OFFCURVE",
"4 355 CURVE SMOOTH",
"4 418 OFFCURVE",
"56 461 OFFCURVE",
"96 478 CURVE SMOOTH"
);
},
{
closed = 1;
nodes = (
"117 55 LINE",
"14 29 LINE",
"22 148 LINE",
"44 154 OFFCURVE",
"64 159 OFFCURVE",
"83 160 CURVE",
"86 137 OFFCURVE",
"90 113 OFFCURVE",
"96 95 CURVE"
);
}
);
};
layerId = "11343128-4963-4E5D-BE9C-B74F53B36FA5";
paths = (
{
closed = 1;
nodes = (
"384 134 CURVE SMOOTH",
"388 210 OFFCURVE",
"342 256 OFFCURVE",
"269 285 CURVE SMOOTH",
"133 335 OFFCURVE",
"127 385 OFFCURVE",
"157 406 CURVE",
"202 405 OFFCURVE",
"292 389 OFFCURVE",
"331 350 CURVE",
"345 376 OFFCURVE",
"357 420 OFFCURVE",
"361 452 CURVE",
"332 474 OFFCURVE",
"259 492 OFFCURVE",
"190 490 CURVE SMOOTH",
"103 487 OFFCURVE",
"32 436 OFFCURVE",
"27 352 CURVE SMOOTH",
"20 258 OFFCURVE",
"93 216 OFFCURVE",
"153 193 CURVE SMOOTH",
"275 147 OFFCURVE",
"290 105 OFFCURVE",
"258 76 CURVE",
"187 80 OFFCURVE",
"117 98 OFFCURVE",
"66 131 CURVE",
"48 98 OFFCURVE",
"44 66 OFFCURVE",
"29 31 CURVE",
"61 5 OFFCURVE",
"142 -16 OFFCURVE",
"221 -13 CURVE SMOOTH",
"315 -9 OFFCURVE",
"379 47 OFFCURVE"
);
},
{
closed = 1;
nodes = (
"277 361 OFFCURVE",
"281 337 OFFCURVE",
"284 314 CURVE",
"303 315 OFFCURVE",
"330 320 OFFCURVE",
"353 326 CURVE",
"361 452 LINE",
"259 419 LINE",
"271 379 LINE"
);
},
{
closed = 1;
nodes = (
"29 109 OFFCURVE",
"27 71 OFFCURVE",
"29 31 CURVE",
"143 56 LINE",
"126 96 LINE",
"115 161 LINE",
"83 158 OFFCURVE",
"44 152 OFFCURVE",
"34 149 CURVE"
);
}
);
width = 404;
},
{
anchors = (
{
name = bottom;
position = "{229, 0}";
},
{
name = top;
position = "{229, 480}";
}
);
background = {
paths = (
{
closed = 1;
nodes = (
"58 345 CURVE SMOOTH",
"54 269 OFFCURVE",
"123 232 OFFCURVE",
"196 203 CURVE SMOOTH",
"331 149 OFFCURVE",
"332 79 OFFCURVE",
"299 58 CURVE",
"254 59 OFFCURVE",
"150 79 OFFCURVE",
"111 118 CURVE",
"97 92 OFFCURVE",
"85 58 OFFCURVE",
"81 26 CURVE",
"110 4 OFFCURVE",
"183 -14 OFFCURVE",
"252 -12 CURVE SMOOTH",
"339 -9 OFFCURVE",
"410 33 OFFCURVE",
"415 117 CURVE SMOOTH",
"421 211 OFFCURVE",
"336 248 OFFCURVE",
"276 271 CURVE SMOOTH",
"154 318 OFFCURVE",
"132 389 OFFCURVE",
"169 417 CURVE",
"240 413 OFFCURVE",
"345 390 OFFCURVE",
"376 357 CURVE",
"394 390 OFFCURVE",
"398 412 OFFCURVE",
"413 447 CURVE",
"381 473 OFFCURVE",
"300 494 OFFCURVE",
"221 491 CURVE SMOOTH",
"127 487 OFFCURVE",
"63 432 OFFCURVE"
);
},
{
closed = 1;
nodes = (
"155 117 OFFCURVE",
"151 141 OFFCURVE",
"148 164 CURVE",
"129 163 OFFCURVE",
"112 158 OFFCURVE",
"89 152 CURVE",
"81 26 LINE",
"183 59 LINE",
"161 99 LINE"
);
},
{
closed = 1;
nodes = (
"413 369 OFFCURVE",
"415 407 OFFCURVE",
"413 447 CURVE",
"319 422 LINE",
"336 382 LINE",
"347 317 LINE",
"379 320 OFFCURVE",
"398 326 OFFCURVE",
"408 329 CURVE"
);
}
);
};
layerId = "0B1F8F77-7348-4C28-A663-EA76351238C4";
paths = (
{
closed = 1;
nodes = (
"416 131 CURVE SMOOTH",
"420 207 OFFCURVE",
"351 246 OFFCURVE",
"278 275 CURVE SMOOTH",
"142 325 OFFCURVE",
"142 399 OFFCURVE",
"175 420 CURVE",
"220 419 OFFCURVE",
"324 399 OFFCURVE",
"363 360 CURVE",
"377 386 OFFCURVE",
"389 420 OFFCURVE",
"393 452 CURVE",
"364 474 OFFCURVE",
"291 492 OFFCURVE",
"222 490 CURVE SMOOTH",
"135 487 OFFCURVE",
"64 440 OFFCURVE",
"59 356 CURVE SMOOTH",
"52 262 OFFCURVE",
"138 230 OFFCURVE",
"198 207 CURVE SMOOTH",
"320 161 OFFCURVE",
"342 89 OFFCURVE",
"305 61 CURVE",
"234 65 OFFCURVE",
"129 88 OFFCURVE",
"98 121 CURVE",
"80 88 OFFCURVE",
"76 66 OFFCURVE",
"61 31 CURVE",
"93 5 OFFCURVE",
"174 -16 OFFCURVE",
"253 -13 CURVE SMOOTH",
"347 -9 OFFCURVE",
"411 44 OFFCURVE"
);
},
{
closed = 1;
nodes = (
"319 361 OFFCURVE",
"323 337 OFFCURVE",
"326 314 CURVE",
"345 315 OFFCURVE",
"362 320 OFFCURVE",
"385 326 CURVE",
"393 452 LINE",
"291 419 LINE",
"313 379 LINE"
);
},
{
closed = 1;
nodes = (
"61 109 OFFCURVE",
"59 71 OFFCURVE",
"61 31 CURVE",
"155 56 LINE",
"138 96 LINE",
"127 161 LINE",
"95 158 OFFCURVE",
"76 152 OFFCURVE",
"66 149 CURVE"
);
}
);
width = 467;
}
);
leftKerningGroup = o;
rightKerningGroup = o;
unicode = 0073;
},
{
glyphname = germandbls;
lastChange = "2016-11-22 13:56:40 +0000";
layers = (
{
background = {
components = (
{
name = f;
transform = "{1, 0, 0, 1, 7, 0}";
}
);
};
layerId = "11343128-4963-4E5D-BE9C-B74F53B36FA5";
paths = (
{
closed = 1;
nodes = (
"172 378 LINE",
"204 465 LINE",
"93 554 LINE",
"72 483 LINE",
"71 462 OFFCURVE",
"62 460 OFFCURVE",
"32 458 CURVE SMOOTH",
"17 457 LINE",
"15 387 LINE",
"19 387 OFFCURVE",
"63 374 OFFCURVE",
"78 374 CURVE"
);
},
{
closed = 1;
nodes = (
"585 290 OFFCURVE",
"484 327 OFFCURVE",
"364 392 CURVE",
"523 469 OFFCURVE",
"543 756 OFFCURVE",
"280 739 CURVE SMOOTH",
"161 731 OFFCURVE",
"73 626 OFFCURVE",
"73 480 CURVE SMOOTH",
"73 399 OFFCURVE",
"70 263 OFFCURVE",
"70 105 CURVE SMOOTH",
"70 94 OFFCURVE",
"84 81 OFFCURVE",
"104 73 CURVE",
"22 65 LINE",
"19 0 LINE",
"205 0 LINE",
"204 403 LINE SMOOTH",
"204 453 OFFCURVE",
"205 500 OFFCURVE",
"205 531 CURVE SMOOTH",
"205 621 OFFCURVE",
"233 666 OFFCURVE",
"272 668 CURVE",
"335 650 OFFCURVE",
"378 510 OFFCURVE",
"258 405 CURVE",
"257 391 OFFCURVE",
"255 371 OFFCURVE",
"257 343 CURVE",
"257 277 OFFCURVE",
"444 256 OFFCURVE",
"444 143 CURVE SMOOTH",
"444 80 OFFCURVE",
"375 40 OFFCURVE",
"301 79 CURVE",
"278 16 LINE",
"409 -58 OFFCURVE",
"585 12 OFFCURVE",
"585 162 CURVE SMOOTH"
);
},
{
closed = 1;
nodes = (
"112 0 LINE",
"243 0 LINE",
"247 70 LINE",
"188 79 LINE"
);
}
);
width = 598;
},
{
background = {
components = (
{
name = f;
transform = "{1, 0, 0, 1, 3, 0}";
}
);
};
layerId = "0B1F8F77-7348-4C28-A663-EA76351238C4";
paths = (
{
closed = 1;
nodes = (
"168 393 LINE",
"180 465 LINE",
"109 554 LINE",
"88 483 LINE",
"87 462 OFFCURVE",
"77 466 OFFCURVE",
"38 458 CURVE SMOOTH",
"33 457 LINE",
"31 402 LINE",
"35 402 OFFCURVE",
"79 389 OFFCURVE",
"94 389 CURVE"
);
},
{
closed = 1;
nodes = (
"565 290 OFFCURVE",
"467 329 OFFCURVE",
"347 397 CURVE",
"496 469 OFFCURVE",
"529 756 OFFCURVE",
"276 739 CURVE SMOOTH",
"157 731 OFFCURVE",
"89 626 OFFCURVE",
"89 480 CURVE SMOOTH",
"89 404 OFFCURVE",
"86 253 OFFCURVE",
"86 95 CURVE SMOOTH",
"86 84 OFFCURVE",
"100 71 OFFCURVE",
"120 63 CURVE",
"28 55 LINE",
"25 0 LINE",
"181 0 LINE",
"180 403 LINE SMOOTH",
"180 453 OFFCURVE",
"181 500 OFFCURVE",
"181 531 CURVE SMOOTH",
"181 621 OFFCURVE",
"229 680 OFFCURVE",
"268 682 CURVE",
"361 664 OFFCURVE",
"414 510 OFFCURVE",
"264 405 CURVE",
"263 391 OFFCURVE",
"261 389 OFFCURVE",
"263 361 CURVE",
"263 295 OFFCURVE",
"464 258 OFFCURVE",
"464 145 CURVE SMOOTH",
"464 71 OFFCURVE",
"387 31 OFFCURVE",
"297 79 CURVE",
"274 24 LINE",
"398 -60 OFFCURVE",
"565 12 OFFCURVE",
"565 162 CURVE SMOOTH"
);
},
{
closed = 1;
nodes = (
"118 0 LINE",
"239 0 LINE",
"243 60 LINE",
"174 69 LINE"
);
}
);
width = 580;
}
);
leftKerningGroup = f;
leftMetricsKey = f;
rightKerningGroup = z;
rightMetricsKey = "=o-10";
unicode = 00DF;
},
{
color = 5;
glyphname = t;
lastChange = "2016-11-22 13:36:40 +0000";
layers = (
{
anchors = (
{
name = bottom;
position = "{162, 0}";
},
{
name = center;
position = "{162, 240}";
},
{
name = top;
position = "{162, 480}";
},
{
name = topright;
position = "{303, 480}";
}
);
background = {
paths = (
{
closed = 1;
nodes = (
"68 333 LINE SMOOTH",
"68 376 OFFCURVE",
"57 386 OFFCURVE",
"14 387 CURVE",
"4 394 LINE",
"11 444 LINE",
"54 464 OFFCURVE",
"97 490 OFFCURVE",
"129 513 CURVE SMOOTH",
"148 526 OFFCURVE",
"165 539 OFFCURVE",
"181 552 CURVE",
"209 537 LINE",
"206 524 OFFCURVE",
"204 509 OFFCURVE",
"202 487 CURVE SMOOTH",
"201 476 OFFCURVE",
"199 463 OFFCURVE",
"198 450 CURVE",
"315 453 LINE",
"319 448 LINE",
"309 380 LINE",
"192 383 LINE",
"189 324 OFFCURVE",
"186 255 OFFCURVE",
"186 167 CURVE SMOOTH",
"186 111 OFFCURVE",
"205 87 OFFCURVE",
"250 87 CURVE SMOOTH",
"264 87 OFFCURVE",
"277 89 OFFCURVE",
"290 94 CURVE",
"297 96 OFFCURVE",
"303 98 OFFCURVE",
"309 101 CURVE",
"321 68 LINE",
"289 39 OFFCURVE",
"263 17 OFFCURVE",
"237 1 CURVE",
"224 -8 OFFCURVE",
"213 -12 OFFCURVE",
"206 -12 CURVE SMOOTH",
"110 -12 OFFCURVE",
"68 26 OFFCURVE",
"68 111 CURVE SMOOTH"
);
}
);
};
guideLines = (
{
angle = -90;
position = "{281, 135}";
},
{
position = "{146, 21}";
},
{
position = "{164, 71}";
},
{
position = "{146, 407}";
},
{
position = "{164, 457}";
}
);
layerId = "11343128-4963-4E5D-BE9C-B74F53B36FA5";
paths = (
{
closed = 1;
nodes = (
"253 465 OFFCURVE",
"197 464 OFFCURVE",
"180 463 CURVE",
"181 490 OFFCURVE",
"181 528 OFFCURVE",
"181 559 CURVE",
"149 563 OFFCURVE",
"97 557 OFFCURVE",
"81 554 CURVE",
"79 509 LINE",
"78 468 OFFCURVE",
"72 460 OFFCURVE",
"33 457 CURVE SMOOTH",
"20 456 LINE",
"20 393 LINE",
"23 393 OFFCURVE",
"44 393 OFFCURVE",
"63 393 CURVE",
"62 356 OFFCURVE",
"54 213 OFFCURVE",
"59 108 CURVE SMOOTH",
"61 53 OFFCURVE",
"81 21 OFFCURVE",
"101 8 CURVE SMOOTH",
"152 -25 OFFCURVE",
"234 -6 OFFCURVE",
"301 23 CURVE",
"292 77 LINE",
"263 75 OFFCURVE",
"225 73 OFFCURVE",
"200 73 CURVE",
"173 108 OFFCURVE",
"180 279 OFFCURVE",
"182 391 CURVE",
"260 389 OFFCURVE",
"289 388 OFFCURVE",
"294 390 CURVE SMOOTH",
"302 393 OFFCURVE",
"302 443 OFFCURVE",
"302 468 CURVE"
);
}
);
width = 322;
},
{
anchors = (
{
name = bottom;
position = "{162, 0}";
},
{
name = center;
position = "{162, 240}";
},
{
name = top;
position = "{162, 480}";
},
{
name = topright;
position = "{303, 480}";
}
);
background = {
paths = (
{
closed = 1;
nodes = (
"68 333 LINE SMOOTH",
"68 376 OFFCURVE",
"57 386 OFFCURVE",
"14 387 CURVE",
"4 394 LINE",
"11 444 LINE",
"54 464 OFFCURVE",
"97 490 OFFCURVE",
"129 513 CURVE SMOOTH",
"148 526 OFFCURVE",
"165 539 OFFCURVE",
"181 552 CURVE",
"209 537 LINE",
"206 524 OFFCURVE",
"204 509 OFFCURVE",
"202 487 CURVE SMOOTH",
"201 476 OFFCURVE",
"199 463 OFFCURVE",
"198 450 CURVE",
"315 453 LINE",
"319 448 LINE",
"309 380 LINE",
"192 383 LINE",
"189 324 OFFCURVE",
"186 255 OFFCURVE",
"186 167 CURVE SMOOTH",
"186 111 OFFCURVE",
"205 87 OFFCURVE",
"250 87 CURVE SMOOTH",
"264 87 OFFCURVE",
"277 89 OFFCURVE",
"290 94 CURVE",
"297 96 OFFCURVE",
"303 98 OFFCURVE",
"309 101 CURVE",
"321 68 LINE",
"289 39 OFFCURVE",
"263 17 OFFCURVE",
"237 1 CURVE",
"224 -8 OFFCURVE",
"213 -12 OFFCURVE",
"206 -12 CURVE SMOOTH",
"110 -12 OFFCURVE",
"68 26 OFFCURVE",
"68 111 CURVE SMOOTH"
);
}
);
};
guideLines = (
{
angle = -90;
position = "{281, 135}";
},
{
position = "{146, 21}";
},
{
position = "{164, 71}";
},
{
position = "{146, 407}";
},
{
position = "{164, 457}";
}
);
layerId = "0B1F8F77-7348-4C28-A663-EA76351238C4";
paths = (
{
closed = 1;
nodes = (
"243 465 OFFCURVE",
"187 464 OFFCURVE",
"170 463 CURVE",
"171 490 OFFCURVE",
"171 528 OFFCURVE",
"171 559 CURVE",
"139 563 OFFCURVE",
"107 557 OFFCURVE",
"91 554 CURVE",
"89 509 LINE",
"88 468 OFFCURVE",
"82 460 OFFCURVE",
"43 457 CURVE SMOOTH",
"30 456 LINE",
"30 393 LINE",
"33 393 OFFCURVE",
"54 393 OFFCURVE",
"73 393 CURVE",
"72 356 OFFCURVE",
"63 213 OFFCURVE",
"69 108 CURVE SMOOTH",
"72 53 OFFCURVE",
"91 21 OFFCURVE",
"111 8 CURVE SMOOTH",
"162 -25 OFFCURVE",
"224 -6 OFFCURVE",
"291 23 CURVE",
"282 77 LINE",
"253 75 OFFCURVE",
"215 73 OFFCURVE",
"190 73 CURVE",
"163 108 OFFCURVE",
"170 279 OFFCURVE",
"172 391 CURVE",
"250 389 OFFCURVE",
"279 388 OFFCURVE",
"284 390 CURVE SMOOTH",
"292 393 OFFCURVE",
"292 443 OFFCURVE",
"292 468 CURVE"
);
}
);
width = 322;
}
);
leftKerningGroup = i;
rightKerningGroup = t;
unicode = 0074;
},
{
color = 5;
glyphname = u;
lastChange = "2016-11-22 13:36:40 +0000";
layers = (
{
anchors = (
{
name = bottom;
position = "{264, 0}";
},
{
name = ogonek;
position = "{479, 10}";
},
{
name = top;
position = "{252, 480}";
},
{
name = topright;
position = "{513, 480}";
}
);
background = {
components = (
{
name = n;
}
);
};
guideLines = (
{
position = "{141, 21}";
},
{
position = "{159, 71}";
},
{
position = "{141, 407}";
},
{
position = "{159, 457}";
}
);
layerId = "11343128-4963-4E5D-BE9C-B74F53B36FA5";
paths = (
{
closed = 1;
nodes = (
"355 156 LINE",
"296 119 OFFCURVE",
"229 100 OFFCURVE",
"197 98 CURVE",
"197 378 OFFCURVE",
"202 433 OFFCURVE",
"185 480 CURVE",
"123 493 OFFCURVE",
"58 475 OFFCURVE",
"7 458 CURVE",
"16 408 LINE",
"65 408 LINE",
"76 346 OFFCURVE",
"69 175 OFFCURVE",
"69 98 CURVE SMOOTH",
"69 39 OFFCURVE",
"89 -6 OFFCURVE",
"171 -3 CURVE",
"242 18 OFFCURVE",
"346 80 OFFCURVE",
"355 105 CURVE"
);
},
{
closed = 1;
nodes = (
"455 71 LINE",
"448 113 OFFCURVE",
"450 141 OFFCURVE",
"451 286 CURVE SMOOTH",
"452 390 OFFCURVE",
"456 453 OFFCURVE",
"448 480 CURVE",
"394 492 OFFCURVE",
"332 474 OFFCURVE",
"275 457 CURVE",
"283 407 LINE",
"329 407 LINE",
"336 343 OFFCURVE",
"333 175 OFFCURVE",
"332 116 CURVE",
"333 90 OFFCURVE",
"330 35 OFFCURVE",
"342 0 CURVE",
"441 -11 OFFCURVE",
"503 9 OFFCURVE",
"528 21 CURVE",
"519 71 LINE"
);
}
);
width = 538;
},
{
anchors = (
{
name = bottom;
position = "{264, 0}";
},
{
name = ogonek;
position = "{479, 10}";
},
{
name = top;
position = "{252, 480}";
},
{
name = topright;
position = "{513, 480}";
}
);
background = {
components = (
{
name = n;
}
);
};
guideLines = (
{
position = "{141, 21}";
},
{
position = "{159, 71}";
},
{
position = "{141, 407}";
},
{
position = "{159, 457}";
}
);
layerId = "0B1F8F77-7348-4C28-A663-EA76351238C4";
paths = (
{
closed = 1;
nodes = (
"355 146 LINE",
"296 109 OFFCURVE",
"219 90 OFFCURVE",
"187 88 CURVE",
"187 368 OFFCURVE",
"192 433 OFFCURVE",
"175 480 CURVE",
"113 493 OFFCURVE",
"68 475 OFFCURVE",
"17 458 CURVE",
"26 408 LINE",
"75 408 LINE",
"86 346 OFFCURVE",
"79 175 OFFCURVE",
"79 98 CURVE SMOOTH",
"79 39 OFFCURVE",
"89 -6 OFFCURVE",
"171 -3 CURVE",
"242 18 OFFCURVE",
"346 80 OFFCURVE",
"355 105 CURVE"
);
},
{
closed = 1;
nodes = (
"445 71 LINE",
"438 113 OFFCURVE",
"440 141 OFFCURVE",
"441 286 CURVE SMOOTH",
"442 390 OFFCURVE",
"446 453 OFFCURVE",
"438 480 CURVE",
"384 492 OFFCURVE",
"342 474 OFFCURVE",
"285 457 CURVE",
"293 407 LINE",
"339 407 LINE",
"346 343 OFFCURVE",
"343 175 OFFCURVE",
"342 116 CURVE",
"343 90 OFFCURVE",
"340 35 OFFCURVE",
"352 0 CURVE",
"441 -11 OFFCURVE",
"493 9 OFFCURVE",
"518 21 CURVE",
"509 71 LINE"
);
}
);
width = 538;
}
);
leftKerningGroup = u;
rightKerningGroup = i;
unicode = 0075;
},
{
color = 5;
glyphname = v;
lastChange = "2016-11-22 13:36:40 +0000";
layers = (
{
anchors = (
{
name = bottom;
position = "{246, 0}";
},
{
name = top;
position = "{246, 480}";
}
);
background = {
components = (
{
name = w;
}
);
};
guideLines = (
{
position = "{139, 21}";
},
{
position = "{157, 71}";
},
{
position = "{139, 407}";
},
{
position = "{157, 457}";
}
);
layerId = "11343128-4963-4E5D-BE9C-B74F53B36FA5";
paths = (
{
closed = 1;
nodes = (
"300 109 OFFCURVE",
"292 115 OFFCURVE",
"245 267 CURVE SMOOTH",
"223 339 OFFCURVE",
"198 450 OFFCURVE",
"184 481 CURVE",
"163 487 OFFCURVE",
"91 486 OFFCURVE",
"10 457 CURVE",
"19 407 LINE",
"55 407 LINE",
"94 365 OFFCURVE",
"173 123 OFFCURVE",
"200 -1 CURVE",
"214 -1 OFFCURVE",
"232 -1 OFFCURVE",
"249 -1 CURVE",
"272 16 OFFCURVE",
"290 84 OFFCURVE",
"317 86 CURVE"
);
},
{
closed = 1;
nodes = (
"385 132 OFFCURVE",
"488 345 OFFCURVE",
"474 481 CURVE",
"452 486 OFFCURVE",
"380 487 OFFCURVE",
"308 457 CURVE",
"317 407 LINE",
"360 407 LINE",
"390 361 OFFCURVE",
"334 156 OFFCURVE",
"224 49 CURVE SMOOTH",
"216 41 OFFCURVE",
"217 7 OFFCURVE",
"211 -1 CURVE",
"296 0 LINE"
);
}
);
width = 491;
},
{
anchors = (
{
name = bottom;
position = "{246, 0}";
},
{
name = top;
position = "{246, 480}";
}
);
background = {
components = (
{
name = w;
}
);
};
guideLines = (
{
position = "{139, 21}";
},
{
position = "{157, 71}";
},
{
position = "{139, 407}";
},
{
position = "{157, 457}";
}
);
layerId = "0B1F8F77-7348-4C28-A663-EA76351238C4";
paths = (
{
closed = 1;
nodes = (
"290 109 OFFCURVE",
"282 115 OFFCURVE",
"235 267 CURVE SMOOTH",
"213 339 OFFCURVE",
"188 450 OFFCURVE",
"174 481 CURVE",
"153 487 OFFCURVE",
"101 486 OFFCURVE",
"20 457 CURVE",
"29 407 LINE",
"65 407 LINE",
"104 365 OFFCURVE",
"183 123 OFFCURVE",
"210 -1 CURVE",
"224 -1 OFFCURVE",
"232 -1 OFFCURVE",
"249 -1 CURVE",
"272 16 OFFCURVE",
"280 84 OFFCURVE",
"307 86 CURVE"
);
},
{
closed = 1;
nodes = (
"385 132 OFFCURVE",
"488 345 OFFCURVE",
"474 481 CURVE",
"452 486 OFFCURVE",
"390 487 OFFCURVE",
"318 457 CURVE",
"327 407 LINE",
"370 407 LINE",
"400 361 OFFCURVE",
"344 156 OFFCURVE",
"234 49 CURVE SMOOTH",
"226 41 OFFCURVE",
"217 7 OFFCURVE",
"211 -1 CURVE",
"296 0 LINE"
);
}
);
width = 491;
}
);
leftKerningGroup = v;
rightKerningGroup = g;
unicode = 0076;
},
{
color = 5;
glyphname = w;
lastChange = "2016-11-22 13:36:40 +0000";
layers = (
{
anchors = (
{
name = bottom;
position = "{371, 0}";
},
{
name = top;
position = "{371, 480}";
}
);
background = {
components = (
{
name = v;
transform = "{1, 0, 0, 1, -1, 0}";
}
);
};
guideLines = (
{
position = "{579, 457}";
},
{
position = "{146, 21}";
},
{
position = "{164, 71}";
},
{
position = "{146, 407}";
},
{
position = "{164, 457}";
}
);
layerId = "11343128-4963-4E5D-BE9C-B74F53B36FA5";
paths = (
{
closed = 1;
nodes = (
"306 109 OFFCURVE",
"296 115 OFFCURVE",
"249 267 CURVE SMOOTH",
"228 339 OFFCURVE",
"201 450 OFFCURVE",
"188 481 CURVE",
"166 486 OFFCURVE",
"100 490 OFFCURVE",
"15 457 CURVE",
"24 407 LINE",
"62 407 LINE",
"100 365 OFFCURVE",
"181 124 OFFCURVE",
"203 0 CURVE",
"217 0 OFFCURVE",
"235 0 OFFCURVE",
"253 0 CURVE",
"275 17 OFFCURVE",
"297 84 OFFCURVE",
"323 86 CURVE"
);
},
{
closed = 1;
nodes = (
"365 115 OFFCURVE",
"424 248 OFFCURVE",
"436 312 CURVE",
"387 406 LINE",
"386 349 OFFCURVE",
"336 157 OFFCURVE",
"230 50 CURVE SMOOTH",
"223 42 OFFCURVE",
"222 8 OFFCURVE",
"216 0 CURVE",
"296 0 LINE"
);
},
{
closed = 1;
nodes = (
"625 132 OFFCURVE",
"723 345 OFFCURVE",
"709 481 CURVE",
"687 486 OFFCURVE",
"616 487 OFFCURVE",
"547 457 CURVE",
"556 407 LINE",
"599 407 LINE",
"630 361 OFFCURVE",
"579 157 OFFCURVE",
"473 50 CURVE SMOOTH",
"466 42 OFFCURVE",
"465 8 OFFCURVE",
"458 0 CURVE",
"538 0 LINE"
);
},
{
closed = 1;
nodes = (
"555 109 OFFCURVE",
"545 115 OFFCURVE",
"498 267 CURVE SMOOTH",
"477 339 OFFCURVE",
"450 450 OFFCURVE",
"437 481 CURVE",
"415 486 OFFCURVE",
"348 490 OFFCURVE",
"263 457 CURVE",
"272 407 LINE",
"310 407 LINE",
"348 365 OFFCURVE",
"430 124 OFFCURVE",
"452 0 CURVE",
"466 0 OFFCURVE",
"484 0 OFFCURVE",
"502 0 CURVE",
"524 17 OFFCURVE",
"546 84 OFFCURVE",
"572 86 CURVE"
);
}
);
width = 726;
},
{
anchors = (
{
name = bottom;
position = "{371, 0}";
},
{
name = top;
position = "{371, 480}";
}
);
background = {
components = (
{
name = v;
transform = "{1, 0, 0, 1, -1, 0}";
}
);
};
guideLines = (
{
position = "{579, 457}";
},
{
position = "{146, 21}";
},
{
position = "{164, 71}";
},
{
position = "{146, 407}";
},
{
position = "{164, 457}";
}
);
layerId = "0B1F8F77-7348-4C28-A663-EA76351238C4";
paths = (
{
closed = 1;
nodes = (
"296 109 OFFCURVE",
"284 114 OFFCURVE",
"239 267 CURVE SMOOTH",
"218 339 OFFCURVE",
"191 450 OFFCURVE",
"178 481 CURVE",
"156 486 OFFCURVE",
"110 490 OFFCURVE",
"25 457 CURVE",
"34 407 LINE",
"72 407 LINE",
"110 365 OFFCURVE",
"191 124 OFFCURVE",
"213 0 CURVE",
"227 0 OFFCURVE",
"235 0 OFFCURVE",
"253 0 CURVE",
"275 17 OFFCURVE",
"287 84 OFFCURVE",
"313 86 CURVE"
);
},
{
closed = 1;
nodes = (
"365 115 OFFCURVE",
"424 248 OFFCURVE",
"436 312 CURVE",
"397 406 LINE",
"396 349 OFFCURVE",
"346 157 OFFCURVE",
"240 50 CURVE SMOOTH",
"233 42 OFFCURVE",
"232 8 OFFCURVE",
"226 0 CURVE",
"296 0 LINE"
);
},
{
closed = 1;
nodes = (
"625 132 OFFCURVE",
"723 345 OFFCURVE",
"709 481 CURVE",
"687 486 OFFCURVE",
"626 487 OFFCURVE",
"557 457 CURVE",
"566 407 LINE",
"609 407 LINE",
"640 361 OFFCURVE",
"589 157 OFFCURVE",
"483 50 CURVE SMOOTH",
"476 42 OFFCURVE",
"475 8 OFFCURVE",
"468 0 CURVE",
"538 0 LINE"
);
},
{
closed = 1;
nodes = (
"545 109 OFFCURVE",
"535 115 OFFCURVE",
"488 267 CURVE SMOOTH",
"467 339 OFFCURVE",
"440 450 OFFCURVE",
"427 481 CURVE",
"405 486 OFFCURVE",
"362 490 OFFCURVE",
"277 457 CURVE",
"286 407 LINE",
"324 407 LINE",
"362 365 OFFCURVE",
"440 124 OFFCURVE",
"462 0 CURVE",
"476 0 OFFCURVE",
"484 0 OFFCURVE",
"502 0 CURVE",
"524 17 OFFCURVE",
"536 84 OFFCURVE",
"562 86 CURVE"
);
}
);
width = 726;
}
);
leftKerningGroup = v;
rightKerningGroup = g;
unicode = 0077;
},
{
color = 5;
glyphname = x;
lastChange = "2016-11-22 13:36:40 +0000";
layers = (
{
anchors = (
{
name = bottom;
position = "{244, 0}";
},
{
name = top;
position = "{244, 480}";
}
);
background = {
components = (
{
name = n;
transform = "{1, 0, 0, 1, 275, 0}";
}
);
};
guideLines = (
{
position = "{146, 21}";
},
{
position = "{164, 71}";
},
{
position = "{146, 407}";
},
{
position = "{164, 457}";
}
);
layerId = "11343128-4963-4E5D-BE9C-B74F53B36FA5";
paths = (
{
closed = 1;
nodes = (
"275 264 LINE",
"243 336 OFFCURVE",
"204 449 OFFCURVE",
"188 480 CURVE",
"166 485 OFFCURVE",
"97 489 OFFCURVE",
"19 456 CURVE",
"28 406 LINE",
"68 406 LINE",
"94 381 OFFCURVE",
"146 286 OFFCURVE",
"194 183 CURVE"
);
},
{
closed = 1;
nodes = (
"209 211 LINE",
"242 139 OFFCURVE",
"285 31 OFFCURVE",
"305 0 CURVE",
"327 -5 OFFCURVE",
"397 -12 OFFCURVE",
"472 21 CURVE",
"463 71 LINE",
"423 71 LINE",
"397 96 OFFCURVE",
"334 182 OFFCURVE",
"284 285 CURVE"
);
},
{
closed = 1;
nodes = (
"364 271 OFFCURVE",
"481 386 OFFCURVE",
"464 480 CURVE",
"443 485 OFFCURVE",
"359 487 OFFCURVE",
"289 458 CURVE",
"299 408 LINE",
"349 408 LINE",
"374 365 OFFCURVE",
"303 309 OFFCURVE",
"230 241 CURVE",
"243 235 OFFCURVE",
"268 217 OFFCURVE",
"282 212 CURVE"
);
},
{
closed = 1;
nodes = (
"120 209 OFFCURVE",
"4 99 OFFCURVE",
"25 -1 CURVE",
"46 -6 OFFCURVE",
"130 -8 OFFCURVE",
"200 21 CURVE",
"190 71 LINE",
"140 71 LINE",
"115 114 OFFCURVE",
"182 172 OFFCURVE",
"259 239 CURVE",
"246 245 OFFCURVE",
"221 263 OFFCURVE",
"207 268 CURVE"
);
}
);
width = 487;
},
{
anchors = (
{
name = bottom;
position = "{244, 0}";
},
{
name = top;
position = "{244, 480}";
}
);
background = {
components = (
{
name = n;
transform = "{1, 0, 0, 1, 275, 0}";
}
);
};
guideLines = (
{
position = "{146, 21}";
},
{
position = "{164, 71}";
},
{
position = "{146, 407}";
},
{
position = "{164, 457}";
}
);
layerId = "0B1F8F77-7348-4C28-A663-EA76351238C4";
paths = (
{
closed = 1;
nodes = (
"270 264 LINE",
"238 336 OFFCURVE",
"191 449 OFFCURVE",
"175 480 CURVE",
"153 485 OFFCURVE",
"103 489 OFFCURVE",
"25 456 CURVE",
"34 406 LINE",
"74 406 LINE",
"100 381 OFFCURVE",
"160 301 OFFCURVE",
"208 198 CURVE"
);
},
{
closed = 1;
nodes = (
"214 216 LINE",
"247 144 OFFCURVE",
"295 31 OFFCURVE",
"315 0 CURVE",
"337 -5 OFFCURVE",
"387 -12 OFFCURVE",
"462 21 CURVE",
"453 71 LINE",
"413 71 LINE",
"387 96 OFFCURVE",
"331 161 OFFCURVE",
"281 264 CURVE"
);
},
{
closed = 1;
nodes = (
"362 271 OFFCURVE",
"474 386 OFFCURVE",
"457 480 CURVE",
"436 485 OFFCURVE",
"367 487 OFFCURVE",
"297 458 CURVE",
"307 408 LINE",
"357 408 LINE",
"382 365 OFFCURVE",
"311 309 OFFCURVE",
"238 241 CURVE",
"251 235 OFFCURVE",
"266 217 OFFCURVE",
"280 212 CURVE"
);
},
{
closed = 1;
nodes = (
"122 209 OFFCURVE",
"11 99 OFFCURVE",
"32 -1 CURVE",
"53 -6 OFFCURVE",
"122 -8 OFFCURVE",
"192 21 CURVE",
"182 71 LINE",
"132 71 LINE",
"107 114 OFFCURVE",
"174 172 OFFCURVE",
"251 239 CURVE",
"238 245 OFFCURVE",
"223 263 OFFCURVE",
"209 268 CURVE"
);
}
);
width = 487;
}
);
leftKerningGroup = z;
rightKerningGroup = z;
unicode = 0078;
},
{
color = 5;
glyphname = y;
lastChange = "2016-11-22 13:36:40 +0000";
layers = (
{
anchors = (
{
name = bottom;
position = "{245, 0}";
},
{
name = top;
position = "{267, 480}";
}
);
background = {
components = (
{
name = n;
transform = "{1, 0, 0, 1, -2, 0}";
}
);
};
guideLines = (
{
angle = 90;
position = "{42, 286}";
},
{
position = "{146, 21}";
},
{
position = "{164, 71}";
},
{
position = "{146, 407}";
},
{
position = "{164, 457}";
}
);
layerId = "11343128-4963-4E5D-BE9C-B74F53B36FA5";
paths = (
{
closed = 1;
nodes = (
"302 87 OFFCURVE",
"295 115 OFFCURVE",
"248 267 CURVE SMOOTH",
"226 339 OFFCURVE",
"199 449 OFFCURVE",
"186 480 CURVE",
"166 486 OFFCURVE",
"96 490 OFFCURVE",
"14 460 CURVE",
"24 409 LINE",
"61 409 LINE",
"99 367 OFFCURVE",
"199 70 OFFCURVE",
"206 -30 CURVE",
"238 -34 OFFCURVE",
"275 58 OFFCURVE",
"319 64 CURVE"
);
},
{
closed = 1;
nodes = (
"401 170 OFFCURVE",
"497 355 OFFCURVE",
"480 480 CURVE",
"459 487 OFFCURVE",
"373 488 OFFCURVE",
"306 459 CURVE",
"316 409 LINE",
"366 409 LINE",
"395 362 OFFCURVE",
"350 223 OFFCURVE",
"273 100 CURVE SMOOTH",
"161 -80 OFFCURVE",
"104 -167 OFFCURVE",
"94 -227 CURVE",
"221 -260 LINE",
"235 -249 LINE",
"239 -140 OFFCURVE",
"284 -36 OFFCURVE",
"347 75 CURVE SMOOTH"
);
}
);
width = 490;
},
{
anchors = (
{
name = bottom;
position = "{245, 0}";
},
{
name = top;
position = "{267, 480}";
}
);
background = {
components = (
{
name = n;
transform = "{1, 0, 0, 1, -2, 0}";
}
);
};
guideLines = (
{
angle = 90;
position = "{42, 286}";
},
{
position = "{146, 21}";
},
{
position = "{164, 71}";
},
{
position = "{146, 407}";
},
{
position = "{164, 457}";
}
);
layerId = "0B1F8F77-7348-4C28-A663-EA76351238C4";
paths = (
{
closed = 1;
nodes = (
"292 87 OFFCURVE",
"285 115 OFFCURVE",
"238 267 CURVE SMOOTH",
"216 339 OFFCURVE",
"189 449 OFFCURVE",
"176 480 CURVE",
"156 486 OFFCURVE",
"106 490 OFFCURVE",
"24 460 CURVE",
"34 409 LINE",
"71 409 LINE",
"109 367 OFFCURVE",
"209 70 OFFCURVE",
"216 -30 CURVE",
"248 -34 OFFCURVE",
"265 58 OFFCURVE",
"309 64 CURVE"
);
},
{
closed = 1;
nodes = (
"391 170 OFFCURVE",
"497 355 OFFCURVE",
"480 480 CURVE",
"459 487 OFFCURVE",
"383 488 OFFCURVE",
"316 459 CURVE",
"326 409 LINE",
"376 409 LINE",
"405 362 OFFCURVE",
"366 207 OFFCURVE",
"282 87 CURVE SMOOTH",
"156 -93 OFFCURVE",
"112 -168 OFFCURVE",
"112 -228 CURVE",
"221 -260 LINE",
"235 -249 LINE",
"239 -140 OFFCURVE",
"274 -36 OFFCURVE",
"337 75 CURVE SMOOTH"
);
}
);
width = 490;
}
);
leftKerningGroup = v;
rightKerningGroup = g;
unicode = 0079;
},
{
color = 5;
glyphname = z;
lastChange = "2016-11-22 13:36:40 +0000";
layers = (
{
anchors = (
{
name = bottom;
position = "{209, 0}";
},
{
name = top;
position = "{209, 480}";
}
);
background = {
paths = (
{
closed = 1;
nodes = (
"126 -3 OFFCURVE",
"167 21 OFFCURVE",
"172 27 CURVE",
"187 42 OFFCURVE",
"210 58 OFFCURVE",
"227 83 CURVE SMOOTH",
"244 108 OFFCURVE",
"371 335 OFFCURVE",
"422 453 CURVE",
"407 465 OFFCURVE",
"391 477 OFFCURVE",
"375 480 CURVE SMOOTH",
"353 484 OFFCURVE",
"349 469 OFFCURVE",
"341 448 CURVE SMOOTH",
"309 370 OFFCURVE",
"253 262 OFFCURVE",
"195 163 CURVE SMOOTH",
"183 143 OFFCURVE",
"165 129 OFFCURVE",
"153 127 CURVE",
"128 137 OFFCURVE",
"101 152 OFFCURVE",
"78 167 CURVE",
"62 131 OFFCURVE",
"39 51 OFFCURVE",
"40 39 CURVE",
"51 14 OFFCURVE",
"80 -3 OFFCURVE",
"109 -3 CURVE SMOOTH"
);
},
{
closed = 1;
nodes = (
"425 62 OFFCURVE",
"447 112 OFFCURVE",
"452 146 CURVE",
"409 163 LINE",
"404 143 OFFCURVE",
"396 128 OFFCURVE",
"387 116 CURVE",
"342 110 OFFCURVE",
"290 103 OFFCURVE",
"218 150 CURVE",
"157 74 LINE",
"228 10 OFFCURVE",
"308 -34 OFFCURVE",
"394 17 CURVE"
);
},
{
closed = 1;
nodes = (
"106 332 OFFCURVE",
"265 347 OFFCURVE",
"311 344 CURVE",
"349 380 LINE",
"336 403 OFFCURVE",
"382 444 OFFCURVE",
"359 444 CURVE",
"278 435 OFFCURVE",
"150 472 OFFCURVE",
"73 478 CURVE",
"66 468 OFFCURVE",
"50 345 OFFCURVE",
"60 317 CURVE"
);
}
);
};
layerId = "11343128-4963-4E5D-BE9C-B74F53B36FA5";
paths = (
{
closed = 1;
nodes = (
"348 110 OFFCURVE",
"315 84 OFFCURVE",
"166 95 CURVE",
"192 140 OFFCURVE",
"318 324 OFFCURVE",
"397 415 CURVE",
"383 475 LINE",
"274 473 OFFCURVE",
"146 474 OFFCURVE",
"42 479 CURVE",
"36 412 OFFCURVE",
"30 341 OFFCURVE",
"30 303 CURVE",
"43 302 OFFCURVE",
"76 307 OFFCURVE",
"95 313 CURVE",
"105 363 LINE",
"136 372 OFFCURVE",
"225 376 OFFCURVE",
"268 378 CURVE",
"249 336 OFFCURVE",
"124 151 OFFCURVE",
"17 62 CURVE",
"29 1 LINE",
"151 1 OFFCURVE",
"272 3 OFFCURVE",
"394 -2 CURVE",
"402 51 OFFCURVE",
"409 97 OFFCURVE",
"418 152 CURVE",
"400 156 OFFCURVE",
"376 159 OFFCURVE",
"360 160 CURVE"
);
}
);
width = 418;
},
{
anchors = (
{
name = bottom;
position = "{209, 0}";
},
{
name = top;
position = "{209, 480}";
}
);
background = {
paths = (
{
closed = 1;
nodes = (
"126 -3 OFFCURVE",
"167 21 OFFCURVE",
"172 27 CURVE",
"187 42 OFFCURVE",
"210 58 OFFCURVE",
"227 83 CURVE SMOOTH",
"244 108 OFFCURVE",
"371 335 OFFCURVE",
"422 453 CURVE",
"407 465 OFFCURVE",
"391 477 OFFCURVE",
"375 480 CURVE SMOOTH",
"353 484 OFFCURVE",
"349 469 OFFCURVE",
"341 448 CURVE SMOOTH",
"309 370 OFFCURVE",
"253 262 OFFCURVE",
"195 163 CURVE SMOOTH",
"183 143 OFFCURVE",
"165 129 OFFCURVE",
"153 127 CURVE",
"128 137 OFFCURVE",
"101 152 OFFCURVE",
"78 167 CURVE",
"62 131 OFFCURVE",
"39 51 OFFCURVE",
"40 39 CURVE",
"51 14 OFFCURVE",
"80 -3 OFFCURVE",
"109 -3 CURVE SMOOTH"
);
},
{
closed = 1;
nodes = (
"425 62 OFFCURVE",
"447 112 OFFCURVE",
"452 146 CURVE",
"409 163 LINE",
"404 143 OFFCURVE",
"396 128 OFFCURVE",
"387 116 CURVE",
"342 110 OFFCURVE",
"290 103 OFFCURVE",
"218 150 CURVE",
"157 74 LINE",
"228 10 OFFCURVE",
"308 -34 OFFCURVE",
"394 17 CURVE"
);
},
{
closed = 1;
nodes = (
"106 332 OFFCURVE",
"265 347 OFFCURVE",
"311 344 CURVE",
"349 380 LINE",
"336 403 OFFCURVE",
"382 444 OFFCURVE",
"359 444 CURVE",
"278 435 OFFCURVE",
"150 472 OFFCURVE",
"73 478 CURVE",
"66 468 OFFCURVE",
"50 345 OFFCURVE",
"60 317 CURVE"
);
}
);
};
layerId = "0B1F8F77-7348-4C28-A663-EA76351238C4";
paths = (
{
closed = 1;
nodes = (
"347 100 OFFCURVE",
"308 74 OFFCURVE",
"159 85 CURVE",
"185 130 OFFCURVE",
"318 324 OFFCURVE",
"397 415 CURVE",
"383 475 LINE",
"274 473 OFFCURVE",
"146 474 OFFCURVE",
"42 479 CURVE",
"36 412 OFFCURVE",
"30 351 OFFCURVE",
"30 313 CURVE",
"43 312 OFFCURVE",
"76 317 OFFCURVE",
"95 323 CURVE",
"105 373 LINE",
"136 382 OFFCURVE",
"238 386 OFFCURVE",
"281 388 CURVE",
"262 346 OFFCURVE",
"124 151 OFFCURVE",
"17 62 CURVE",
"29 1 LINE",
"151 1 OFFCURVE",
"272 3 OFFCURVE",
"394 -2 CURVE",
"402 51 OFFCURVE",
"408 87 OFFCURVE",
"417 142 CURVE",
"399 146 OFFCURVE",
"375 149 OFFCURVE",
"359 150 CURVE"
);
}
);
width = 418;
}
);
leftKerningGroup = z;
rightKerningGroup = z;
unicode = 007A;
},
{
glyphname = T_h.dlig;
lastChange = "2016-11-22 13:36:40 +0000";
layers = (
{
anchors = (
{
name = bottom;
position = "{307, 0}";
},
{
name = center;
position = "{307, 350}";
},
{
name = top;
position = "{307, 700}";
}
);
layerId = "11343128-4963-4E5D-BE9C-B74F53B36FA5";
paths = (
{
closed = 1;
nodes = (
"175 675 LINE",
"170 623 LINE",
"225 612 LINE",
"237 587 OFFCURVE",
"237 512 OFFCURVE",
"237 407 CURVE SMOOTH",
"237 197 OFFCURVE",
"222 114 OFFCURVE",
"227 98 CURVE SMOOTH",
"231 86 OFFCURVE",
"247 71 OFFCURVE",
"276 65 CURVE",
"169 55 LINE",
"167 0 LINE",
"448 1 LINE",
"453 54 LINE",
"395 64 LINE",
"357 123 OFFCURVE",
"365 307 OFFCURVE",
"365 353 CURVE SMOOTH",
"365 488 OFFCURVE",
"364 567 OFFCURVE",
"377 588 CURVE SMOOTH",
"387 608 OFFCURVE",
"418 621 OFFCURVE",
"441 623 CURVE",
"442 675 LINE"
);
},
{
closed = 1;
nodes = (
"668 326 LINE",
"727 363 OFFCURVE",
"784 380 OFFCURVE",
"816 382 CURVE",
"854 298 OFFCURVE",
"812 47 OFFCURVE",
"838 0 CURVE",
"927 -10 OFFCURVE",
"998 8 OFFCURVE",
"1024 21 CURVE",
"1015 71 LINE",
"961 71 LINE",
"938 133 OFFCURVE",
"943 309 OFFCURVE",
"949 382 CURVE SMOOTH",
"953 431 OFFCURVE",
"929 486 OFFCURVE",
"847 483 CURVE",
"776 462 OFFCURVE",
"677 406 OFFCURVE",
"668 381 CURVE"
);
},
{
closed = 1;
nodes = (
"509 55 LINE",
"506 0 LINE",
"753 0 LINE",
"757 56 LINE",
"690 66 LINE",
"640 66 LINE"
);
},
{
closed = 1;
nodes = (
"689 469 OFFCURVE",
"691 610 OFFCURVE",
"688 687 CURVE",
"661 707 LINE",
"622 698 OFFCURVE",
"546 687 OFFCURVE",
"485 684 CURVE SMOOTH",
"315 677 OFFCURVE",
"219 674 OFFCURVE",
"47 680 CURVE",
"25 517 LINE",
"77 506 LINE",
"95 584 OFFCURVE",
"142 589 OFFCURVE",
"248 588 CURVE SMOOTH",
"381 587 LINE",
"416 588 OFFCURVE",
"525 586 OFFCURVE",
"565 579 CURVE",
"571 555 OFFCURVE",
"574 532 OFFCURVE",
"575 508 CURVE SMOOTH",
"582 343 OFFCURVE",
"567 117 OFFCURVE",
"566 101 CURVE",
"563 73 OFFCURVE",
"606 59 OFFCURVE",
"627 57 CURVE SMOOTH",
"654 54 OFFCURVE",
"668 40 OFFCURVE",
"703 40 CURVE",
"695 63 OFFCURVE",
"689 157 OFFCURVE",
"689 347 CURVE SMOOTH"
);
}
);
width = 1034;
},
{
anchors = (
{
name = bottom;
position = "{307, 0}";
},
{
name = center;
position = "{307, 350}";
},
{
name = top;
position = "{307, 700}";
}
);
layerId = "0B1F8F77-7348-4C28-A663-EA76351238C4";
paths = (
{
closed = 1;
nodes = (
"175 675 LINE",
"170 623 LINE",
"225 612 LINE",
"237 587 OFFCURVE",
"237 512 OFFCURVE",
"237 407 CURVE SMOOTH",
"237 197 OFFCURVE",
"222 114 OFFCURVE",
"227 98 CURVE SMOOTH",
"231 86 OFFCURVE",
"247 71 OFFCURVE",
"276 65 CURVE",
"169 55 LINE",
"167 0 LINE",
"448 1 LINE",
"453 54 LINE",
"395 64 LINE",
"357 123 OFFCURVE",
"365 307 OFFCURVE",
"365 353 CURVE SMOOTH",
"365 488 OFFCURVE",
"364 567 OFFCURVE",
"377 588 CURVE SMOOTH",
"387 608 OFFCURVE",
"418 621 OFFCURVE",
"441 623 CURVE",
"442 675 LINE"
);
},
{
closed = 1;
nodes = (
"668 326 LINE",
"727 363 OFFCURVE",
"784 380 OFFCURVE",
"816 382 CURVE",
"854 298 OFFCURVE",
"812 47 OFFCURVE",
"838 0 CURVE",
"927 -10 OFFCURVE",
"998 8 OFFCURVE",
"1024 21 CURVE",
"1015 71 LINE",
"961 71 LINE",
"938 133 OFFCURVE",
"943 309 OFFCURVE",
"949 382 CURVE SMOOTH",
"953 431 OFFCURVE",
"929 486 OFFCURVE",
"847 483 CURVE",
"776 462 OFFCURVE",
"677 406 OFFCURVE",
"668 381 CURVE"
);
},
{
closed = 1;
nodes = (
"509 55 LINE",
"506 0 LINE",
"753 0 LINE",
"757 56 LINE",
"690 66 LINE",
"640 66 LINE"
);
},
{
closed = 1;
nodes = (
"689 469 OFFCURVE",
"691 610 OFFCURVE",
"688 687 CURVE",
"661 707 LINE",
"622 698 OFFCURVE",
"546 687 OFFCURVE",
"485 684 CURVE SMOOTH",
"315 677 OFFCURVE",
"219 674 OFFCURVE",
"47 680 CURVE",
"25 517 LINE",
"77 506 LINE",
"95 584 OFFCURVE",
"142 589 OFFCURVE",
"248 588 CURVE SMOOTH",
"381 587 LINE",
"416 588 OFFCURVE",
"525 586 OFFCURVE",
"565 579 CURVE",
"571 555 OFFCURVE",
"574 532 OFFCURVE",
"575 508 CURVE SMOOTH",
"582 343 OFFCURVE",
"567 117 OFFCURVE",
"566 101 CURVE",
"563 73 OFFCURVE",
"606 59 OFFCURVE",
"627 57 CURVE SMOOTH",
"654 54 OFFCURVE",
"668 40 OFFCURVE",
"703 40 CURVE",
"695 63 OFFCURVE",
"689 157 OFFCURVE",
"689 347 CURVE SMOOTH"
);
}
);
width = 1034;
}
);
leftKerningGroup = T;
rightKerningGroup = i;
rightMetricsKey = h;
},
{
glyphname = c_t.dlig;
lastChange = "2016-11-22 13:36:40 +0000";
layers = (
{
background = {
components = (
{
name = s;
transform = "{1, 0, 0, 1, 234, 156}";
}
);
};
components = (
{
name = c;
},
{
name = t;
transform = "{1, 0, 0, 1, 412, 0}";
}
);
layerId = "11343128-4963-4E5D-BE9C-B74F53B36FA5";
paths = (
{
closed = 1;
nodes = (
"264 541 OFFCURVE",
"308 471 OFFCURVE",
"327 447 CURVE",
"392 447 LINE",
"371 489 OFFCURVE",
"357 538 OFFCURVE",
"384 563 CURVE",
"417 561 OFFCURVE",
"465 551 OFFCURVE",
"496 538 CURVE",
"592 473 LINE",
"598 608 LINE",
"552 649 OFFCURVE",
"378 675 OFFCURVE",
"319 606 CURVE SMOOTH"
);
}
);
width = 734;
},
{
background = {
components = (
{
name = s;
transform = "{1, 0, 0, 1, 234, 156}";
}
);
};
components = (
{
name = c;
},
{
name = t;
transform = "{1, 0, 0, 1, 412, 0}";
}
);
layerId = "0B1F8F77-7348-4C28-A663-EA76351238C4";
paths = (
{
closed = 1;
nodes = (
"264 541 OFFCURVE",
"308 471 OFFCURVE",
"327 447 CURVE",
"392 447 LINE",
"371 489 OFFCURVE",
"357 538 OFFCURVE",
"384 563 CURVE",
"417 561 OFFCURVE",
"465 551 OFFCURVE",
"496 538 CURVE",
"592 473 LINE",
"598 608 LINE",
"552 649 OFFCURVE",
"378 675 OFFCURVE",
"319 606 CURVE SMOOTH"
);
}
);
width = 734;
}
);
leftKerningGroup = c;
leftMetricsKey = c;
rightKerningGroup = t;
rightMetricsKey = t;
},
{
glyphname = f_b.liga;
lastChange = "2016-11-22 13:36:40 +0000";
layers = (
{
background = {
components = (
{
name = b;
}
);
};
components = (
{
name = fb_comp;
transform = "{1, 0, 0, 1, -21, 0}";
}
);
layerId = "11343128-4963-4E5D-BE9C-B74F53B36FA5";
paths = (
{
closed = 1;
nodes = (
"473 81 OFFCURVE",
"477 182 OFFCURVE",
"477 329 CURVE SMOOTH",
"477 491 OFFCURVE",
"484 683 OFFCURVE",
"474 714 CURVE",
"455 719 OFFCURVE",
"376 739 OFFCURVE",
"286 716 CURVE",
"295 665 LINE",
"309 669 OFFCURVE",
"326 662 OFFCURVE",
"337 664 CURVE",
"385 629 OFFCURVE",
"353 60 OFFCURVE",
"352 37 CURVE",
"356 30 OFFCURVE",
"412 29 OFFCURVE",
"433 27 CURVE",
"438 40 OFFCURVE",
"441 51 OFFCURVE",
"459 84 CURVE",
"469 89 OFFCURVE",
"470 62 OFFCURVE",
"483 40 CURVE"
);
},
{
closed = 1;
nodes = (
"688 454 OFFCURVE",
"646 483 OFFCURVE",
"587 483 CURVE",
"552 474 OFFCURVE",
"470 438 OFFCURVE",
"437 413 CURVE",
"395 293 OFFCURVE",
"361 82 OFFCURVE",
"352 37 CURVE",
"393 2 OFFCURVE",
"516 -15 OFFCURVE",
"581 -2 CURVE SMOOTH",
"789 39 OFFCURVE",
"813 334 OFFCURVE",
"708 435 CURVE SMOOTH"
);
},
{
closed = 1;
nodes = (
"534 73 OFFCURVE",
"471 92 OFFCURVE",
"449 141 CURVE SMOOTH",
"425 195 OFFCURVE",
"431 299 OFFCURVE",
"447 353 CURVE",
"458 360 OFFCURVE",
"526 388 OFFCURVE",
"577 388 CURVE",
"592 383 OFFCURVE",
"607 372 OFFCURVE",
"622 342 CURVE SMOOTH",
"664 258 OFFCURVE",
"652 119 OFFCURVE",
"577 73 CURVE"
);
}
);
width = 792;
},
{
background = {
components = (
{
name = b;
}
);
};
components = (
{
name = fb_comp;
transform = "{1, 0, 0, 1, -21, 0}";
}
);
layerId = "0B1F8F77-7348-4C28-A663-EA76351238C4";
paths = (
{
closed = 1;
nodes = (
"473 81 OFFCURVE",
"477 182 OFFCURVE",
"477 329 CURVE SMOOTH",
"477 491 OFFCURVE",
"484 683 OFFCURVE",
"474 714 CURVE",
"455 719 OFFCURVE",
"376 739 OFFCURVE",
"286 716 CURVE",
"295 665 LINE",
"309 669 OFFCURVE",
"326 662 OFFCURVE",
"337 664 CURVE",
"385 629 OFFCURVE",
"353 60 OFFCURVE",
"352 37 CURVE",
"356 30 OFFCURVE",
"412 29 OFFCURVE",
"433 27 CURVE",
"438 40 OFFCURVE",
"441 51 OFFCURVE",
"459 84 CURVE",
"469 89 OFFCURVE",
"470 62 OFFCURVE",
"483 40 CURVE"
);
},
{
closed = 1;
nodes = (
"688 454 OFFCURVE",
"646 483 OFFCURVE",
"587 483 CURVE",
"552 474 OFFCURVE",
"470 438 OFFCURVE",
"437 413 CURVE",
"395 293 OFFCURVE",
"361 82 OFFCURVE",
"352 37 CURVE",
"393 2 OFFCURVE",
"516 -15 OFFCURVE",
"581 -2 CURVE SMOOTH",
"789 39 OFFCURVE",
"813 334 OFFCURVE",
"708 435 CURVE SMOOTH"
);
},
{
closed = 1;
nodes = (
"534 73 OFFCURVE",
"471 92 OFFCURVE",
"449 141 CURVE SMOOTH",
"425 195 OFFCURVE",
"431 299 OFFCURVE",
"447 353 CURVE",
"458 360 OFFCURVE",
"526 388 OFFCURVE",
"577 388 CURVE",
"592 383 OFFCURVE",
"607 372 OFFCURVE",
"622 342 CURVE SMOOTH",
"664 258 OFFCURVE",
"652 119 OFFCURVE",
"577 73 CURVE"
);
}
);
width = 792;
}
);
leftKerningGroup = f;
leftMetricsKey = f;
rightKerningGroup = o;
rightMetricsKey = b;
},
